<svg width="2238" height="846" viewBox="0 0 2238 846" fill="none" xmlns="http://www.w3.org/2000/svg">
<path d="M-302.084 647.397C-306.695 671.968 -311.305 696.539 -315.916 721.11C-275.266 767.011 -229.529 796.844 -181.504 810.12C-172.037 812.733 -162.452 814.713 -152.764 816.057C718.038 930.166 1647.27 708.853 2305.31 140.643C2325.54 122.96 2345.52 104.89 2365.12 86.5598C2381.01 71.6961 2400.67 60.8271 2424.48 53.5484C2406.83 35.8495 2389.17 18.1505 2371.52 0.451616C2364.75 23.6772 2353.38 42.7748 2337.8 57.3463C2318.58 75.3179 2298.88 92.9254 2278.86 110.042C1612.13 665.788 688.337 715.681 -123.914 608.048C-133.068 606.778 -142.286 606.076 -151.579 605.94C-198.731 605.27 -248.56 619.172 -302.084 647.397Z" fill="url(#paint0_linear_540_60)"/>
<defs>
<linearGradient id="paint0_linear_540_60" x1="1382" y1="387" x2="598" y2="748" gradientUnits="userSpaceOnUse">
<stop stop-color="#E1B00E"/>
<stop offset="1" stop-color="#C08203"/>
</linearGradient>
</defs>
</svg>
