<svg width="881" height="445" viewBox="0 0 881 445" fill="none" xmlns="http://www.w3.org/2000/svg">
    <path
        d="M1079.06 333.538C1081.44 346.179 1083.81 358.82 1086.18 371.461C1062.21 378.758 1037.75 385.545 1013.29 391.751C606.866 492.211 136.463 461.019 -233.956 199.499C-262.143 179.192 -284.996 151.286 -300.712 117.198C-312.871 90.8691 -320.734 60.9048 -323.664 28.0223C-314.581 18.9168 -305.497 9.81126 -296.413 0.705751C-264.186 2.89532 -235.753 6.60223 -210.385 12.7177C-177.549 20.6068 -149.911 32.4953 -126.011 49.7275C185.573 270.808 597.858 350.946 1005.37 337.712C1029.88 336.743 1054.59 335.334 1079.06 333.538Z"
        fill="url(#paint0_linear_661_316)" />
    <defs>
        <linearGradient id="paint0_linear_661_316" x1="331.501" y1="94.3637" x2="521.854" y2="373.976"
            gradientUnits="userSpaceOnUse">
            <stop stop-color="#E1B00E" />
            <stop offset="1" stop-color="#C08203" />
        </linearGradient>
    </defs>
</svg>