<svg width="2238" height="420" viewBox="0 0 2238 420" fill="none" xmlns="http://www.w3.org/2000/svg">
<path d="M2482.45 407.545C2480.48 382.623 2478.52 357.7 2476.55 332.778C2431.8 333.877 2386.49 332.917 2341.66 330.262C1935.35 303.485 1545.26 160.573 1135.57 68.2444C790.612 -7.51758 390.152 -57.066 55.4971 131.832C0.990234 162.918 -50.6885 200.104 -96.9814 241.472C-133.449 274.056 -165.748 307.907 -197.053 345.991C-177.94 362.105 -158.826 378.219 -139.712 394.333C-109.735 359.848 -79.4238 329.398 -45.5125 300.426C-2.45801 263.674 45.1687 231.281 95.4988 205.695C404.332 50.7881 765.243 138.159 1102.83 212.578C1502.38 302.081 1911.07 431.017 2340.75 419.128C2387.99 417.428 2435.65 413.689 2482.45 407.545Z" fill="url(#paint0_linear_545_161)"/>
<defs>
<linearGradient id="paint0_linear_545_161" x1="322.118" y1="294.662" x2="1956.12" y2="311.661" gradientUnits="userSpaceOnUse">
<stop stop-color="#C08203"/>
<stop offset="0.528846" stop-color="#E1B00E"/>
<stop offset="0.961538" stop-color="#C08203"/>
</linearGradient>
</defs>
</svg>
