<svg width="881" height="447" viewBox="0 0 881 447" fill="none" xmlns="http://www.w3.org/2000/svg">
    <path
        d="M-220.535 300.952C-222.676 312.364 -224.818 323.777 -226.959 335.189C-213.687 386.4 -194.498 417.871 -172.231 429.076C-167.84 431.28 -163.317 432.705 -158.678 433.348C257.007 488.632 706.231 371.137 1004.29 81.524C1013.41 72.5711 1022.38 63.4412 1031.14 54.1958C1038.25 46.6882 1041.16 34.8537 1045.86 25.1294C1037.66 16.9089 1029.46 8.68831 1021.26 0.467758C1011.77 4.91138 1000.26 6.99592 992.756 13.1595C983.486 20.7757 974.024 28.2162 964.442 35.4267C647.193 267.852 235.753 276.324 -130.283 228.616C-134.396 228.046 -138.606 228.225 -142.929 229.152C-164.868 233.88 -190.067 257.951 -220.535 300.952Z"
        fill="url(#paint0_linear_661_315)" />
    <defs>
        <linearGradient id="paint0_linear_661_315" x1="561.665" y1="180.006" x2="197.524" y2="347.679"
            gradientUnits="userSpaceOnUse">
            <stop stop-color="#E1B00E" />
            <stop offset="1" stop-color="#C08203" />
        </linearGradient>
    </defs>
</svg>