<svg width="881" height="723" viewBox="0 0 881 723" fill="none" xmlns="http://www.w3.org/2000/svg">
    <path
        d="M1335.81 0.423058C1357.68 12.0222 1379.54 23.6214 1401.41 35.2205C1385.13 69.8096 1368.4 102.026 1349.19 135.044C1182.68 431.587 864.569 647.009 528.184 703.904C239.603 754.997 -55.2719 700.913 -306.883 573.393C-349.686 551.164 -390.072 527.279 -429.542 498.582C-459.469 476.771 -488.537 452.097 -514.038 424.901C-495.838 407.102 -477.638 389.303 -459.438 371.504C-436.631 394.026 -410.446 415.178 -383.03 433.916C-346.897 458.592 -309.224 479.175 -268.646 497.108C-27.0435 600.548 250.72 603.419 505.852 557.679C806.428 504.933 1086.97 341.734 1275.39 87.3026C1296.78 58.8517 1316.3 30.9043 1335.81 0.423058Z"
        fill="url(#paint0_linear_661_318)" />
    <defs>
        <linearGradient id="paint0_linear_661_318" x1="-141.228" y1="463.641" x2="1004.91" y2="432.312"
            gradientUnits="userSpaceOnUse">
            <stop stop-color="#C08203" />
            <stop offset="0.528846" stop-color="#E1B00E" />
            <stop offset="0.961538" stop-color="#C08203" />
        </linearGradient>
    </defs>
</svg>