<svg width="2238" height="811" viewBox="0 0 2238 811" fill="none" xmlns="http://www.w3.org/2000/svg">
<path d="M2391.08 647.397C2395.69 671.968 2400.31 696.539 2404.92 721.11C2357.68 731.91 2309.67 741.789 2261.78 750.619C1466.06 891.796 583.103 800.736 -107.656 312.689C-160.322 274.737 -208.299 230.082 -250.119 179.748C-282.45 140.856 -311.033 98.6612 -335.485 53.5484C-317.828 35.8495 -300.172 18.1505 -282.515 0.451616C-238.628 23.5111 -196.662 46.7646 -156.049 70.9375C-103.494 102.197 -53.3292 134.892 -4.74996 169.908C630.139 619.92 1462.92 745.257 2249.3 665.441C2296.59 660.325 2344.15 654.272 2391.08 647.397Z" fill="url(#paint0_linear_540_62)"/>
<defs>
<linearGradient id="paint0_linear_540_62" x1="938" y1="182.5" x2="1308" y2="726" gradientUnits="userSpaceOnUse">
<stop stop-color="#E1B00E"/>
<stop offset="1" stop-color="#C08203"/>
</linearGradient>
</defs>
</svg>
