<svg width="881" height="623" viewBox="0 0 881 623" fill="none" xmlns="http://www.w3.org/2000/svg">
    <path
        d="M1261.87 622.453C1283.51 609.768 1305.15 597.082 1326.79 584.397C1311.44 553.406 1295.69 524.594 1277.64 495.154C1121.15 230.416 825.11 46.0992 515.279 9.60187C249.33 -23.8748 -19.6381 41.4741 -247.307 170.68C-286.046 193.156 -322.576 216.996 -358.19 245.207C-385.195 266.649 -411.373 290.681 -434.237 316.895C-415.652 333.741 -397.067 350.587 -378.481 367.434C-358.209 346.026 -334.84 325.663 -310.281 307.421C-277.919 283.399 -244.035 263.001 -207.432 244.933C10.7257 140.312 263.601 127.023 495.92 156.832C769.768 190.983 1027.17 324.945 1204.77 546.547C1224.91 571.317 1243.36 595.727 1261.87 622.453Z"
        fill="url(#paint0_linear_661_317)" />
    <defs>
        <linearGradient id="paint0_linear_661_317" x1="-92.2225" y1="266.376" x2="954.326" y2="273.323"
            gradientUnits="userSpaceOnUse">
            <stop stop-color="#C08203" />
            <stop offset="0.528846" stop-color="#E1B00E" />
            <stop offset="0.961538" stop-color="#C08203" />
        </linearGradient>
    </defs>
</svg>