<svg width="2238" height="585" viewBox="0 0 2238 585" fill="none" xmlns="http://www.w3.org/2000/svg">
<path d="M2593.63 0.692578C2599.88 24.8988 2606.13 49.1051 2612.38 73.3113C2565.57 87.9144 2516.59 104.536 2468.04 121.532C2035.17 276.886 1599.05 444.232 1136.82 533.259C746.42 603.868 308.307 631.139 -58.9914 421.034C-119.055 385.092 -175.026 342.109 -224.257 292.473C-262.485 253.938 -295.962 212.504 -325.922 166.636C-305.149 152.726 -284.377 138.815 -263.604 124.905C-235.281 165.98 -204.366 202.801 -169.254 236.801C-124.043 280.57 -72.8402 318.032 -17.298 348.111C323.292 524.188 732.321 456.686 1108.88 387.921C1556.02 301.989 1992.55 155.983 2442.27 36.4823C2492.79 23.4641 2544.06 10.9855 2593.63 0.692578Z" fill="url(#paint0_linear_545_406)"/>
<defs>
<linearGradient id="paint0_linear_545_406" x1="244.955" y1="210.987" x2="2033.4" y2="134.366" gradientUnits="userSpaceOnUse">
<stop stop-color="#C08203"/>
<stop offset="0.528846" stop-color="#E1B00E"/>
<stop offset="0.961538" stop-color="#C08203"/>
</linearGradient>
</defs>
</svg>
