<?xml version="1.0" encoding="UTF-8"?>
<svg id="a" data-name="レイヤー 1" xmlns="http://www.w3.org/2000/svg" viewBox="0 0 2237 326">
  <defs>
    <style>
      .b {
        fill: #f33900;
      }
    </style>
  </defs>
  <path class="b" d="M2237,326V0c-.17,0-.33,0-.5,0-46.04,0-83.78,22.35-87.24,50.74-75.84,12.11-136.56,63.17-155.28,129.18-13.01-2.55-26.76-3.92-40.98-3.92-54.02,0-101.23,19.72-126.78,49.1-1.22-.07-2.47-.1-3.72-.1-24.28,0-44.02,13.11-44.49,29.4-20.58-5.33-44.71-8.4-70.51-8.4-59.23,0-109.66,16.17-128.54,38.77-14.73-5.47-33.95-8.77-54.96-8.77-40.21,0-73.82,12.11-82.07,28.28-9.05-2.7-20.06-4.28-31.93-4.28-28.04,0-51.27,8.83-55.36,20.36-19.18-5.08-44.69-8.22-72.75-8.36-7.62-15.27-53.47-27.01-108.89-27.01-9.07,0-17.88.32-26.3.91-4.8-13.73-22.32-23.91-43.2-23.91-.76,0-1.51.01-2.26.04-9.89-15.58-28.24-26.04-49.24-26.04-26.33,0-48.5,16.45-55.04,38.8-23.39,7.17-40.61,21.7-44.91,39.13-9.26-2.53-19.41-3.93-30.05-3.93-15.04,0-29.1,2.79-41.07,7.64-8.2-19.15-27.92-32.64-50.93-32.64-4.98,0-9.8.63-14.39,1.81-8.87-17.64-27.75-29.81-49.61-29.81s-41.69,12.79-50.26,31.15c-19.85-7.58-45.38-12.15-73.24-12.15-18.33,0-35.66,1.98-51.03,5.49-2.52-13.88-16.08-24.86-33.26-26.97-11.92-12.67-30.83-20.85-52.11-20.85-20.15,0-38.17,7.34-50.15,18.87-6.32-11.32-17.62-18.87-30.53-18.87-5.1,0-9.95,1.18-14.34,3.3-16.83-24.98-49.97-41.97-88.11-41.97-48.71,0-89.28,27.72-98.11,64.39-10.79-5.13-23.18-8.04-36.36-8.04-27.99,0-52.42,13.15-65.47,32.7-7.2-3.83-15.2-6.64-23.73-8.21,19.75-18.21,31.7-41.91,31.7-67.83,0-13.99-3.48-27.34-9.8-39.53,53.71-7.3,92.8-29.6,92.8-55.97,0-28.04-44.18-51.47-103.15-57.17-8.37-15.67-40.28-27.33-78.35-27.33-11.57,0-22.56,1.08-32.5,3.02v294.98h2237Z"/>
</svg>