<?xml version="1.0" encoding="UTF-8"?>
<svg id="a" data-name="レイヤー 1" xmlns="http://www.w3.org/2000/svg" viewBox="0 0 880 287.35">
  <defs>
    <style>
      .b {
        fill: #f33900;
      }
    </style>
  </defs>
  <path class="b" d="M880,287.35V0c-54.17,21.2-92.01,69.49-92.01,125.68,0,23.55,6.65,45.72,18.36,65.09-40.38,3.37-74.29,20.88-90.59,44.99-2.14-.28-4.35-.42-6.62-.42-19.26,0-34.88,10.53-34.88,23.52,0,.1,0,.19,0,.29-11.39-1.77-23.67-2.74-36.49-2.74-46.91,0-86.77,12.94-101.21,30.94h343.43Z"/>
  <path class="b" d="M464.44,287.35c-15.35-7.11-43.7-11.88-76.13-11.88-21.41,0-41.03,2.08-56.32,5.53-4.6-6.01-12.04-9.91-20.43-9.91-2.29,0-4.51.29-6.62.84-4.08-8.11-12.76-13.71-22.82-13.71s-19.17,5.89-23.12,14.33c-9.13-3.49-20.87-5.59-33.69-5.59-8.43,0-16.4.91-23.46,2.53-1.16-6.39-7.4-11.44-15.3-12.41-5.48-5.83-14.18-9.59-23.97-9.59-9.27,0-17.56,3.38-23.07,8.68-2.91-5.21-8.11-8.68-14.04-8.68-.5,0-1,.02-1.49.07.21-1.82.32-3.66.32-5.53,0-32.54-32.37-59.1-73.03-60.63-.13-15.39-21.25-28.56-51.27-34.14v140.09h464.44Z"/>
</svg>