<svg width="2237" height="620" viewBox="0 0 2237 620" fill="none" xmlns="http://www.w3.org/2000/svg">
    <!-- <g filter="url(#filter0_n_0_1)">
        <mask id="path-1-inside-1_0_1" fill="white">
            <path
                d="M2207 118C2174.08 118 2145.07 111.479 2128.03 101.572C2118.88 102.498 2109.12 103 2099 103C2046.53 103 2004 89.5685 2004 73C2004 59.4474 2032.46 47.9962 2071.53 44.2754C2076.74 29.7256 2094.68 19 2116 19C2123.93 19 2131.4 20.4849 2137.91 23.0986C2151.18 9.19928 2174.26 0 2200.5 0C2241.65 0 2275 22.6096 2275 50.5C2275 52.0328 2274.9 53.5498 2274.7 55.0479C2291.58 61.7265 2302 70.8878 2302 81C2302 101.435 2259.47 118 2207 118ZM2276.67 653C2245.84 653 2218.35 643.375 2200.52 628.357C2192.69 630.73 2184.27 632.02 2175.5 632.021C2145.46 632.021 2119.51 616.86 2107.34 594.907C2094.46 603.713 2078.19 608.97 2060.5 608.97C2050.07 608.97 2040.14 607.145 2031.11 603.847C1989.78 619.187 1926.47 629 1855.5 629C1799.38 629 1748.05 622.862 1708.58 612.708C1690.11 619.205 1668.62 624.316 1645.46 627.306C1571.71 636.824 1508.91 621.23 1505.2 592.474C1501.49 563.717 1558.27 532.689 1632.02 523.17C1637.12 522.511 1642.17 521.974 1647.15 521.552C1648.2 504.621 1665.55 491.153 1686.8 491.153C1689.03 491.153 1691.22 491.304 1693.34 491.589C1703.58 473.354 1726.4 460.663 1752.9 460.663C1766.91 460.663 1779.88 464.208 1790.51 470.24C1797.21 454.635 1811.45 443.862 1827.94 443.862C1838.33 443.862 1847.83 448.144 1855.11 455.218C1875.69 433.274 1911.01 418.796 1951.14 418.796C2004.12 418.796 2048.73 444.029 2062.07 478.362C2091.45 478.882 2116.7 493.893 2128.67 515.461C2135.5 510.784 2143.3 507.108 2151.76 504.689C2130.78 486.248 2118 461.809 2118 435C2118 413.052 2126.57 392.692 2141.19 375.911C2085.73 369.102 2045 346.426 2045 319.5C2045 295.996 2076.04 275.73 2120.81 266.43C2127.9 254.407 2144.12 246 2163 246C2165.78 246 2168.49 246.183 2171.14 246.531C2183.47 230.188 2208.56 219 2237.5 219C2278.65 219 2312 241.61 2312 269.5C2312 280.337 2306.96 290.376 2298.39 298.602C2303.95 305.092 2307 312.137 2307 319.5C2307 326.345 2304.37 332.915 2299.53 339.021C2346.79 354.721 2380 391.781 2380 435C2380 474.593 2352.13 509.018 2311.12 526.587C2347.87 535.921 2374 559.756 2374 587.688C2374 623.759 2330.43 653 2276.67 653ZM791.5 671C747.593 671 712 645.033 712 613C712 609.229 712.494 605.542 713.437 601.972C712.628 601.99 711.815 602 711 602C694.74 602 679.758 598.343 667.788 592.192C647.364 614.379 598.514 630 541.5 630C484.606 630 435.844 614.444 415.343 592.331C394.048 609.953 363.472 621 329.5 621C307.599 621 287.11 616.408 269.608 608.424C254.165 633.701 229.849 650 202.5 650C174.428 650 149.553 632.828 134.187 606.401C112.467 615.011 86.6714 620 59 620C-18.3198 620 -81 581.049 -81 533C-81 506.327 -61.6846 482.459 -31.2725 466.5C-61.6846 450.541 -81 426.673 -81 400C-81 378.769 -68.7603 359.316 -48.4287 344.213C-58.854 335.159 -65 324.031 -65 312C-65 281.624 -25.825 257 22.5 257C70.825 257 110 281.624 110 312C110 314.301 109.774 316.568 109.338 318.795C161.787 331.358 199 362.978 199 400C199 414.817 193.038 428.769 182.525 440.98C188.93 439.033 195.619 438 202.5 438C223.334 438 242.406 447.459 257.139 463.14C277.014 451.158 302.156 444 329.5 444C390.772 444 440.995 479.933 445.647 525.572C470.295 514.707 504.145 508 541.5 508C585.127 508 623.974 517.147 648.962 531.383C661.098 516.837 684.332 507 711 507C750.212 507 782 528.266 782 554.5C782 554.805 781.995 555.109 781.986 555.412C785.106 555.141 788.281 555 791.5 555C818.098 555 841.644 564.53 856.076 579.164C866.787 564.53 884.261 555 904 555C936.585 555 963 580.967 963 613C963 645.033 936.585 671 904 671C884.261 671 866.787 661.471 856.076 646.837C841.644 661.471 818.098 671 791.5 671Z" />
        </mask>
        <path
            d="M2207 118C2174.08 118 2145.07 111.479 2128.03 101.572C2118.88 102.498 2109.12 103 2099 103C2046.53 103 2004 89.5685 2004 73C2004 59.4474 2032.46 47.9962 2071.53 44.2754C2076.74 29.7256 2094.68 19 2116 19C2123.93 19 2131.4 20.4849 2137.91 23.0986C2151.18 9.19928 2174.26 0 2200.5 0C2241.65 0 2275 22.6096 2275 50.5C2275 52.0328 2274.9 53.5498 2274.7 55.0479C2291.58 61.7265 2302 70.8878 2302 81C2302 101.435 2259.47 118 2207 118ZM2276.67 653C2245.84 653 2218.35 643.375 2200.52 628.357C2192.69 630.73 2184.27 632.02 2175.5 632.021C2145.46 632.021 2119.51 616.86 2107.34 594.907C2094.46 603.713 2078.19 608.97 2060.5 608.97C2050.07 608.97 2040.14 607.145 2031.11 603.847C1989.78 619.187 1926.47 629 1855.5 629C1799.38 629 1748.05 622.862 1708.58 612.708C1690.11 619.205 1668.62 624.316 1645.46 627.306C1571.71 636.824 1508.91 621.23 1505.2 592.474C1501.49 563.717 1558.27 532.689 1632.02 523.17C1637.12 522.511 1642.17 521.974 1647.15 521.552C1648.2 504.621 1665.55 491.153 1686.8 491.153C1689.03 491.153 1691.22 491.304 1693.34 491.589C1703.58 473.354 1726.4 460.663 1752.9 460.663C1766.91 460.663 1779.88 464.208 1790.51 470.24C1797.21 454.635 1811.45 443.862 1827.94 443.862C1838.33 443.862 1847.83 448.144 1855.11 455.218C1875.69 433.274 1911.01 418.796 1951.14 418.796C2004.12 418.796 2048.73 444.029 2062.07 478.362C2091.45 478.882 2116.7 493.893 2128.67 515.461C2135.5 510.784 2143.3 507.108 2151.76 504.689C2130.78 486.248 2118 461.809 2118 435C2118 413.052 2126.57 392.692 2141.19 375.911C2085.73 369.102 2045 346.426 2045 319.5C2045 295.996 2076.04 275.73 2120.81 266.43C2127.9 254.407 2144.12 246 2163 246C2165.78 246 2168.49 246.183 2171.14 246.531C2183.47 230.188 2208.56 219 2237.5 219C2278.65 219 2312 241.61 2312 269.5C2312 280.337 2306.96 290.376 2298.39 298.602C2303.95 305.092 2307 312.137 2307 319.5C2307 326.345 2304.37 332.915 2299.53 339.021C2346.79 354.721 2380 391.781 2380 435C2380 474.593 2352.13 509.018 2311.12 526.587C2347.87 535.921 2374 559.756 2374 587.688C2374 623.759 2330.43 653 2276.67 653ZM791.5 671C747.593 671 712 645.033 712 613C712 609.229 712.494 605.542 713.437 601.972C712.628 601.99 711.815 602 711 602C694.74 602 679.758 598.343 667.788 592.192C647.364 614.379 598.514 630 541.5 630C484.606 630 435.844 614.444 415.343 592.331C394.048 609.953 363.472 621 329.5 621C307.599 621 287.11 616.408 269.608 608.424C254.165 633.701 229.849 650 202.5 650C174.428 650 149.553 632.828 134.187 606.401C112.467 615.011 86.6714 620 59 620C-18.3198 620 -81 581.049 -81 533C-81 506.327 -61.6846 482.459 -31.2725 466.5C-61.6846 450.541 -81 426.673 -81 400C-81 378.769 -68.7603 359.316 -48.4287 344.213C-58.854 335.159 -65 324.031 -65 312C-65 281.624 -25.825 257 22.5 257C70.825 257 110 281.624 110 312C110 314.301 109.774 316.568 109.338 318.795C161.787 331.358 199 362.978 199 400C199 414.817 193.038 428.769 182.525 440.98C188.93 439.033 195.619 438 202.5 438C223.334 438 242.406 447.459 257.139 463.14C277.014 451.158 302.156 444 329.5 444C390.772 444 440.995 479.933 445.647 525.572C470.295 514.707 504.145 508 541.5 508C585.127 508 623.974 517.147 648.962 531.383C661.098 516.837 684.332 507 711 507C750.212 507 782 528.266 782 554.5C782 554.805 781.995 555.109 781.986 555.412C785.106 555.141 788.281 555 791.5 555C818.098 555 841.644 564.53 856.076 579.164C866.787 564.53 884.261 555 904 555C936.585 555 963 580.967 963 613C963 645.033 936.585 671 904 671C884.261 671 866.787 661.471 856.076 646.837C841.644 661.471 818.098 671 791.5 671Z"
            fill="url(#paint0_radial_0_1)" />
        <path
            d="M2128.03 101.572L2128.53 100.708L2128.25 100.545L2127.93 100.577L2128.03 101.572ZM2071.53 44.2754L2071.63 45.2709L2072.26 45.2107L2072.47 44.6126L2071.53 44.2754ZM2137.91 23.0986L2137.54 24.0267L2138.17 24.2787L2138.64 23.7892L2137.91 23.0986ZM2274.7 55.0479L2273.71 54.9173L2273.61 55.6907L2274.33 55.9777L2274.7 55.0479ZM2276.67 653V654V653ZM2200.52 628.357L2201.16 627.593L2200.74 627.243L2200.23 627.4L2200.52 628.357ZM2175.5 632.021V633.021V632.021ZM2107.34 594.907L2108.21 594.422L2107.68 593.462L2106.77 594.082L2107.34 594.907ZM2060.5 608.97V609.97V608.97ZM2031.11 603.847L2031.46 602.907L2031.11 602.781L2030.76 602.909L2031.11 603.847ZM1708.58 612.708L1708.83 611.74L1708.54 611.664L1708.25 611.765L1708.58 612.708ZM1645.46 627.306L1645.59 628.297L1645.46 627.306ZM1505.2 592.474L1504.21 592.602L1505.2 592.474ZM1632.02 523.17L1631.89 522.178L1632.02 523.17ZM1647.15 521.552L1647.24 522.548L1648.1 522.475L1648.15 521.613L1647.15 521.552ZM1686.8 491.153V490.153V491.153ZM1693.34 491.589L1693.21 492.58L1693.88 492.67L1694.22 492.078L1693.34 491.589ZM1752.9 460.663V459.663V460.663ZM1790.51 470.24L1790.02 471.11L1790.99 471.661L1791.43 470.635L1790.51 470.24ZM1855.11 455.218L1854.42 455.935L1855.15 456.644L1855.84 455.902L1855.11 455.218ZM2062.07 478.362L2061.14 478.725L2061.38 479.35L2062.05 479.362L2062.07 478.362ZM2128.67 515.461L2127.79 515.946L2128.32 516.906L2129.23 516.286L2128.67 515.461ZM2151.76 504.689L2152.04 505.651L2153.8 505.147L2152.42 503.938L2151.76 504.689ZM2141.19 375.911L2141.94 376.568L2143.18 375.148L2141.31 374.919L2141.19 375.911ZM2120.81 266.43L2121.02 267.409L2121.45 267.319L2121.68 266.938L2120.81 266.43ZM2171.14 246.531L2171 247.523L2171.58 247.599L2171.93 247.134L2171.14 246.531ZM2298.39 298.602L2297.7 297.88L2297.02 298.534L2297.63 299.252L2298.39 298.602ZM2299.53 339.021L2298.75 338.399L2297.86 339.519L2299.21 339.97L2299.53 339.021ZM2311.12 526.587L2310.72 525.668L2308.01 526.83L2310.87 527.556L2311.12 526.587ZM2374 587.688H2375V587.688L2374 587.688ZM713.437 601.972L714.403 602.227L714.742 600.942L713.414 600.972L713.437 601.972ZM667.788 592.192L668.245 591.303L667.568 590.955L667.052 591.515L667.788 592.192ZM415.343 592.331L416.076 591.651L415.433 590.958L414.705 591.561L415.343 592.331ZM269.608 608.424L270.023 607.514L269.217 607.146L268.755 607.902L269.608 608.424ZM134.187 606.401L135.051 605.899L134.618 605.155L133.818 605.472L134.187 606.401ZM-31.2725 466.5L-30.8079 467.385L-29.1204 466.5L-30.8079 465.615L-31.2725 466.5ZM-48.4287 344.213L-47.8323 345.016L-46.8335 344.274L-47.7729 343.458L-48.4287 344.213ZM109.338 318.795L108.356 318.603L108.172 319.544L109.105 319.767L109.338 318.795ZM182.525 440.98L181.768 440.328L179.519 442.94L182.816 441.937L182.525 440.98ZM257.139 463.14L256.41 463.824L256.963 464.413L257.655 463.996L257.139 463.14ZM445.647 525.572L444.653 525.674L444.792 527.042L446.051 526.487L445.647 525.572ZM648.962 531.383L648.467 532.252L649.194 532.666L649.73 532.023L648.962 531.383ZM781.986 555.412L780.987 555.384L780.955 556.506L782.073 556.408L781.986 555.412ZM856.076 579.164L855.364 579.866L856.189 580.703L856.883 579.755L856.076 579.164ZM856.076 646.837L856.883 646.246L856.189 645.298L855.364 646.135L856.076 646.837ZM2207 118V117C2174.18 117 2145.37 110.492 2128.53 100.708L2128.03 101.572L2127.52 102.437C2144.78 112.465 2173.99 119 2207 119V118ZM2128.03 101.572L2127.93 100.577C2118.81 101.5 2109.09 102 2099 102V103V104C2109.16 104 2118.94 103.497 2128.13 102.567L2128.03 101.572ZM2099 103V102C2072.84 102 2049.2 98.6501 2032.13 93.2596C2023.59 90.5625 2016.75 87.3719 2012.06 83.876C2007.36 80.3667 2005 76.6806 2005 73H2004H2003C2003 77.6037 2005.95 81.8097 2010.87 85.4786C2015.8 89.1611 2022.87 92.4349 2031.52 95.1668C2048.84 100.634 2072.69 104 2099 104V103ZM2004 73H2005C2005 69.9891 2006.58 66.9789 2009.74 64.0511C2012.9 61.123 2017.56 58.3597 2023.5 55.8732C2035.37 50.9032 2052.15 47.1256 2071.63 45.2709L2071.53 44.2754L2071.44 43.2799C2051.84 45.146 2034.85 48.9544 2022.73 54.0283C2016.67 56.5639 2011.77 59.4371 2008.38 62.584C2004.98 65.7311 2003 69.2347 2003 73H2004ZM2071.53 44.2754L2072.47 44.6126C2077.5 30.5897 2094.94 20 2116 20V19V18C2094.41 18 2075.99 28.8616 2070.59 43.9382L2071.53 44.2754ZM2116 19V20C2123.81 20 2131.15 21.4619 2137.54 24.0267L2137.91 23.0986L2138.29 22.1705C2131.65 19.5078 2124.06 18 2116 18V19ZM2137.91 23.0986L2138.64 23.7892C2151.68 10.131 2174.46 1 2200.5 1V0V-1C2174.05 -1 2150.69 8.26764 2137.19 22.408L2137.91 23.0986ZM2200.5 0V1C2220.9 1 2239.32 6.60657 2252.62 15.6188C2265.92 24.6349 2274 36.9854 2274 50.5H2275H2276C2276 36.1242 2267.4 23.2247 2253.74 13.9634C2240.07 4.69824 2221.25 -1 2200.5 -1V0ZM2275 50.5H2274C2274 51.989 2273.9 53.4623 2273.71 54.9173L2274.7 55.0479L2275.69 55.1784C2275.9 53.6372 2276 52.0767 2276 50.5H2275ZM2274.7 55.0479L2274.33 55.9777C2282.71 59.2902 2289.41 63.1932 2294 67.4683C2298.59 71.7419 2301 76.3138 2301 81H2302H2303C2303 75.574 2300.2 70.5091 2295.36 66.0045C2290.53 61.5011 2283.58 57.4842 2275.07 54.118L2274.7 55.0479ZM2302 81H2301C2301 85.7349 2298.54 90.3541 2293.86 94.6664C2289.17 98.9796 2282.34 102.91 2273.81 106.231C2256.76 112.871 2233.14 117 2207 117V118V119C2233.33 119 2257.2 114.846 2274.54 108.095C2283.2 104.72 2290.28 100.678 2295.21 96.1377C2300.14 91.5967 2303 86.4824 2303 81H2302ZM2276.67 653V652C2246.03 652 2218.78 642.431 2201.16 627.593L2200.52 628.357L2199.87 629.122C2217.92 644.318 2245.65 654 2276.67 654V653ZM2200.52 628.357L2200.23 627.4C2192.49 629.745 2184.17 631.02 2175.5 631.021V632.021V633.021C2184.37 633.02 2192.88 631.716 2200.81 629.314L2200.52 628.357ZM2175.5 632.021V631.021C2145.78 631.021 2120.19 616.024 2108.21 594.422L2107.34 594.907L2106.46 595.392C2118.83 617.696 2145.14 633.021 2175.5 633.021V632.021ZM2107.34 594.907L2106.77 594.082C2094.07 602.771 2077.99 607.97 2060.5 607.97V608.97V609.97C2078.39 609.97 2094.86 604.654 2107.9 595.733L2107.34 594.907ZM2060.5 608.97V607.97C2050.19 607.97 2040.38 606.166 2031.46 602.907L2031.11 603.847L2030.77 604.786C2039.91 608.125 2049.96 609.97 2060.5 609.97V608.97ZM2031.11 603.847L2030.76 602.909C1989.58 618.194 1926.4 628 1855.5 628V629V630C1926.54 630 1989.98 620.179 2031.46 604.784L2031.11 603.847ZM1855.5 629V628C1799.44 628 1748.2 621.869 1708.83 611.74L1708.58 612.708L1708.33 613.676C1747.89 623.856 1799.31 630 1855.5 630V629ZM1708.58 612.708L1708.25 611.765C1689.85 618.236 1668.43 623.332 1645.33 626.314L1645.46 627.306L1645.59 628.297C1668.82 625.299 1690.37 620.173 1708.91 613.651L1708.58 612.708ZM1645.46 627.306L1645.33 626.314C1608.55 631.062 1574.54 629.539 1549.3 623.272C1536.68 620.138 1526.31 615.831 1518.89 610.57C1511.46 605.311 1507.07 599.164 1506.19 592.346L1505.2 592.474L1504.21 592.602C1505.18 600.161 1510.03 606.748 1517.73 612.202C1525.43 617.656 1536.06 622.044 1548.82 625.213C1574.35 631.554 1608.62 633.069 1645.59 628.297L1645.46 627.306ZM1505.2 592.474L1506.19 592.346C1505.31 585.527 1508 578.466 1513.84 571.494C1519.69 564.521 1528.63 557.721 1540.04 551.485C1562.85 539.017 1595.36 528.909 1632.15 524.162L1632.02 523.17L1631.89 522.178C1594.92 526.949 1562.16 537.115 1539.08 549.73C1527.54 556.036 1518.37 562.98 1512.31 570.209C1506.25 577.44 1503.23 585.042 1504.21 592.602L1505.2 592.474ZM1632.02 523.17L1632.15 524.162C1637.23 523.505 1642.27 522.969 1647.24 522.548L1647.15 521.552L1647.07 520.555C1642.07 520.979 1637.01 521.518 1631.89 522.178L1632.02 523.17ZM1647.15 521.552L1648.15 521.613C1649.15 505.381 1665.89 492.153 1686.8 492.153V491.153V490.153C1665.21 490.153 1647.24 503.862 1646.15 521.49L1647.15 521.552ZM1686.8 491.153V492.153C1688.98 492.153 1691.13 492.301 1693.21 492.58L1693.34 491.589L1693.48 490.598C1691.31 490.307 1689.07 490.153 1686.8 490.153V491.153ZM1693.34 491.589L1694.22 492.078C1704.25 474.214 1726.69 461.663 1752.9 461.663V460.663V459.663C1726.11 459.663 1702.92 472.494 1692.47 491.099L1693.34 491.589ZM1752.9 460.663V461.663C1766.74 461.663 1779.54 465.166 1790.02 471.11L1790.51 470.24L1791.01 469.37C1780.22 463.25 1767.07 459.663 1752.9 459.663V460.663ZM1790.51 470.24L1791.43 470.635C1798 455.335 1811.91 444.862 1827.94 444.862V443.862V442.862C1810.99 442.862 1796.42 453.934 1789.6 469.846L1790.51 470.24ZM1827.94 443.862V444.862C1838.05 444.862 1847.3 449.024 1854.42 455.935L1855.11 455.218L1855.81 454.501C1848.36 447.263 1838.62 442.862 1827.94 442.862V443.862ZM1855.11 455.218L1855.84 455.902C1876.19 434.199 1911.23 419.796 1951.14 419.796V418.796V417.796C1910.8 417.796 1875.18 432.349 1854.38 454.534L1855.11 455.218ZM1951.14 418.796V419.796C2003.88 419.796 2048 444.916 2061.14 478.725L2062.07 478.362L2063 478C2049.46 443.142 2004.36 417.796 1951.14 417.796V418.796ZM2062.07 478.362L2062.05 479.362C2091.11 479.877 2116.02 494.723 2127.79 515.946L2128.67 515.461L2129.54 514.976C2117.39 493.062 2091.78 477.888 2062.09 477.362L2062.07 478.362ZM2128.67 515.461L2129.23 516.286C2135.98 511.671 2143.68 508.041 2152.04 505.651L2151.76 504.689L2151.49 503.728C2142.93 506.175 2135.03 509.897 2128.1 514.635L2128.67 515.461ZM2151.76 504.689L2152.42 503.938C2131.62 485.652 2119 461.473 2119 435H2118H2117C2117 462.145 2129.94 486.843 2151.1 505.441L2151.76 504.689ZM2118 435H2119C2119 413.323 2127.46 393.191 2141.94 376.568L2141.19 375.911L2140.43 375.254C2125.67 392.193 2117 412.78 2117 435H2118ZM2141.19 375.911L2141.31 374.919C2113.67 371.525 2089.76 364.183 2072.8 354.383C2055.79 344.557 2046 332.419 2046 319.5H2045H2044C2044 333.506 2054.58 346.169 2071.8 356.115C2089.06 366.087 2113.25 373.488 2141.06 376.904L2141.19 375.911ZM2045 319.5H2046C2046 308.224 2053.45 297.546 2066.68 288.463C2079.9 279.394 2098.71 272.042 2121.02 267.409L2120.81 266.43L2120.61 265.451C2098.14 270.118 2079.05 277.549 2065.55 286.814C2052.07 296.065 2044 307.272 2044 319.5H2045ZM2120.81 266.43L2121.68 266.938C2128.54 255.295 2144.38 247 2163 247V246V245C2143.87 245 2127.27 253.518 2119.95 265.922L2120.81 266.43ZM2163 246V247C2165.73 247 2168.41 247.18 2171 247.523L2171.14 246.531L2171.27 245.54C2168.58 245.186 2165.82 245 2163 245V246ZM2171.14 246.531L2171.93 247.134C2184.03 231.11 2208.77 220 2237.5 220V219V218C2208.34 218 2182.91 229.267 2170.34 245.929L2171.14 246.531ZM2237.5 219V220C2257.9 220 2276.32 225.607 2289.62 234.619C2302.92 243.635 2311 255.985 2311 269.5H2312H2313C2313 255.124 2304.4 242.225 2290.74 232.963C2277.07 223.698 2258.25 218 2237.5 218V219ZM2312 269.5H2311C2311 280.007 2306.12 289.799 2297.7 297.88L2298.39 298.602L2299.08 299.323C2307.81 290.952 2313 280.666 2313 269.5H2312ZM2298.39 298.602L2297.63 299.252C2303.08 305.608 2306 312.43 2306 319.5H2307H2308C2308 311.843 2304.83 304.576 2299.15 297.951L2298.39 298.602ZM2307 319.5H2306C2306 326.073 2303.47 332.431 2298.75 338.399L2299.53 339.021L2300.31 339.642C2305.26 333.4 2308 326.617 2308 319.5H2307ZM2299.53 339.021L2299.21 339.97C2346.2 355.579 2379 392.339 2379 435H2380H2381C2381 391.223 2347.38 353.863 2299.84 338.072L2299.53 339.021ZM2380 435H2379C2379 474.084 2351.48 508.209 2310.72 525.668L2311.12 526.587L2311.51 527.506C2352.78 509.827 2381 475.101 2381 435H2380ZM2311.12 526.587L2310.87 527.556C2347.44 536.845 2373 560.439 2373 587.688L2374 587.688L2375 587.688C2375 559.074 2348.3 534.997 2311.36 525.618L2311.12 526.587ZM2374 587.688H2373C2373 605.288 2362.37 621.342 2344.94 633.04C2327.51 644.734 2303.38 652 2276.67 652V653V654C2303.72 654 2328.25 646.645 2346.05 634.701C2363.84 622.761 2375 606.159 2375 587.688H2374ZM791.5 671V670C769.736 670 750.072 663.563 735.874 653.204C721.676 642.845 713 628.619 713 613H712H711C711 629.414 720.121 644.187 734.696 654.82C749.271 665.454 769.358 672 791.5 672V671ZM712 613H713C713 609.317 713.483 605.716 714.403 602.227L713.437 601.972L712.47 601.717C711.506 605.368 711 609.141 711 613H712ZM713.437 601.972L713.414 600.972C712.612 600.99 711.807 601 711 601V602V603C711.824 603 712.643 602.99 713.459 602.971L713.437 601.972ZM711 602V601C694.885 601 680.061 597.375 668.245 591.303L667.788 592.192L667.331 593.082C679.454 599.312 694.595 603 711 603V602ZM667.788 592.192L667.052 591.515C657.01 602.424 639.882 611.807 618.073 618.46C596.286 625.106 569.92 629 541.5 629V630V631C570.094 631 596.659 627.084 618.657 620.373C640.633 613.669 658.142 604.147 668.524 592.87L667.788 592.192ZM541.5 630V629C513.14 629 486.825 625.122 465.065 618.501C443.284 611.873 426.157 602.525 416.076 591.651L415.343 592.331L414.609 593.011C425.029 604.25 442.534 613.736 464.483 620.414C486.453 627.1 512.967 631 541.5 631V630ZM415.343 592.331L414.705 591.561C393.607 609.02 363.264 620 329.5 620V621V622C363.68 622 394.488 610.887 415.98 593.101L415.343 592.331ZM329.5 621V620C307.737 620 287.39 615.437 270.023 607.514L269.608 608.424L269.193 609.334C286.83 617.379 307.461 622 329.5 622V621ZM269.608 608.424L268.755 607.902C253.448 632.955 229.424 649 202.5 649V650V651C230.275 651 254.881 634.447 270.462 608.945L269.608 608.424ZM202.5 650V649C174.866 649 150.284 632.095 135.051 605.899L134.187 606.401L133.322 606.904C148.823 633.561 173.99 651 202.5 651V650ZM134.187 606.401L133.818 605.472C112.224 614.031 86.5544 619 59 619V620V621C86.7883 621 112.71 615.99 134.555 607.331L134.187 606.401ZM59 620V619C20.4963 619 -14.3145 609.3 -39.467 593.669C-64.6348 578.029 -80 556.552 -80 533H-81H-82C-82 557.496 -66.0251 579.52 -40.5227 595.368C-15.0056 611.225 20.1836 621 59 621V620ZM-81 533H-80C-80 506.853 -61.054 483.257 -30.8079 467.385L-31.2725 466.5L-31.7371 465.615C-62.3154 481.661 -82 505.802 -82 533H-81ZM-31.2725 466.5L-30.8079 465.615C-61.054 449.743 -80 426.147 -80 400H-81H-82C-82 427.198 -62.3154 451.339 -31.7371 467.385L-31.2725 466.5ZM-81 400H-80C-80 379.184 -68.0012 359.998 -47.8323 345.016L-48.4287 344.213L-49.0251 343.41C-69.5193 358.634 -82 378.354 -82 400H-81ZM-48.4287 344.213L-47.7729 343.458C-58.0442 334.538 -64 323.666 -64 312H-65H-66C-66 324.396 -59.6641 335.78 -49.0845 344.968L-48.4287 344.213ZM-65 312H-64C-64 297.279 -54.5046 283.802 -38.8396 273.956C-23.1882 264.118 -1.50391 258 22.5 258V257V256C-1.82104 256 -23.8867 262.194 -39.9041 272.262C-55.908 282.322 -66 296.346 -66 312H-65ZM22.5 257V258C46.5039 258 68.1882 264.118 83.8396 273.956C99.5046 283.802 109 297.279 109 312H110H111C111 296.346 100.908 282.322 84.9041 272.262C68.8867 262.194 46.821 256 22.5 256V257ZM110 312H109C109 314.235 108.781 316.438 108.356 318.603L109.338 318.795L110.319 318.987C110.768 316.698 111 314.366 111 312H110ZM109.338 318.795L109.105 319.767C135.207 326.02 157.462 337.002 173.173 350.973C188.881 364.941 198 381.848 198 400H199H200C200 381.13 190.513 363.716 174.502 349.478C158.494 335.243 135.918 324.134 109.571 317.822L109.338 318.795ZM199 400H198C198 414.534 192.156 428.262 181.768 440.328L182.525 440.98L183.283 441.633C193.921 429.276 200 415.101 200 400H199ZM182.525 440.98L182.816 441.937C189.129 440.018 195.719 439 202.5 439V438V437C195.518 437 188.731 438.049 182.235 440.024L182.525 440.98ZM202.5 438V439C223.015 439 241.835 448.311 256.41 463.824L257.139 463.14L257.867 462.455C242.978 446.607 223.653 437 202.5 437V438ZM257.139 463.14L257.655 463.996C277.365 452.114 302.327 445 329.5 445V444V443C301.985 443 276.662 450.202 256.622 462.283L257.139 463.14ZM329.5 444V445C390.488 445 440.073 480.744 444.653 525.674L445.647 525.572L446.642 525.471C441.918 479.122 391.056 443 329.5 443V444ZM445.647 525.572L446.051 526.487C470.544 515.69 504.251 509 541.5 509V508V507C504.038 507 470.045 513.725 445.244 524.657L445.647 525.572ZM541.5 508V509C585.013 509 623.674 518.127 648.467 532.252L648.962 531.383L649.457 530.514C624.273 516.167 585.241 507 541.5 507V508ZM648.962 531.383L649.73 532.023C661.626 517.765 684.541 508 711 508V507V506C684.123 506 660.57 515.909 648.194 530.742L648.962 531.383ZM711 507V508C730.436 508 747.986 513.272 760.649 521.744C773.318 530.219 781 541.82 781 554.5H782H783C783 540.947 774.788 528.797 761.761 520.081C748.726 511.361 730.777 506 711 506V507ZM782 554.5H781C781 554.794 780.995 555.088 780.987 555.384L781.986 555.412L782.986 555.44C782.995 555.129 783 554.816 783 554.5H782ZM781.986 555.412L782.073 556.408C785.164 556.139 788.31 556 791.5 556V555V554C788.251 554 785.048 554.142 781.9 554.416L781.986 555.412ZM791.5 555V556C817.877 556 841.151 565.453 855.364 579.866L856.076 579.164L856.788 578.462C842.138 563.606 818.319 554 791.5 554V555ZM856.076 579.164L856.883 579.755C867.411 565.37 884.589 556 904 556V555V554C883.933 554 866.162 563.69 855.269 578.573L856.076 579.164ZM904 555V556C936.049 556 962 581.536 962 613H963H964C964 580.399 937.121 554 904 554V555ZM963 613H962C962 644.464 936.049 670 904 670V671V672C937.121 672 964 645.601 964 613H963ZM904 671V670C884.589 670 867.411 660.63 856.883 646.246L856.076 646.837L855.269 647.428C866.162 662.311 883.933 672 904 672V671ZM856.076 646.837L855.364 646.135C841.15 660.547 817.876 670 791.5 670V671V672C818.319 672 842.138 662.394 856.788 647.539L856.076 646.837Z"
            fill="#0A0602" mask="url(#path-1-inside-1_0_1)" />
    </g> -->
    <g filter="url(#filter1_n_0_1)">
        <mask id="path-3-inside-2_0_1" fill="white">
            <path
                d="M2236.5 294C2284.82 294 2324 318.624 2324 349C2324 360.993 2317.89 372.088 2307.53 381.126C2351.75 413.213 2380 462.159 2380 517C2380 613.65 2292.25 692 2184 692C2132.02 692 2084.77 673.931 2049.69 644.447C2023.84 659.735 1990.02 669 1953 669C1901.66 669 1856.46 651.182 1830.17 624.184C1807.98 643.616 1761.39 657 1707.5 657C1657.49 657 1613.76 645.472 1589.98 628.278C1574.6 636.635 1550.76 642 1524 642C1498.15 642 1475.04 636.994 1459.63 629.125C1450.27 636.777 1431.56 642 1410 642C1402.78 642 1395.89 641.415 1389.55 640.35C1384.52 656.411 1337.4 669 1280 669C1224.58 669 1178.73 657.261 1171.11 641.992C1145.69 641.87 1122.37 639.277 1103.94 635.017C1092.68 654.874 1063.82 669 1030 669C1019.36 669 1009.21 667.602 999.951 665.068C993.796 689.987 961.24 709 922 709C891.036 709 864.233 697.161 851.28 679.924C844.734 682.548 837.545 684 830 684C808.136 684 789.252 671.823 780.386 654.186C775.8 655.369 770.977 656 766 656C756.68 656 747.903 653.786 740.211 649.881C720.086 664.947 683.854 675 642.5 675C591.625 675 548.501 659.786 533.584 638.74C501.474 649.34 455.086 656 403.5 656C343.783 656 291.034 647.077 259.333 633.445C248.636 658.279 220.961 675.97 188.505 675.97C174.011 675.97 160.47 672.441 148.969 666.324C135.911 685.868 111.48 699.021 83.4951 699.021C74.7293 699.02 66.3125 697.728 58.4844 695.355C40.6525 710.373 13.165 720 -17.6738 720C-71.4256 720 -115 690.759 -115 654.688C-115 628.288 -91.6567 605.547 -58.0654 595.251C-101.285 578.257 -131 542.884 -131 502C-131 458.004 -96.5877 420.388 -47.9658 405.192C-47.4941 395.587 -41.8405 386.552 -32.2002 378.624C-42.1273 372.721 -48 365.414 -48 357.5C-48 337.894 -11.9589 322 32.5 322C70.5787 322 102.481 333.66 110.854 349.325C169.822 355.027 214 378.46 214 406.5C214 432.874 174.917 455.17 121.204 462.472C127.517 474.658 131 488.006 131 502C131 527.918 119.057 551.62 99.3027 569.83C107.834 571.4 115.831 574.215 123.03 578.043C136.088 558.499 160.519 545.348 188.505 545.348C201.684 545.348 214.076 548.265 224.862 553.393C233.688 516.717 274.257 489 322.97 489C361.108 489 394.252 505.99 411.081 530.967C415.472 528.843 420.322 527.663 425.42 527.663C438.323 527.663 449.632 535.209 455.948 546.532C467.929 535 485.948 527.663 506.099 527.663C527.383 527.663 546.288 535.849 558.212 548.518C575.393 550.623 588.953 561.609 591.474 575.488C606.838 571.976 624.166 570 642.5 570C670.357 570 695.89 574.562 715.741 582.145C724.312 563.793 743.591 551 766 551C787.863 551 806.746 563.177 815.613 580.813C820.199 579.63 825.022 579 830 579C853.014 579 872.727 592.492 880.93 611.643C892.897 606.793 906.958 604 922 604C932.638 604 942.785 605.397 952.048 607.931C956.353 590.503 973.573 575.965 996.961 568.799C1003.5 546.448 1025.67 530 1052 530C1073 530 1091.35 540.464 1101.24 556.04C1101.99 556.014 1102.74 556 1103.5 556C1124.38 556 1141.9 566.179 1146.7 579.908C1155.12 579.316 1163.93 579 1173 579C1228.42 579 1274.27 590.739 1281.89 606.007C1309.95 606.142 1335.46 609.287 1354.64 614.363C1358.73 602.834 1381.96 594 1410 594C1421.87 594 1432.88 595.583 1441.93 598.283C1450.18 582.109 1483.79 570 1524 570C1545.01 570 1564.23 573.306 1578.96 578.772C1597.84 556.17 1648.27 540 1707.5 540C1733.3 540 1757.43 543.069 1778.01 548.4C1778.48 532.109 1798.22 519 1822.5 519C1823.75 519 1825 519.037 1826.22 519.105C1851.77 489.721 1898.98 470 1953 470C1967.22 470 1980.97 471.369 1993.98 473.92C2012.7 407.915 2073.42 356.853 2149.26 344.74C2152.72 316.355 2190.46 294 2236.5 294Z" />
        </mask>
        <path
            d="M2236.5 294C2284.82 294 2324 318.624 2324 349C2324 360.993 2317.89 372.088 2307.53 381.126C2351.75 413.213 2380 462.159 2380 517C2380 613.65 2292.25 692 2184 692C2132.02 692 2084.77 673.931 2049.69 644.447C2023.84 659.735 1990.02 669 1953 669C1901.66 669 1856.46 651.182 1830.17 624.184C1807.98 643.616 1761.39 657 1707.5 657C1657.49 657 1613.76 645.472 1589.98 628.278C1574.6 636.635 1550.76 642 1524 642C1498.15 642 1475.04 636.994 1459.63 629.125C1450.27 636.777 1431.56 642 1410 642C1402.78 642 1395.89 641.415 1389.55 640.35C1384.52 656.411 1337.4 669 1280 669C1224.58 669 1178.73 657.261 1171.11 641.992C1145.69 641.87 1122.37 639.277 1103.94 635.017C1092.68 654.874 1063.82 669 1030 669C1019.36 669 1009.21 667.602 999.951 665.068C993.796 689.987 961.24 709 922 709C891.036 709 864.233 697.161 851.28 679.924C844.734 682.548 837.545 684 830 684C808.136 684 789.252 671.823 780.386 654.186C775.8 655.369 770.977 656 766 656C756.68 656 747.903 653.786 740.211 649.881C720.086 664.947 683.854 675 642.5 675C591.625 675 548.501 659.786 533.584 638.74C501.474 649.34 455.086 656 403.5 656C343.783 656 291.034 647.077 259.333 633.445C248.636 658.279 220.961 675.97 188.505 675.97C174.011 675.97 160.47 672.441 148.969 666.324C135.911 685.868 111.48 699.021 83.4951 699.021C74.7293 699.02 66.3125 697.728 58.4844 695.355C40.6525 710.373 13.165 720 -17.6738 720C-71.4256 720 -115 690.759 -115 654.688C-115 628.288 -91.6567 605.547 -58.0654 595.251C-101.285 578.257 -131 542.884 -131 502C-131 458.004 -96.5877 420.388 -47.9658 405.192C-47.4941 395.587 -41.8405 386.552 -32.2002 378.624C-42.1273 372.721 -48 365.414 -48 357.5C-48 337.894 -11.9589 322 32.5 322C70.5787 322 102.481 333.66 110.854 349.325C169.822 355.027 214 378.46 214 406.5C214 432.874 174.917 455.17 121.204 462.472C127.517 474.658 131 488.006 131 502C131 527.918 119.057 551.62 99.3027 569.83C107.834 571.4 115.831 574.215 123.03 578.043C136.088 558.499 160.519 545.348 188.505 545.348C201.684 545.348 214.076 548.265 224.862 553.393C233.688 516.717 274.257 489 322.97 489C361.108 489 394.252 505.99 411.081 530.967C415.472 528.843 420.322 527.663 425.42 527.663C438.323 527.663 449.632 535.209 455.948 546.532C467.929 535 485.948 527.663 506.099 527.663C527.383 527.663 546.288 535.849 558.212 548.518C575.393 550.623 588.953 561.609 591.474 575.488C606.838 571.976 624.166 570 642.5 570C670.357 570 695.89 574.562 715.741 582.145C724.312 563.793 743.591 551 766 551C787.863 551 806.746 563.177 815.613 580.813C820.199 579.63 825.022 579 830 579C853.014 579 872.727 592.492 880.93 611.643C892.897 606.793 906.958 604 922 604C932.638 604 942.785 605.397 952.048 607.931C956.353 590.503 973.573 575.965 996.961 568.799C1003.5 546.448 1025.67 530 1052 530C1073 530 1091.35 540.464 1101.24 556.04C1101.99 556.014 1102.74 556 1103.5 556C1124.38 556 1141.9 566.179 1146.7 579.908C1155.12 579.316 1163.93 579 1173 579C1228.42 579 1274.27 590.739 1281.89 606.007C1309.95 606.142 1335.46 609.287 1354.64 614.363C1358.73 602.834 1381.96 594 1410 594C1421.87 594 1432.88 595.583 1441.93 598.283C1450.18 582.109 1483.79 570 1524 570C1545.01 570 1564.23 573.306 1578.96 578.772C1597.84 556.17 1648.27 540 1707.5 540C1733.3 540 1757.43 543.069 1778.01 548.4C1778.48 532.109 1798.22 519 1822.5 519C1823.75 519 1825 519.037 1826.22 519.105C1851.77 489.721 1898.98 470 1953 470C1967.22 470 1980.97 471.369 1993.98 473.92C2012.7 407.915 2073.42 356.853 2149.26 344.74C2152.72 316.355 2190.46 294 2236.5 294Z"
            fill="#F33900" />
        <path
            d="M2307.53 381.126L2306.87 380.372L2305.92 381.198L2306.94 381.935L2307.53 381.126ZM2049.69 644.447L2050.33 643.682L2049.79 643.226L2049.18 643.587L2049.69 644.447ZM1830.17 624.184L1830.89 623.486L1830.23 622.806L1829.51 623.431L1830.17 624.184ZM1589.98 628.278L1590.57 627.468L1590.06 627.099L1589.51 627.4L1589.98 628.278ZM1459.63 629.125L1460.08 628.234L1459.5 627.937L1458.99 628.351L1459.63 629.125ZM1389.55 640.35L1389.72 639.363L1388.86 639.219L1388.6 640.051L1389.55 640.35ZM1171.11 641.992L1172.01 641.546L1171.73 640.995L1171.12 640.992L1171.11 641.992ZM1103.94 635.017L1104.17 634.042L1103.44 633.874L1103.07 634.523L1103.94 635.017ZM999.951 665.068L1000.21 664.104L999.226 663.833L998.98 664.829L999.951 665.068ZM851.28 679.924L852.08 679.323L851.619 678.711L850.908 678.996L851.28 679.924ZM780.386 654.186L781.279 653.736L780.917 653.016L780.136 653.217L780.386 654.186ZM740.211 649.881L740.664 648.989L740.109 648.708L739.612 649.08L740.211 649.881ZM533.584 638.74L534.4 638.162L533.972 637.559L533.271 637.791L533.584 638.74ZM259.333 633.445L259.728 632.527L258.81 632.132L258.415 633.05L259.333 633.445ZM188.505 675.97V676.97V675.97ZM148.969 666.324L149.438 665.441L148.64 665.017L148.137 665.769L148.969 666.324ZM83.4951 699.021V700.021V699.021ZM58.4844 695.355L58.7745 694.398L58.2552 694.241L57.8402 694.591L58.4844 695.355ZM-17.6738 720V721V720ZM-115 654.688H-116H-115ZM-58.0654 595.251L-57.7724 596.207L-55.035 595.368L-57.6995 594.32L-58.0654 595.251ZM-47.9658 405.192L-47.6675 406.147L-47.0013 405.939L-46.967 405.241L-47.9658 405.192ZM-32.2002 378.624L-31.565 379.396L-30.4655 378.492L-31.6891 377.765L-32.2002 378.624ZM110.854 349.325L109.972 349.797L110.224 350.269L110.757 350.321L110.854 349.325ZM121.204 462.472L121.069 461.481L119.664 461.672L120.316 462.932L121.204 462.472ZM99.3027 569.83L98.6249 569.095L97.1534 570.451L99.1218 570.814L99.3027 569.83ZM123.03 578.043L122.561 578.926L123.359 579.351L123.862 578.599L123.03 578.043ZM188.505 545.348V544.348V545.348ZM224.862 553.393L224.433 554.296L225.546 554.825L225.835 553.627L224.862 553.393ZM322.97 489V488V489ZM411.081 530.967L410.252 531.526L410.736 532.244L411.516 531.867L411.081 530.967ZM425.42 527.663V526.663V527.663ZM455.948 546.532L455.075 547.019L455.707 548.152L456.642 547.253L455.948 546.532ZM506.099 527.663V526.663V527.663ZM558.212 548.518L557.484 549.203L557.732 549.466L558.09 549.51L558.212 548.518ZM591.474 575.488L590.49 575.667L590.677 576.696L591.697 576.463L591.474 575.488ZM715.741 582.145L715.384 583.079L716.254 583.411L716.647 582.568L715.741 582.145ZM815.613 580.813L814.72 581.263L815.082 581.983L815.863 581.782L815.613 580.813ZM880.93 611.643L880.01 612.036L880.397 612.938L881.305 612.569L880.93 611.643ZM952.048 607.931L951.784 608.895L952.773 609.166L953.019 608.171L952.048 607.931ZM996.961 568.799L997.254 569.755L997.769 569.597L997.921 569.08L996.961 568.799ZM1101.24 556.04L1100.4 556.576L1100.7 557.06L1101.28 557.039L1101.24 556.04ZM1146.7 579.908L1145.75 580.238L1146 580.959L1146.77 580.906L1146.7 579.908ZM1281.89 606.007L1280.99 606.453L1281.27 607.004L1281.88 607.007L1281.89 606.007ZM1354.64 614.363L1354.38 615.33L1355.27 615.566L1355.58 614.698L1354.64 614.363ZM1441.93 598.283L1441.65 599.242L1442.45 599.479L1442.83 598.737L1441.93 598.283ZM1578.96 578.772L1578.61 579.71L1579.27 579.956L1579.72 579.414L1578.96 578.772ZM1778.01 548.4L1777.76 549.368L1778.97 549.683L1779.01 548.429L1778.01 548.4ZM1826.22 519.105L1826.17 520.104L1826.66 520.131L1826.98 519.762L1826.22 519.105ZM1993.98 473.92L1993.79 474.901L1994.69 475.078L1994.95 474.193L1993.98 473.92ZM2149.26 344.74L2149.42 345.728L2150.16 345.609L2150.25 344.861L2149.26 344.74ZM2236.5 294V295C2260.5 295 2282.19 301.118 2297.84 310.956C2313.5 320.802 2323 334.279 2323 349H2324H2325C2325 333.346 2314.91 319.322 2298.9 309.262C2282.89 299.194 2260.82 293 2236.5 293V294ZM2324 349H2323C2323 360.629 2317.08 371.468 2306.87 380.372L2307.53 381.126L2308.18 381.88C2318.7 372.707 2325 361.357 2325 349H2324ZM2307.53 381.126L2306.94 381.935C2350.93 413.859 2379 462.52 2379 517H2380H2381C2381 461.799 2352.56 412.567 2308.11 380.317L2307.53 381.126ZM2380 517H2379C2379 612.994 2291.81 691 2184 691V692V693C2292.69 693 2381 614.306 2381 517H2380ZM2184 692V691C2132.25 691 2085.23 673.012 2050.33 643.682L2049.69 644.447L2049.04 645.213C2084.31 674.851 2131.79 693 2184 693V692ZM2049.69 644.447L2049.18 643.587C2023.5 658.774 1989.86 668 1953 668V669V670C1990.18 670 2024.18 660.696 2050.2 645.308L2049.69 644.447ZM1953 669V668C1901.86 668 1856.95 650.25 1830.89 623.486L1830.17 624.184L1829.45 624.881C1855.97 652.115 1901.45 670 1953 670V669ZM1830.17 624.184L1829.51 623.431C1818.57 633.01 1801.54 641.161 1780.46 646.914C1759.39 652.663 1734.36 656 1707.5 656V657V658C1734.52 658 1759.73 654.645 1780.98 648.844C1802.22 643.047 1819.58 634.79 1830.83 624.936L1830.17 624.184ZM1707.5 657V656C1657.59 656 1614.1 644.488 1590.57 627.468L1589.98 628.278L1589.4 629.089C1613.41 646.456 1657.38 658 1707.5 658V657ZM1589.98 628.278L1589.51 627.4C1574.31 635.652 1550.65 641 1524 641V642V643C1550.87 643 1574.89 637.617 1590.46 629.157L1589.98 628.278ZM1524 642V641C1498.26 641 1475.31 636.012 1460.08 628.234L1459.63 629.125L1459.17 630.016C1474.76 637.977 1498.05 643 1524 643V642ZM1459.63 629.125L1458.99 628.351C1449.89 635.79 1431.46 641 1410 641V642V643C1431.66 643 1450.64 637.763 1460.26 629.899L1459.63 629.125ZM1410 642V641C1402.84 641 1396 640.419 1389.72 639.363L1389.55 640.35L1389.39 641.336C1395.78 642.41 1402.73 643 1410 643V642ZM1389.55 640.35L1388.6 640.051C1387.46 643.698 1383.85 647.333 1377.89 650.734C1371.97 654.114 1363.91 657.166 1354.16 659.731C1334.68 664.859 1308.63 668 1280 668V669V670C1308.76 670 1334.98 666.847 1354.67 661.665C1364.51 659.075 1372.76 655.968 1378.88 652.471C1384.97 648.994 1389.14 645.032 1390.51 640.648L1389.55 640.35ZM1280 669V668C1252.35 668 1227.12 665.071 1207.87 660.252C1198.24 657.842 1190.15 654.966 1184.01 651.767C1177.83 648.552 1173.77 645.079 1172.01 641.546L1171.11 641.992L1170.22 642.438C1172.26 646.54 1176.78 650.26 1183.08 653.541C1189.41 656.837 1197.67 659.759 1207.38 662.192C1226.82 667.059 1252.22 670 1280 670V669ZM1171.11 641.992L1171.12 640.992C1145.75 640.87 1122.51 638.283 1104.17 634.042L1103.94 635.017L1103.72 635.991C1122.23 640.271 1145.62 642.869 1171.11 642.992L1171.11 641.992ZM1103.94 635.017L1103.07 634.523C1092.05 653.957 1063.61 668 1030 668V669V670C1064.03 670 1093.31 655.792 1104.81 635.51L1103.94 635.017ZM1030 669V668C1019.45 668 1009.39 666.613 1000.21 664.104L999.951 665.068L999.687 666.033C1009.04 668.591 1019.27 670 1030 670V669ZM999.951 665.068L998.98 664.829C995.988 676.942 986.545 687.731 972.887 695.51C959.24 703.283 941.465 708 922 708V709V710C941.775 710 959.897 705.211 973.877 697.248C987.846 689.291 997.759 678.113 1000.92 665.308L999.951 665.068ZM922 709V708C891.246 708 864.789 696.236 852.08 679.323L851.28 679.924L850.481 680.525C863.678 698.087 890.826 710 922 710V709ZM851.28 679.924L850.908 678.996C844.479 681.573 837.416 683 830 683V684V685C837.674 685 844.99 683.523 851.652 680.852L851.28 679.924ZM830 684V683C808.51 683 789.974 671.032 781.279 653.736L780.386 654.186L779.492 654.635C788.531 672.613 807.762 685 830 685V684ZM780.386 654.186L780.136 653.217C775.632 654.379 770.893 655 766 655V656V657C771.062 657 775.969 656.358 780.636 655.154L780.386 654.186ZM766 656V655C756.84 655 748.217 652.824 740.664 648.989L740.211 649.881L739.758 650.773C747.588 654.748 756.521 657 766 657V656ZM740.211 649.881L739.612 649.08C719.725 663.968 683.737 674 642.5 674V675V676C683.97 676 720.447 665.926 740.81 650.681L740.211 649.881ZM642.5 675V674C617.157 674 593.767 670.21 574.878 663.815C555.96 657.41 541.682 648.436 534.4 638.162L533.584 638.74L532.768 639.318C540.403 650.091 555.145 659.246 574.237 665.71C593.359 672.183 616.969 676 642.5 676V675ZM533.584 638.74L533.271 637.791C501.29 648.348 455.016 655 403.5 655V656V657C455.157 657 501.657 650.333 533.897 639.69L533.584 638.74ZM403.5 656V655C343.852 655 291.254 646.083 259.728 632.527L259.333 633.445L258.938 634.364C290.813 648.07 343.715 657 403.5 657V656ZM259.333 633.445L258.415 633.05C247.896 657.469 220.616 674.97 188.505 674.97V675.97V676.97C221.306 676.97 249.376 659.089 260.251 633.841L259.333 633.445ZM188.505 675.97V674.97C174.173 674.97 160.794 671.48 149.438 665.441L148.969 666.324L148.499 667.207C160.146 673.401 173.848 676.97 188.505 676.97V675.97ZM148.969 666.324L148.137 665.769C135.281 685.011 111.176 698.021 83.4951 698.021V699.021V700.021C111.785 700.021 136.541 686.725 149.8 666.88L148.969 666.324ZM83.4951 699.021V698.021C74.8276 698.02 66.5087 696.743 58.7745 694.398L58.4844 695.355L58.1943 696.312C66.1164 698.714 74.6309 700.02 83.4951 700.021V699.021ZM58.4844 695.355L57.8402 694.591C40.2205 709.429 12.9745 719 -17.6738 719V720V721C13.3554 721 41.0845 711.317 59.1285 696.12L58.4844 695.355ZM-17.6738 720V719C-44.3785 719 -68.5101 711.734 -85.9366 700.04C-103.37 688.342 -114 672.288 -114 654.688H-115H-116C-116 673.159 -104.843 689.761 -87.0511 701.701C-69.2524 713.645 -44.7209 721 -17.6738 721V720ZM-115 654.688H-114C-114 628.933 -91.1801 606.447 -57.7724 596.207L-58.0654 595.251L-58.3585 594.295C-92.1332 604.647 -116 627.643 -116 654.688H-115ZM-58.0654 595.251L-57.6995 594.32C-100.656 577.43 -130 542.358 -130 502H-131H-132C-132 543.409 -101.914 579.084 -58.4314 596.182L-58.0654 595.251ZM-131 502H-130C-130 458.572 -96.0123 421.256 -47.6675 406.147L-47.9658 405.192L-48.2641 404.238C-97.1631 419.52 -132 457.435 -132 502H-131ZM-47.9658 405.192L-46.967 405.241C-46.514 396.019 -41.0801 387.222 -31.565 379.396L-32.2002 378.624L-32.8354 377.852C-42.6008 385.883 -48.4741 395.156 -48.9646 405.143L-47.9658 405.192ZM-32.2002 378.624L-31.6891 377.765C-41.5102 371.924 -47 364.88 -47 357.5H-48H-49C-49 365.947 -42.7444 373.518 -32.7113 379.484L-32.2002 378.624ZM-48 357.5H-47C-47 352.927 -44.9024 348.493 -40.9522 344.374C-36.9972 340.25 -31.2265 336.491 -24.0186 333.313C-9.60549 326.957 10.376 323 32.5 323V322V321C10.165 321 -10.1034 324.99 -24.8256 331.483C-32.1853 334.728 -38.2036 338.619 -42.3956 342.99C-46.5925 347.365 -49 352.27 -49 357.5H-48ZM32.5 322V323C51.4446 323 68.8247 325.901 82.4832 330.731C96.1896 335.577 105.964 342.298 109.972 349.797L110.854 349.325L111.735 348.854C107.371 340.687 97.0074 333.745 83.1499 328.845C69.2445 323.929 51.6341 321 32.5 321V322ZM110.854 349.325L110.757 350.321C140.149 353.163 165.795 360.42 184.06 370.413C202.38 380.436 213 393.045 213 406.5H214H215C215 391.915 203.532 378.787 185.02 368.658C166.454 358.5 140.527 351.19 110.95 348.33L110.854 349.325ZM214 406.5H213C213 419.154 203.611 431.058 187.234 440.778C170.898 450.473 147.838 457.842 121.069 461.481L121.204 462.472L121.339 463.463C148.284 459.8 171.622 452.369 188.255 442.498C204.847 432.65 215 420.22 215 406.5H214ZM121.204 462.472L120.316 462.932C126.56 474.985 130 488.176 130 502H131H132C132 487.836 128.474 474.332 122.092 462.012L121.204 462.472ZM131 502H130C130 527.594 118.209 551.041 98.6249 569.095L99.3027 569.83L99.9805 570.565C119.904 552.198 132 528.242 132 502H131ZM99.3027 569.83L99.1218 570.814C107.553 572.365 115.453 575.146 122.561 578.926L123.03 578.043L123.5 577.16C116.209 573.283 108.114 570.435 99.4837 568.847L99.3027 569.83ZM123.03 578.043L123.862 578.599C136.718 559.356 160.824 546.348 188.505 546.348V545.348V544.348C160.215 544.348 135.458 557.642 122.199 577.487L123.03 578.043ZM188.505 545.348V546.348C201.537 546.348 213.782 549.232 224.433 554.296L224.862 553.393L225.292 552.489C214.37 547.298 201.832 544.348 188.505 544.348V545.348ZM224.862 553.393L225.835 553.627C234.521 517.527 274.575 490 322.97 490V489V488C273.939 488 232.854 515.907 223.89 553.159L224.862 553.393ZM322.97 489V490C360.832 490 393.638 506.869 410.252 531.526L411.081 530.967L411.91 530.408C394.866 505.112 361.383 488 322.97 488V489ZM411.081 530.967L411.516 531.867C415.777 529.806 420.478 528.663 425.42 528.663V527.663V526.663C420.165 526.663 415.167 527.88 410.646 530.067L411.081 530.967ZM425.42 527.663V528.663C437.912 528.663 448.911 535.969 455.075 547.019L455.948 546.532L456.822 546.045C450.354 534.45 438.734 526.663 425.42 526.663V527.663ZM455.948 546.532L456.642 547.253C468.419 535.916 486.183 528.663 506.099 528.663V527.663V526.663C485.713 526.663 467.438 534.085 455.255 545.812L455.948 546.532ZM506.099 527.663V528.663C527.136 528.663 545.768 536.756 557.484 549.203L558.212 548.518L558.94 547.832C546.808 534.943 527.629 526.663 506.099 526.663V527.663ZM558.212 548.518L558.09 549.51C574.966 551.578 588.068 562.335 590.49 575.667L591.474 575.488L592.458 575.31C589.837 560.884 575.819 549.667 558.334 547.525L558.212 548.518ZM591.474 575.488L591.697 576.463C606.983 572.968 624.236 571 642.5 571V570V569C624.095 569 606.692 570.983 591.251 574.513L591.474 575.488ZM642.5 570V571C670.256 571 695.665 575.547 715.384 583.079L715.741 582.145L716.098 581.21C696.115 573.577 670.458 569 642.5 569V570ZM715.741 582.145L716.647 582.568C725.052 564.573 743.974 552 766 552V551V550C743.208 550 723.573 563.013 714.835 581.721L715.741 582.145ZM766 551V552C787.489 552 806.024 563.968 814.72 581.263L815.613 580.813L816.507 580.364C807.468 562.387 788.237 550 766 550V551ZM815.613 580.813L815.863 581.782C820.368 580.62 825.107 580 830 580V579V578C824.938 578 820.03 578.641 815.363 579.845L815.613 580.813ZM830 579V580C852.621 580 871.968 593.261 880.01 612.036L880.93 611.643L881.849 611.249C873.485 591.724 853.407 578 830 578V579ZM880.93 611.643L881.305 612.569C893.147 607.771 907.079 605 922 605V604V603C906.837 603 892.648 605.815 880.554 610.716L880.93 611.643ZM922 604V605C932.551 605 942.609 606.386 951.784 608.895L952.048 607.931L952.312 606.966C942.961 604.408 932.725 603 922 603V604ZM952.048 607.931L953.019 608.171C957.206 591.22 974.042 576.867 997.254 569.755L996.961 568.799L996.668 567.843C973.104 575.063 955.5 589.785 951.077 607.691L952.048 607.931ZM996.961 568.799L997.921 569.08C1004.33 547.19 1026.07 531 1052 531V530V529C1025.26 529 1002.68 545.707 996.001 568.518L996.961 568.799ZM1052 530V531C1072.67 531 1090.7 541.298 1100.4 556.576L1101.24 556.04L1102.08 555.504C1092.01 539.63 1073.33 529 1052 529V530ZM1101.24 556.04L1101.28 557.039C1102.01 557.013 1102.75 557 1103.5 557V556V555C1102.73 555 1101.97 555.014 1101.2 555.041L1101.24 556.04ZM1103.5 556V557C1124.14 557 1141.14 567.061 1145.75 580.238L1146.7 579.908L1147.64 579.578C1142.65 565.297 1124.62 555 1103.5 555V556ZM1146.7 579.908L1146.77 580.906C1155.17 580.315 1163.96 580 1173 580V579V578C1163.91 578 1155.08 578.317 1146.63 578.911L1146.7 579.908ZM1173 579V580C1200.65 580 1225.88 582.929 1245.13 587.748C1254.75 590.158 1262.85 593.033 1268.99 596.233C1275.17 599.448 1279.23 602.921 1280.99 606.453L1281.89 606.007L1282.78 605.56C1280.74 601.459 1276.21 597.739 1269.92 594.459C1263.59 591.163 1255.33 588.241 1245.61 585.808C1226.18 580.941 1200.77 578 1173 578V579ZM1281.89 606.007L1281.88 607.007C1309.88 607.142 1335.3 610.28 1354.38 615.33L1354.64 614.363L1354.89 613.397C1335.61 608.294 1310.02 605.142 1281.89 605.007L1281.89 606.007ZM1354.64 614.363L1355.58 614.698C1357.47 609.375 1363.92 604.423 1373.68 600.796C1383.38 597.195 1396.07 595 1410 595V594V593C1395.88 593 1382.94 595.222 1372.99 598.921C1363.1 602.593 1355.9 607.823 1353.7 614.029L1354.64 614.363ZM1410 594V595C1421.79 595 1432.69 596.573 1441.65 599.242L1441.93 598.283L1442.22 597.325C1433.06 594.594 1421.95 593 1410 593V594ZM1441.93 598.283L1442.83 598.737C1446.77 591.004 1456.92 584.046 1471.31 579.02C1485.65 574.014 1503.99 571 1524 571V570V569C1503.8 569 1485.23 572.04 1470.65 577.132C1456.12 582.205 1445.35 589.388 1441.04 597.829L1441.93 598.283ZM1524 570V571C1544.92 571 1564.01 574.293 1578.61 579.71L1578.96 578.772L1579.3 577.835C1564.44 572.32 1545.11 569 1524 569V570ZM1578.96 578.772L1579.72 579.414C1588.99 568.329 1606.1 558.71 1628.39 551.866C1650.66 545.032 1677.97 541 1707.5 541V540V539C1677.8 539 1650.28 543.054 1627.81 549.954C1605.36 556.846 1587.81 566.614 1578.19 578.131L1578.96 578.772ZM1707.5 540V541C1733.23 541 1757.27 544.06 1777.76 549.368L1778.01 548.4L1778.26 547.432C1757.59 542.078 1733.38 539 1707.5 539V540ZM1778.01 548.4L1779.01 548.429C1779.23 540.707 1784.03 533.621 1791.88 528.425C1799.72 523.233 1810.53 520 1822.5 520V519V518C1810.19 518 1798.99 521.321 1790.78 526.757C1782.57 532.188 1777.26 539.802 1777.01 548.371L1778.01 548.4ZM1822.5 519V520C1823.73 520 1824.96 520.036 1826.17 520.104L1826.22 519.105L1826.28 518.107C1825.03 518.038 1823.77 518 1822.5 518V519ZM1826.22 519.105L1826.98 519.762C1852.29 490.649 1899.19 471 1953 471V470V469C1898.77 469 1851.25 488.793 1825.47 518.449L1826.22 519.105ZM1953 470V471C1967.16 471 1980.85 472.363 1993.79 474.901L1993.98 473.92L1994.18 472.939C1981.1 470.375 1967.29 469 1953 469V470ZM1993.98 473.92L1994.95 474.193C2013.54 408.608 2073.91 357.787 2149.42 345.728L2149.26 344.74L2149.1 343.753C2072.93 355.919 2011.85 407.222 1993.02 473.647L1993.98 473.92ZM2149.26 344.74L2150.25 344.861C2151.93 331.088 2161.95 318.634 2177.41 309.589C2192.86 300.553 2213.63 295 2236.5 295V294V293C2213.33 293 2192.2 298.624 2176.4 307.863C2160.62 317.092 2150.05 330.008 2148.27 344.619L2149.26 344.74Z"
            fill="#0A0602" mask="url(#path-3-inside-2_0_1)" />
    </g>
    <defs>
        <radialGradient id="paint0_radial_0_1" cx="0" cy="0" r="1" gradientUnits="userSpaceOnUse"
            gradientTransform="translate(1130 313) rotate(90) scale(1419 1419)">
            <stop stop-color="#C80002" />
            <stop offset="1" stop-color="#790001" />
        </radialGradient>
    </defs>
</svg>