<svg width="880" height="565" viewBox="0 0 880 565" fill="none" xmlns="http://www.w3.org/2000/svg">
    <g filter="url(#filter0_n_0_1)">
        <mask id="path-1-inside-1_0_1" fill="white">
            <path
                d="M2214.42 118.667C2181.39 118.667 2152.28 112.124 2135.18 102.185C2126 103.115 2116.21 103.618 2106.05 103.618C2053.41 103.618 2010.73 90.1412 2010.73 73.5171C2010.73 59.9192 2039.29 48.4292 2078.49 44.6958C2083.72 30.097 2101.71 19.3354 2123.11 19.3354C2131.07 19.3354 2138.56 20.825 2145.1 23.4478C2158.41 9.50171 2181.56 0.271973 2207.89 0.271973C2249.18 0.272156 2282.64 22.9572 2282.64 50.9409C2282.64 52.4785 2282.54 54.0007 2282.35 55.5034C2299.28 62.2045 2309.74 71.3972 2309.74 81.5435C2309.74 102.046 2267.06 118.667 2214.42 118.667ZM2284.32 655.464C2253.38 655.464 2225.8 645.806 2207.91 630.739C2200.05 633.12 2191.61 634.415 2182.81 634.415C2152.67 634.415 2126.63 619.204 2114.42 597.177C2101.5 606.012 2085.17 611.287 2067.42 611.287C2056.96 611.287 2047 609.457 2037.94 606.147C1996.46 621.538 1932.94 631.384 1861.74 631.384C1805.42 631.384 1753.92 625.225 1714.32 615.037C1695.79 621.555 1674.23 626.685 1650.99 629.685C1576.99 639.236 1513.98 623.588 1510.25 594.735C1506.53 565.882 1563.5 534.75 1637.5 525.199C1642.62 524.538 1647.69 523.998 1652.69 523.575C1653.74 506.587 1671.15 493.074 1692.47 493.074C1694.71 493.074 1696.9 493.225 1699.04 493.511C1709.31 475.216 1732.2 462.483 1758.79 462.483C1772.84 462.483 1785.86 466.039 1796.53 472.091C1803.25 456.433 1817.54 445.625 1834.08 445.625C1844.51 445.625 1854.04 449.919 1861.35 457.016C1881.99 434.999 1917.44 420.473 1957.7 420.473C2010.86 420.473 2055.62 445.792 2069 480.242C2098.47 480.764 2123.81 495.824 2135.82 517.464C2142.68 512.771 2150.5 509.083 2158.99 506.656C2137.94 488.152 2125.12 463.632 2125.12 436.733C2125.12 414.711 2133.71 394.282 2148.38 377.445C2092.74 370.613 2051.87 347.86 2051.87 320.844C2051.87 297.261 2083.02 276.928 2127.94 267.596C2135.05 255.532 2151.33 247.097 2170.27 247.097C2173.05 247.097 2175.78 247.28 2178.43 247.629C2190.81 231.232 2215.98 220.007 2245.02 220.007C2286.3 220.007 2319.77 242.692 2319.77 270.676C2319.77 281.549 2314.72 291.623 2306.12 299.876C2311.69 306.388 2314.75 313.456 2314.75 320.844C2314.75 327.713 2312.11 334.305 2307.26 340.431C2354.68 356.184 2388 393.369 2388 436.733C2388 476.458 2360.04 510.998 2318.88 528.626C2355.76 537.992 2381.98 561.908 2381.98 589.933C2381.98 626.125 2338.25 655.464 2284.32 655.464ZM794.159 673.525C750.105 673.525 714.392 647.47 714.392 615.33C714.392 611.546 714.888 607.847 715.833 604.265C715.023 604.283 714.21 604.293 713.394 604.293C697.079 604.293 682.045 600.624 670.035 594.452C649.542 616.713 600.529 632.387 543.323 632.387C486.237 632.387 437.309 616.778 416.74 594.59C395.373 612.272 364.695 623.357 330.608 623.357C308.634 623.357 288.077 618.749 270.517 610.739C255.021 636.101 230.624 652.455 203.183 652.455C175.017 652.454 150.059 635.225 134.641 608.71C112.849 617.348 86.9658 622.354 59.2021 622.354C-18.3772 622.354 -81.2676 583.272 -81.2676 535.062C-81.2676 508.3 -61.887 484.351 -31.3721 468.338C-61.887 452.326 -81.2676 428.377 -81.2676 401.615C-81.2676 380.312 -68.9868 360.794 -48.5869 345.64C-59.0479 336.556 -65.2148 325.39 -65.2148 313.319C-65.2148 282.841 -25.9082 258.134 22.5791 258.134C71.0662 258.134 110.372 282.841 110.372 313.319C110.372 315.628 110.146 317.903 109.708 320.137C162.334 332.743 199.673 364.468 199.673 401.615C199.673 416.482 193.691 430.48 183.143 442.733C189.568 440.779 196.279 439.743 203.183 439.743C224.087 439.743 243.223 449.233 258.005 464.966C277.947 452.945 303.173 445.762 330.608 445.762C392.087 445.762 442.48 481.817 447.146 527.61C471.877 516.708 505.841 509.978 543.323 509.978C587.097 509.978 626.073 519.156 651.146 533.44C663.322 518.845 686.635 508.974 713.394 508.974C752.737 508.974 784.632 530.313 784.632 556.634C784.632 556.94 784.627 557.244 784.618 557.548C787.746 557.276 790.931 557.135 794.159 557.135C820.847 557.135 844.473 566.697 858.953 581.381C869.699 566.698 887.232 557.135 907.038 557.135C939.732 557.135 966.236 583.19 966.236 615.33C966.236 647.47 939.732 673.525 907.038 673.525C887.232 673.525 869.7 663.962 858.953 649.279C844.473 663.963 820.847 673.525 794.159 673.525Z" />
        </mask>
        <path
            d="M2214.42 118.667C2181.39 118.667 2152.28 112.124 2135.18 102.185C2126 103.115 2116.21 103.618 2106.05 103.618C2053.41 103.618 2010.73 90.1412 2010.73 73.5171C2010.73 59.9192 2039.29 48.4292 2078.49 44.6958C2083.72 30.097 2101.71 19.3354 2123.11 19.3354C2131.07 19.3354 2138.56 20.825 2145.1 23.4478C2158.41 9.50171 2181.56 0.271973 2207.89 0.271973C2249.18 0.272156 2282.64 22.9572 2282.64 50.9409C2282.64 52.4785 2282.54 54.0007 2282.35 55.5034C2299.28 62.2045 2309.74 71.3972 2309.74 81.5435C2309.74 102.046 2267.06 118.667 2214.42 118.667ZM2284.32 655.464C2253.38 655.464 2225.8 645.806 2207.91 630.739C2200.05 633.12 2191.61 634.415 2182.81 634.415C2152.67 634.415 2126.63 619.204 2114.42 597.177C2101.5 606.012 2085.17 611.287 2067.42 611.287C2056.96 611.287 2047 609.457 2037.94 606.147C1996.46 621.538 1932.94 631.384 1861.74 631.384C1805.42 631.384 1753.92 625.225 1714.32 615.037C1695.79 621.555 1674.23 626.685 1650.99 629.685C1576.99 639.236 1513.98 623.588 1510.25 594.735C1506.53 565.882 1563.5 534.75 1637.5 525.199C1642.62 524.538 1647.69 523.998 1652.69 523.575C1653.74 506.587 1671.15 493.074 1692.47 493.074C1694.71 493.074 1696.9 493.225 1699.04 493.511C1709.31 475.216 1732.2 462.483 1758.79 462.483C1772.84 462.483 1785.86 466.039 1796.53 472.091C1803.25 456.433 1817.54 445.625 1834.08 445.625C1844.51 445.625 1854.04 449.919 1861.35 457.016C1881.99 434.999 1917.44 420.473 1957.7 420.473C2010.86 420.473 2055.62 445.792 2069 480.242C2098.47 480.764 2123.81 495.824 2135.82 517.464C2142.68 512.771 2150.5 509.083 2158.99 506.656C2137.94 488.152 2125.12 463.632 2125.12 436.733C2125.12 414.711 2133.71 394.282 2148.38 377.445C2092.74 370.613 2051.87 347.86 2051.87 320.844C2051.87 297.261 2083.02 276.928 2127.94 267.596C2135.05 255.532 2151.33 247.097 2170.27 247.097C2173.05 247.097 2175.78 247.28 2178.43 247.629C2190.81 231.232 2215.98 220.007 2245.02 220.007C2286.3 220.007 2319.77 242.692 2319.77 270.676C2319.77 281.549 2314.72 291.623 2306.12 299.876C2311.69 306.388 2314.75 313.456 2314.75 320.844C2314.75 327.713 2312.11 334.305 2307.26 340.431C2354.68 356.184 2388 393.369 2388 436.733C2388 476.458 2360.04 510.998 2318.88 528.626C2355.76 537.992 2381.98 561.908 2381.98 589.933C2381.98 626.125 2338.25 655.464 2284.32 655.464ZM794.159 673.525C750.105 673.525 714.392 647.47 714.392 615.33C714.392 611.546 714.888 607.847 715.833 604.265C715.023 604.283 714.21 604.293 713.394 604.293C697.079 604.293 682.045 600.624 670.035 594.452C649.542 616.713 600.529 632.387 543.323 632.387C486.237 632.387 437.309 616.778 416.74 594.59C395.373 612.272 364.695 623.357 330.608 623.357C308.634 623.357 288.077 618.749 270.517 610.739C255.021 636.101 230.624 652.455 203.183 652.455C175.017 652.454 150.059 635.225 134.641 608.71C112.849 617.348 86.9658 622.354 59.2021 622.354C-18.3772 622.354 -81.2676 583.272 -81.2676 535.062C-81.2676 508.3 -61.887 484.351 -31.3721 468.338C-61.887 452.326 -81.2676 428.377 -81.2676 401.615C-81.2676 380.312 -68.9868 360.794 -48.5869 345.64C-59.0479 336.556 -65.2148 325.39 -65.2148 313.319C-65.2148 282.841 -25.9082 258.134 22.5791 258.134C71.0662 258.134 110.372 282.841 110.372 313.319C110.372 315.628 110.146 317.903 109.708 320.137C162.334 332.743 199.673 364.468 199.673 401.615C199.673 416.482 193.691 430.48 183.143 442.733C189.568 440.779 196.279 439.743 203.183 439.743C224.087 439.743 243.223 449.233 258.005 464.966C277.947 452.945 303.173 445.762 330.608 445.762C392.087 445.762 442.48 481.817 447.146 527.61C471.877 516.708 505.841 509.978 543.323 509.978C587.097 509.978 626.073 519.156 651.146 533.44C663.322 518.845 686.635 508.974 713.394 508.974C752.737 508.974 784.632 530.313 784.632 556.634C784.632 556.94 784.627 557.244 784.618 557.548C787.746 557.276 790.931 557.135 794.159 557.135C820.847 557.135 844.473 566.697 858.953 581.381C869.699 566.698 887.232 557.135 907.038 557.135C939.732 557.135 966.236 583.19 966.236 615.33C966.236 647.47 939.732 673.525 907.038 673.525C887.232 673.525 869.7 663.962 858.953 649.279C844.473 663.963 820.847 673.525 794.159 673.525Z"
            fill="url(#paint0_radial_0_1)" />
        <path
            d="M2214.42 118.667V119.671V118.667ZM2135.18 102.185L2135.68 101.318L2135.4 101.154L2135.08 101.187L2135.18 102.185ZM2106.05 103.618V104.621V103.618ZM2010.73 73.5171H2009.73H2010.73ZM2078.49 44.6958L2078.59 45.6946L2079.22 45.6342L2079.44 45.0342L2078.49 44.6958ZM2123.11 19.3354V18.3321V19.3354ZM2145.1 23.4478L2144.72 24.379L2145.35 24.6318L2145.82 24.1406L2145.1 23.4478ZM2207.89 0.271973V-0.731384V0.271973ZM2282.64 50.9409H2283.65H2282.64ZM2282.35 55.5034L2281.35 55.3724L2281.25 56.1485L2281.98 56.4364L2282.35 55.5034ZM2309.74 81.5435H2310.74H2309.74ZM2284.32 655.464V656.468V655.464ZM2207.91 630.739L2208.56 629.971L2208.14 629.621L2207.62 629.779L2207.91 630.739ZM2182.81 634.415V635.418V634.415ZM2114.42 597.177L2115.29 596.691L2114.76 595.727L2113.85 596.349L2114.42 597.177ZM2067.42 611.287V612.29V611.287ZM2037.94 606.147L2038.28 605.204L2037.93 605.078L2037.59 605.206L2037.94 606.147ZM1861.74 631.384V632.388V631.384ZM1714.32 615.037L1714.57 614.065L1714.28 613.989L1713.99 614.09L1714.32 615.037ZM1650.99 629.685L1651.12 630.68L1650.99 629.685ZM1510.25 594.735L1509.26 594.863V594.863L1510.25 594.735ZM1637.5 525.199L1637.37 524.204L1637.5 525.199ZM1652.69 523.575L1652.77 524.574L1653.64 524.501L1653.69 523.636L1652.69 523.575ZM1692.47 493.074V492.07V493.074ZM1699.04 493.511L1698.9 494.506L1699.58 494.596L1699.91 494.003L1699.04 493.511ZM1758.79 462.483V461.48V462.483ZM1796.53 472.091L1796.04 472.964L1797.01 473.517L1797.45 472.487L1796.53 472.091ZM1834.08 445.625V444.621V445.625ZM1861.35 457.016L1860.65 457.736L1861.38 458.447L1862.08 457.702L1861.35 457.016ZM1957.7 420.473V419.47V420.473ZM2069 480.242L2068.07 480.605L2068.31 481.233L2068.98 481.245L2069 480.242ZM2135.82 517.464L2134.94 517.951L2135.47 518.915L2136.38 518.293L2135.82 517.464ZM2158.99 506.656L2159.27 507.62L2161.04 507.115L2159.66 505.902L2158.99 506.656ZM2125.12 436.733H2124.11H2125.12ZM2148.38 377.445L2149.14 378.104L2150.38 376.679L2148.5 376.449L2148.38 377.445ZM2051.87 320.844H2050.87H2051.87ZM2127.94 267.596L2128.14 268.579L2128.58 268.488L2128.8 268.106L2127.94 267.596ZM2170.27 247.097V246.094V247.097ZM2178.43 247.629L2178.3 248.624L2178.88 248.701L2179.23 248.234L2178.43 247.629ZM2245.02 220.007V219.004V220.007ZM2319.77 270.676H2320.77H2319.77ZM2306.12 299.876L2305.42 299.153L2304.74 299.809L2305.35 300.529L2306.12 299.876ZM2314.75 320.844H2315.76H2314.75ZM2307.26 340.431L2306.47 339.808L2305.58 340.931L2306.94 341.383L2307.26 340.431ZM2388 436.733H2389H2388ZM2318.88 528.626L2318.49 527.704L2315.77 528.87L2318.64 529.599L2318.88 528.626ZM2381.98 589.933H2382.98V589.933L2381.98 589.933ZM794.159 673.525V674.528V673.525ZM714.392 615.33L713.388 615.33V615.33H714.392ZM715.833 604.265L716.803 604.521L717.143 603.232L715.81 603.262L715.833 604.265ZM713.394 604.293V605.297V604.293ZM670.035 594.452L670.494 593.559L669.814 593.21L669.297 593.772L670.035 594.452ZM543.323 632.387V633.391V632.387ZM416.74 594.59L417.476 593.908L416.831 593.213L416.101 593.817L416.74 594.59ZM330.608 623.357V624.36V623.357ZM270.517 610.739L270.933 609.826L270.124 609.457L269.66 610.216L270.517 610.739ZM203.183 652.455V653.458V652.455ZM134.641 608.71L135.508 608.206L135.074 607.459L134.271 607.778L134.641 608.71ZM59.2021 622.354V623.357V622.354ZM-81.2676 535.062H-82.271H-81.2676ZM-31.3721 468.338L-30.9058 469.227L-29.2126 468.338L-30.9058 467.45L-31.3721 468.338ZM-81.2676 401.615H-82.271H-81.2676ZM-48.5869 345.64L-47.9885 346.446L-46.9863 345.701L-47.929 344.883L-48.5869 345.64ZM-65.2148 313.319H-66.2183H-65.2148ZM22.5791 258.134V257.131V258.134ZM110.372 313.319H111.375H110.372ZM109.708 320.137L108.723 319.944L108.538 320.889L109.474 321.113L109.708 320.137ZM199.673 401.615H200.676H199.673ZM183.143 442.733L182.382 442.078L180.126 444.699L183.434 443.693L183.143 442.733ZM203.183 439.743V438.739V439.743ZM258.005 464.966L257.274 465.653L257.829 466.244L258.523 465.826L258.005 464.966ZM330.608 445.762V444.759V445.762ZM447.146 527.61L446.148 527.712L446.288 529.085L447.551 528.528L447.146 527.61ZM543.323 509.978V508.975V509.978ZM651.146 533.44L650.649 534.312L651.378 534.727L651.916 534.083L651.146 533.44ZM713.394 508.974V507.971V508.974ZM784.632 556.634L785.635 556.634V556.634H784.632ZM784.618 557.548L783.615 557.52L783.583 558.645L784.705 558.548L784.618 557.548ZM794.159 557.135V556.132V557.135ZM858.953 581.381L858.239 582.086L859.067 582.925L859.763 581.974L858.953 581.381ZM907.038 557.135V556.132V557.135ZM966.236 615.33H967.24V615.33L966.236 615.33ZM907.038 673.525V674.528V673.525ZM858.953 649.279L859.763 648.686L859.067 647.735L858.239 648.574L858.953 649.279ZM2214.42 118.667V117.664C2181.48 117.664 2152.58 111.134 2135.68 101.318L2135.18 102.185L2134.68 103.053C2151.99 113.114 2181.29 119.671 2214.42 119.671V118.667ZM2135.18 102.185L2135.08 101.187C2125.93 102.113 2116.18 102.614 2106.05 102.614V103.618V104.621C2116.24 104.621 2126.07 104.116 2135.28 103.183L2135.18 102.185ZM2106.05 103.618V102.614C2079.8 102.614 2056.08 99.2532 2038.95 93.8447C2030.38 91.1385 2023.52 87.9372 2018.82 84.4296C2014.11 80.9085 2011.74 77.21 2011.74 73.5171H2010.73H2009.73C2009.73 78.1362 2012.69 82.3564 2017.62 86.0376C2022.57 89.7324 2029.67 93.0172 2038.35 95.7582C2055.72 101.244 2079.66 104.621 2106.05 104.621V103.618ZM2010.73 73.5171H2011.74C2011.74 70.4961 2013.32 67.4759 2016.49 64.5381C2019.66 61.6002 2024.34 58.8276 2030.3 56.3328C2042.21 51.346 2059.04 47.5556 2078.59 45.6946L2078.49 44.6958L2078.4 43.697C2058.73 45.5693 2041.69 49.3907 2029.52 54.4817C2023.44 57.0258 2018.53 59.9086 2015.13 63.0662C2011.72 66.2239 2009.73 69.7391 2009.73 73.5171H2010.73ZM2078.49 44.6958L2079.44 45.0342C2084.48 30.9641 2101.98 20.3388 2123.11 20.3388V19.3354V18.3321C2101.45 18.3321 2082.97 29.2301 2077.55 44.3574L2078.49 44.6958ZM2123.11 19.3354V20.3388C2130.95 20.3388 2138.31 21.8054 2144.72 24.379L2145.1 23.4478L2145.47 22.5165C2138.81 19.8447 2131.19 18.3321 2123.11 18.3321V19.3354ZM2145.1 23.4478L2145.82 24.1406C2158.91 10.4365 2181.77 1.27533 2207.89 1.27533V0.271973V-0.731384C2181.35 -0.731384 2157.92 8.56689 2144.37 22.7549L2145.1 23.4478ZM2207.89 0.271973V1.27533C2228.36 1.27539 2246.85 6.9007 2260.19 15.9431C2273.53 24.9893 2281.64 37.3811 2281.64 50.9409H2282.64H2283.65C2283.65 36.517 2275.02 23.5743 2261.31 14.282C2247.6 4.98602 2228.71 -0.731323 2207.89 -0.731384V0.271973ZM2282.64 50.9409H2281.64C2281.64 52.4349 2281.54 53.9133 2281.35 55.3724L2282.35 55.5034L2283.34 55.6344C2283.54 54.088 2283.65 52.5222 2283.65 50.9409H2282.64ZM2282.35 55.5034L2281.98 56.4364C2290.38 59.7599 2297.1 63.6763 2301.71 67.9659C2306.32 72.2541 2308.73 76.8414 2308.73 81.5435H2309.74H2310.74C2310.74 76.0992 2307.93 71.0171 2303.08 66.4971C2298.22 61.9785 2291.25 57.948 2282.71 54.5704L2282.35 55.5034ZM2309.74 81.5435H2308.73C2308.73 86.2941 2306.26 90.9289 2301.57 95.2557C2296.87 99.5833 2290.01 103.527 2281.45 106.859C2264.35 113.522 2240.65 117.664 2214.42 117.664V118.667V119.671C2240.83 119.671 2264.79 115.503 2282.18 108.729C2290.87 105.343 2297.98 101.287 2302.92 96.7319C2307.87 92.1757 2310.74 87.0443 2310.74 81.5435H2309.74ZM2284.32 655.464V654.461C2253.57 654.461 2226.23 644.859 2208.56 629.971L2207.91 630.739L2207.26 631.506C2225.37 646.753 2253.19 656.468 2284.32 656.468V655.464ZM2207.91 630.739L2207.62 629.779C2199.86 632.131 2191.51 633.411 2182.81 633.411V634.415V635.418C2191.71 635.418 2200.25 634.109 2208.2 631.699L2207.91 630.739ZM2182.81 634.415V633.411C2152.99 633.411 2127.31 618.365 2115.29 596.691L2114.42 597.177L2113.54 597.664C2125.95 620.043 2152.34 635.418 2182.81 635.418V634.415ZM2114.42 597.177L2113.85 596.349C2101.1 605.068 2084.97 610.283 2067.42 610.283V611.287V612.29C2085.37 612.29 2101.89 606.957 2114.98 598.005L2114.42 597.177ZM2067.42 611.287V610.283C2057.08 610.283 2047.23 608.474 2038.28 605.204L2037.94 606.147L2037.59 607.089C2046.76 610.44 2056.84 612.29 2067.42 612.29V611.287ZM2037.94 606.147L2037.59 605.206C1996.26 620.542 1932.87 630.381 1861.74 630.381V631.384V632.388C1933.01 632.388 1996.66 622.534 2038.28 607.088L2037.94 606.147ZM1861.74 631.384V630.381C1805.49 630.381 1754.07 624.228 1714.57 614.065L1714.32 615.037L1714.07 616.008C1753.77 626.222 1805.36 632.388 1861.74 632.388V631.384ZM1714.32 615.037L1713.99 614.09C1695.53 620.584 1674.04 625.698 1650.86 628.69L1650.99 629.685L1651.12 630.68C1674.42 627.672 1696.05 622.527 1714.66 615.983L1714.32 615.037ZM1650.99 629.685L1650.86 628.69C1613.95 633.454 1579.83 631.925 1554.51 625.638C1541.85 622.493 1531.44 618.171 1523.99 612.893C1516.54 607.615 1512.13 601.448 1511.25 594.606L1510.25 594.735L1509.26 594.863C1510.24 602.448 1515.1 609.057 1522.83 614.53C1530.55 620.002 1541.22 624.405 1554.03 627.585C1579.64 633.947 1614.02 635.467 1651.12 630.68L1650.99 629.685ZM1510.25 594.735L1511.25 594.606C1510.37 587.765 1513.06 580.681 1518.93 573.685C1524.79 566.689 1533.76 559.866 1545.21 553.609C1568.11 541.099 1600.72 530.957 1637.63 526.194L1637.5 525.199L1637.37 524.204C1600.28 528.991 1567.41 539.191 1544.25 551.848C1532.67 558.175 1523.47 565.142 1517.39 572.396C1511.31 579.651 1508.28 587.279 1509.26 594.863L1510.25 594.735ZM1637.5 525.199L1637.63 526.194C1642.74 525.535 1647.79 524.997 1652.77 524.574L1652.69 523.575L1652.6 522.575C1647.59 523 1642.51 523.541 1637.37 524.204L1637.5 525.199ZM1652.69 523.575L1653.69 523.636C1654.7 507.349 1671.49 494.077 1692.47 494.077V493.074V492.07C1670.81 492.07 1652.78 505.825 1651.69 523.513L1652.69 523.575ZM1692.47 493.074V494.077C1694.66 494.077 1696.81 494.226 1698.9 494.506L1699.04 493.511L1699.17 492.517C1696.99 492.225 1694.75 492.07 1692.47 492.07V493.074ZM1699.04 493.511L1699.91 494.003C1709.98 476.079 1732.5 463.486 1758.79 463.486V462.483V461.48C1731.91 461.48 1708.64 474.353 1698.16 493.02L1699.04 493.511ZM1758.79 462.483V463.486C1772.68 463.486 1785.52 467 1796.04 472.964L1796.53 472.091L1797.03 471.219C1786.2 465.077 1773.01 461.48 1758.79 461.48V462.483ZM1796.53 472.091L1797.45 472.487C1804.04 457.136 1818 446.628 1834.08 446.628V445.625V444.621C1817.07 444.621 1802.46 455.731 1795.61 471.696L1796.53 472.091ZM1834.08 445.625V446.628C1844.22 446.628 1853.51 450.803 1860.65 457.736L1861.35 457.016L1862.04 456.296C1854.57 449.036 1844.79 444.621 1834.08 444.621V445.625ZM1861.35 457.016L1862.08 457.702C1882.49 435.928 1917.65 421.477 1957.7 421.477V420.473V419.47C1917.22 419.47 1881.48 434.071 1860.61 456.33L1861.35 457.016ZM1957.7 420.473V421.477C2010.62 421.477 2054.89 446.682 2068.07 480.605L2069 480.242L2069.94 479.878C2056.35 444.902 2011.09 419.47 1957.7 419.47V420.473ZM2069 480.242L2068.98 481.245C2098.14 481.762 2123.13 496.657 2134.94 517.951L2135.82 517.464L2136.69 516.978C2124.5 494.991 2098.81 479.766 2069.02 479.238L2069 480.242ZM2135.82 517.464L2136.38 518.293C2143.15 513.661 2150.88 510.018 2159.27 507.62L2158.99 506.656L2158.72 505.691C2150.13 508.147 2142.2 511.88 2135.25 516.636L2135.82 517.464ZM2158.99 506.656L2159.66 505.902C2138.78 487.555 2126.12 463.295 2126.12 436.733H2125.12H2124.11C2124.11 463.969 2137.1 488.75 2158.33 507.409L2158.99 506.656ZM2125.12 436.733H2126.12C2126.12 414.983 2134.61 394.783 2149.14 378.104L2148.38 377.445L2147.63 376.786C2132.82 393.782 2124.11 414.438 2124.11 436.733H2125.12ZM2148.38 377.445L2148.5 376.449C2120.78 373.044 2096.79 365.678 2079.76 355.845C2062.7 345.986 2052.88 333.807 2052.88 320.844H2051.87H2050.87C2050.87 334.898 2061.48 347.603 2078.76 357.582C2096.08 367.588 2120.35 375.014 2148.26 378.441L2148.38 377.445ZM2051.87 320.844H2052.88C2052.88 309.531 2060.35 298.816 2073.63 289.703C2086.89 280.604 2105.77 273.227 2128.14 268.579L2127.94 267.596L2127.74 266.614C2105.19 271.297 2086.04 278.753 2072.49 288.049C2058.97 297.331 2050.87 308.575 2050.87 320.844H2051.87ZM2127.94 267.596L2128.8 268.106C2135.69 256.424 2151.58 248.101 2170.27 248.101V247.097V246.094C2151.07 246.094 2134.41 254.641 2127.08 267.087L2127.94 267.596ZM2170.27 247.097V248.101C2173.01 248.101 2175.69 248.28 2178.3 248.624L2178.43 247.629L2178.56 246.635C2175.87 246.279 2173.1 246.094 2170.27 246.094V247.097ZM2178.43 247.629L2179.23 248.234C2191.37 232.157 2216.2 221.011 2245.02 221.011V220.007V219.004C2215.76 219.004 2190.25 230.307 2177.63 247.025L2178.43 247.629ZM2245.02 220.007V221.011C2265.49 221.011 2283.97 226.636 2297.31 235.678C2310.66 244.725 2318.77 257.116 2318.77 270.676H2319.77H2320.77C2320.77 256.252 2312.15 243.31 2298.44 234.017C2284.72 224.721 2265.83 219.004 2245.02 219.004V220.007ZM2319.77 270.676H2318.77C2318.77 281.219 2313.87 291.044 2305.42 299.153L2306.12 299.876L2306.81 300.6C2315.56 292.202 2320.77 281.88 2320.77 270.676H2319.77ZM2306.12 299.876L2305.35 300.529C2310.82 306.906 2313.75 313.751 2313.75 320.844H2314.75H2315.76C2315.76 313.162 2312.57 305.871 2306.88 299.224L2306.12 299.876ZM2314.75 320.844H2313.75C2313.75 327.44 2311.22 333.82 2306.47 339.808L2307.26 340.431L2308.04 341.054C2313.01 334.791 2315.76 327.985 2315.76 320.844H2314.75ZM2307.26 340.431L2306.94 341.383C2354.09 357.045 2386.99 393.928 2386.99 436.733H2388H2389C2389 392.809 2355.27 355.323 2307.57 339.479L2307.26 340.431ZM2388 436.733H2386.99C2386.99 475.948 2359.38 510.186 2318.49 527.704L2318.88 528.626L2319.28 529.549C2360.69 511.81 2389 476.968 2389 436.733H2388ZM2318.88 528.626L2318.64 529.599C2355.33 538.919 2380.97 562.593 2380.97 589.933L2381.98 589.933L2382.98 589.933C2382.98 561.223 2356.19 537.066 2319.13 527.654L2318.88 528.626ZM2381.98 589.933H2380.97C2380.97 607.592 2370.31 623.699 2352.81 635.437C2335.33 647.171 2311.12 654.461 2284.32 654.461V655.464V656.468C2311.46 656.468 2336.07 649.088 2353.93 637.104C2371.78 625.124 2382.98 608.466 2382.98 589.933H2381.98ZM794.159 673.525V672.522C772.322 672.522 752.592 666.062 738.346 655.669C724.1 645.275 715.395 631.001 715.395 615.33H714.392H713.388C713.388 631.798 722.54 646.622 737.164 657.29C751.788 667.96 771.942 674.528 794.159 674.528V673.525ZM714.392 615.33L715.395 615.33C715.395 611.635 715.88 608.022 716.803 604.521L715.833 604.265L714.863 604.009C713.896 607.673 713.388 611.458 713.388 615.33L714.392 615.33ZM715.833 604.265L715.81 603.262C715.007 603.28 714.202 603.29 713.394 603.29V604.293V605.297C714.218 605.297 715.039 605.287 715.856 605.268L715.833 604.265ZM713.394 604.293V603.29C697.224 603.29 682.35 599.652 670.494 593.559L670.035 594.452L669.577 595.344C681.74 601.595 696.933 605.297 713.394 605.297V604.293ZM670.035 594.452L669.297 593.772C659.221 604.718 642.035 614.132 620.154 620.808C598.294 627.477 571.839 631.384 543.323 631.384V632.387V633.391C572.013 633.391 598.668 629.461 620.739 622.727C642.789 616 660.357 606.447 670.773 595.131L670.035 594.452ZM543.323 632.387V631.384C514.867 631.384 488.463 627.493 466.63 620.849C444.775 614.199 427.591 604.819 417.476 593.908L416.74 594.59L416.004 595.272C426.459 606.549 444.023 616.068 466.046 622.769C488.09 629.477 514.693 633.391 543.323 633.391V632.387ZM416.74 594.59L416.101 593.817C394.932 611.335 364.486 622.354 330.608 622.354V623.357V624.36C364.904 624.36 395.815 613.209 417.38 595.363L416.74 594.59ZM330.608 623.357V622.354C308.773 622.354 288.358 617.775 270.933 609.826L270.517 610.739L270.1 611.652C287.795 619.724 308.495 624.36 330.608 624.36V623.357ZM270.517 610.739L269.66 610.216C254.302 635.352 230.197 651.451 203.183 651.451V652.455V653.458C231.051 653.458 255.739 636.849 271.373 611.262L270.517 610.739ZM203.183 652.455V651.451C175.456 651.451 150.792 634.49 135.508 608.206L134.641 608.71L133.773 609.215C149.326 635.961 174.578 653.458 203.183 653.458V652.455ZM134.641 608.71L134.271 607.778C112.605 616.366 86.8486 621.351 59.2021 621.351V622.354V623.357C87.0833 623.357 113.093 618.331 135.01 609.643L134.641 608.71ZM59.2021 622.354V621.351C20.5693 621.351 -14.3582 611.618 -39.5955 595.935C-64.8474 580.242 -80.2642 558.693 -80.2642 535.062H-81.2676H-82.271C-82.271 559.641 -66.2424 581.738 -40.6545 597.639C-15.0518 613.549 20.2556 623.357 59.2021 623.357V622.354ZM-81.2676 535.062H-80.2642C-80.2642 508.827 -61.2542 485.152 -30.9058 469.227L-31.3721 468.338L-31.8384 467.45C-62.5198 483.55 -82.271 507.772 -82.271 535.062H-81.2676ZM-31.3721 468.338L-30.9058 467.45C-61.2539 451.525 -80.2642 427.85 -80.2642 401.615H-81.2676H-82.271C-82.271 428.904 -62.5198 453.127 -31.8384 469.227L-31.3721 468.338ZM-81.2676 401.615H-80.2642C-80.2642 380.729 -68.2253 361.478 -47.9885 346.446L-48.5869 345.64L-49.1853 344.835C-69.7483 360.11 -82.271 379.896 -82.271 401.615H-81.2676ZM-48.5869 345.64L-47.929 344.883C-58.2351 335.933 -64.2114 325.024 -64.2114 313.319H-65.2148H-66.2183C-66.2183 325.757 -59.8606 337.179 -49.2449 346.398L-48.5869 345.64ZM-65.2148 313.319H-64.2114C-64.2114 298.548 -54.6841 285.026 -38.9666 275.147C-23.2625 265.276 -1.50537 259.138 22.5791 259.138V258.134V257.131C-1.82349 257.131 -23.9634 263.346 -40.0344 273.448C-56.0923 283.541 -66.2183 297.612 -66.2183 313.319H-65.2148ZM22.5791 258.134V259.138C46.6636 259.138 68.4204 265.276 84.1243 275.147C99.8416 285.027 109.369 298.548 109.369 313.319H110.372H111.375C111.375 297.612 101.25 283.541 85.1921 273.448C69.1213 263.346 46.9817 257.131 22.5791 257.131V258.134ZM110.372 313.319H109.369C109.369 315.562 109.149 317.772 108.723 319.944L109.708 320.137L110.693 320.33C111.143 318.033 111.375 315.693 111.375 313.319H110.372ZM109.708 320.137L109.474 321.113C135.664 327.386 157.995 338.405 173.759 352.423C189.52 366.438 198.669 383.402 198.669 401.615H199.673H200.676C200.676 382.681 191.157 365.209 175.092 350.923C159.03 336.64 136.378 325.494 109.942 319.161L109.708 320.137ZM199.673 401.615H198.669C198.669 416.198 192.805 429.971 182.382 442.078L183.143 442.733L183.903 443.388C194.577 430.989 200.676 416.766 200.676 401.615H199.673ZM183.143 442.733L183.434 443.693C189.768 441.768 196.38 440.746 203.183 440.746V439.743V438.739C196.177 438.739 189.368 439.791 182.851 441.773L183.143 442.733ZM203.183 439.743V440.746C223.767 440.746 242.65 450.089 257.274 465.653L258.005 464.966L258.736 464.279C243.796 448.378 224.406 438.739 203.183 438.739V439.743ZM258.005 464.966L258.523 465.826C278.299 453.904 303.344 446.766 330.608 446.766V445.762V444.759C303.001 444.759 277.594 451.986 257.487 464.107L258.005 464.966ZM330.608 445.762V446.766C391.802 446.766 441.554 482.63 446.148 527.712L447.146 527.61L448.145 527.508C443.405 481.003 392.372 444.759 330.608 444.759V445.762ZM447.146 527.61L447.551 528.528C472.127 517.694 505.948 510.981 543.323 510.981V509.978V508.975C505.734 508.975 471.626 515.722 446.742 526.692L447.146 527.61ZM543.323 509.978V510.981C586.982 510.981 625.773 520.139 650.649 534.312L651.146 533.44L651.642 532.568C626.374 518.173 587.211 508.975 543.323 508.975V509.978ZM651.146 533.44L651.916 534.083C663.852 519.776 686.845 509.977 713.394 509.977V508.974V507.971C686.425 507.971 662.792 517.914 650.375 532.797L651.146 533.44ZM713.394 508.974V509.977C732.894 509.978 750.504 515.268 763.209 523.768C775.92 532.272 783.628 543.912 783.628 556.634H784.632H785.635C785.635 543.035 777.396 530.845 764.324 522.1C751.246 513.35 733.237 507.971 713.394 507.971V508.974ZM784.632 556.634L783.628 556.634C783.628 556.929 783.624 557.224 783.615 557.52L784.618 557.548L785.621 557.577C785.63 557.265 785.635 556.951 785.635 556.634L784.632 556.634ZM784.618 557.548L784.705 558.548C787.805 558.278 790.96 558.139 794.159 558.139V557.135V556.132C790.901 556.132 787.688 556.274 784.531 556.549L784.618 557.548ZM794.159 557.135V558.139C820.625 558.139 843.977 567.624 858.239 582.086L858.953 581.381L859.668 580.677C844.968 565.771 821.069 556.132 794.159 556.132V557.135ZM858.953 581.381L859.763 581.974C870.326 567.541 887.562 558.139 907.038 558.139V557.135V556.132C886.903 556.132 869.073 565.854 858.143 580.789L858.953 581.381ZM907.038 557.135V558.139C939.194 558.139 965.233 583.76 965.233 615.33L966.236 615.33L967.24 615.33C967.24 582.619 940.27 556.132 907.038 556.132V557.135ZM966.236 615.33H965.233C965.233 646.899 939.194 672.521 907.038 672.522V673.525V674.528C940.27 674.528 967.24 648.04 967.24 615.33H966.236ZM907.038 673.525V672.522C887.562 672.522 870.326 663.119 859.763 648.686L858.953 649.279L858.143 649.871C869.073 664.805 886.903 674.528 907.038 674.528V673.525ZM858.953 649.279L858.239 648.574C843.977 663.036 820.625 672.521 794.159 672.522V673.525V674.528C821.069 674.528 844.968 664.889 859.667 649.983L858.953 649.279Z"
            fill="#0A0602" mask="url(#path-1-inside-1_0_1)" />
    </g>
    <g filter="url(#filter1_n_0_1)">
        <mask id="path-3-inside-2_0_1" fill="white">
            <path
                d="M941.629 266.16C1026.48 266.16 1095.27 327.577 1095.27 403.338C1095.27 479.099 1026.48 540.516 941.629 540.516C939.592 540.516 937.565 540.479 935.548 540.409C935.729 542.2 935.825 544.008 935.825 545.83C935.825 588.906 884.235 623.825 820.596 623.825C786.955 623.825 756.682 614.067 735.616 598.505C718.973 614.566 681.43 625.77 637.78 625.77C578.687 625.77 530.781 605.239 530.781 579.913C530.781 554.587 578.687 534.057 637.78 534.057C650.594 534.057 662.881 535.023 674.269 536.793C674.267 536.696 674.264 536.6 674.264 536.503C674.264 523.515 689.882 512.987 709.146 512.987C711.409 512.987 713.62 513.134 715.763 513.411C732.061 489.305 765.972 471.795 806.354 468.426C794.64 449.059 787.99 426.892 787.99 403.338C787.99 327.577 856.777 266.16 941.629 266.16ZM-32.0088 422.065C13.8801 422.065 51.0973 438.611 51.2666 459.05C91.9288 460.586 124.3 487.145 124.3 519.683C124.3 521.546 124.193 523.389 123.985 525.209C124.477 525.16 124.975 525.135 125.478 525.135C131.413 525.135 136.615 528.607 139.52 533.815C145.03 528.511 153.317 525.135 162.586 525.135C172.374 525.135 181.069 528.9 186.553 534.726C194.456 535.693 200.694 540.747 201.853 547.132C208.918 545.517 216.887 544.606 225.318 544.606C238.131 544.606 249.875 546.706 259.005 550.193C262.946 541.752 271.814 535.867 282.121 535.867C292.177 535.867 300.862 541.469 304.939 549.581C307.048 549.037 309.266 548.746 311.556 548.746C319.948 548.746 327.385 552.648 331.986 558.654C347.272 555.198 366.899 553.12 388.307 553.12C437.071 553.12 476.603 563.902 476.603 577.201C476.602 590.5 437.071 601.281 388.307 601.281C363.092 601.281 340.347 598.398 324.258 593.775C320.525 595.849 316.186 597.038 311.556 597.038C301.499 597.038 292.813 591.436 288.735 583.322C286.627 583.866 284.41 584.159 282.121 584.159C277.834 584.159 273.797 583.139 270.259 581.343C261.003 588.273 244.339 592.897 225.318 592.897C201.92 592.897 182.088 585.899 175.228 576.219C160.459 581.095 139.123 584.159 115.396 584.159C96.2599 584.159 78.6801 582.165 64.8457 578.836C59.2847 579.849 53.493 580.386 47.543 580.386C46.735 580.386 45.9299 580.375 45.1279 580.355C38.8585 588.201 28.3837 593.345 16.5176 593.345C9.85114 593.345 3.62376 591.721 -1.66602 588.907C-7.67146 597.896 -18.9073 603.945 -31.7783 603.945C-35.8108 603.945 -39.6822 603.349 -43.2832 602.257C-51.4844 609.165 -64.1261 613.595 -78.3105 613.595C-103.032 613.595 -123.073 600.146 -123.073 583.557C-123.073 571.413 -112.334 560.952 -96.8818 556.218C-116.761 548.402 -130.43 532.136 -130.43 513.332C-130.43 497.896 -121.218 484.171 -106.923 475.425C-112.281 470.521 -115.287 465.011 -115.287 459.189C-115.287 438.686 -78.0021 422.065 -32.0088 422.065ZM-23.1992 543.279C-23.6271 543.702 -24.0634 544.119 -24.5088 544.529C-23.7391 544.671 -22.9785 544.833 -22.2285 545.018C-22.5628 544.443 -22.8872 543.864 -23.1992 543.279Z" />
        </mask>
        <path
            d="M941.629 266.16C1026.48 266.16 1095.27 327.577 1095.27 403.338C1095.27 479.099 1026.48 540.516 941.629 540.516C939.592 540.516 937.565 540.479 935.548 540.409C935.729 542.2 935.825 544.008 935.825 545.83C935.825 588.906 884.235 623.825 820.596 623.825C786.955 623.825 756.682 614.067 735.616 598.505C718.973 614.566 681.43 625.77 637.78 625.77C578.687 625.77 530.781 605.239 530.781 579.913C530.781 554.587 578.687 534.057 637.78 534.057C650.594 534.057 662.881 535.023 674.269 536.793C674.267 536.696 674.264 536.6 674.264 536.503C674.264 523.515 689.882 512.987 709.146 512.987C711.409 512.987 713.62 513.134 715.763 513.411C732.061 489.305 765.972 471.795 806.354 468.426C794.64 449.059 787.99 426.892 787.99 403.338C787.99 327.577 856.777 266.16 941.629 266.16ZM-32.0088 422.065C13.8801 422.065 51.0973 438.611 51.2666 459.05C91.9288 460.586 124.3 487.145 124.3 519.683C124.3 521.546 124.193 523.389 123.985 525.209C124.477 525.16 124.975 525.135 125.478 525.135C131.413 525.135 136.615 528.607 139.52 533.815C145.03 528.511 153.317 525.135 162.586 525.135C172.374 525.135 181.069 528.9 186.553 534.726C194.456 535.693 200.694 540.747 201.853 547.132C208.918 545.517 216.887 544.606 225.318 544.606C238.131 544.606 249.875 546.706 259.005 550.193C262.946 541.752 271.814 535.867 282.121 535.867C292.177 535.867 300.862 541.469 304.939 549.581C307.048 549.037 309.266 548.746 311.556 548.746C319.948 548.746 327.385 552.648 331.986 558.654C347.272 555.198 366.899 553.12 388.307 553.12C437.071 553.12 476.603 563.902 476.603 577.201C476.602 590.5 437.071 601.281 388.307 601.281C363.092 601.281 340.347 598.398 324.258 593.775C320.525 595.849 316.186 597.038 311.556 597.038C301.499 597.038 292.813 591.436 288.735 583.322C286.627 583.866 284.41 584.159 282.121 584.159C277.834 584.159 273.797 583.139 270.259 581.343C261.003 588.273 244.339 592.897 225.318 592.897C201.92 592.897 182.088 585.899 175.228 576.219C160.459 581.095 139.123 584.159 115.396 584.159C96.2599 584.159 78.6801 582.165 64.8457 578.836C59.2847 579.849 53.493 580.386 47.543 580.386C46.735 580.386 45.9299 580.375 45.1279 580.355C38.8585 588.201 28.3837 593.345 16.5176 593.345C9.85114 593.345 3.62376 591.721 -1.66602 588.907C-7.67146 597.896 -18.9073 603.945 -31.7783 603.945C-35.8108 603.945 -39.6822 603.349 -43.2832 602.257C-51.4844 609.165 -64.1261 613.595 -78.3105 613.595C-103.032 613.595 -123.073 600.146 -123.073 583.557C-123.073 571.413 -112.334 560.952 -96.8818 556.218C-116.761 548.402 -130.43 532.136 -130.43 513.332C-130.43 497.896 -121.218 484.171 -106.923 475.425C-112.281 470.521 -115.287 465.011 -115.287 459.189C-115.287 438.686 -78.0021 422.065 -32.0088 422.065ZM-23.1992 543.279C-23.6271 543.702 -24.0634 544.119 -24.5088 544.529C-23.7391 544.671 -22.9785 544.833 -22.2285 545.018C-22.5628 544.443 -22.8872 543.864 -23.1992 543.279Z"
            fill="#F33900" />
        <path
            d="M941.629 266.16V265.7V266.16ZM1095.27 403.338H1095.73H1095.27ZM941.629 540.516V540.976V540.516ZM935.548 540.409L935.564 539.95L935.037 539.931L935.09 540.456L935.548 540.409ZM935.825 545.83H936.285H935.825ZM820.596 623.825V624.285V623.825ZM735.616 598.505L735.889 598.135L735.577 597.904L735.297 598.174L735.616 598.505ZM637.78 625.77V626.229V625.77ZM530.781 579.913H530.321H530.781ZM637.78 534.057V533.597V534.057ZM674.269 536.793L674.198 537.247L674.738 537.331L674.728 536.785L674.269 536.793ZM674.264 536.503H673.804H674.264ZM709.146 512.987V512.527V512.987ZM715.763 513.411L715.704 513.867L715.985 513.904L716.144 513.669L715.763 513.411ZM806.354 468.426L806.392 468.884L807.131 468.822L806.747 468.188L806.354 468.426ZM787.99 403.338H787.53H787.99ZM-32.0088 422.065V421.606V422.065ZM51.2666 459.05L50.8067 459.054L50.8103 459.493L51.2492 459.509L51.2666 459.05ZM124.3 519.683H124.76H124.3ZM123.985 525.209L123.528 525.157L123.464 525.723L124.031 525.667L123.985 525.209ZM125.478 525.135V524.675V525.135ZM139.52 533.815L139.118 534.039L139.409 534.561L139.839 534.147L139.52 533.815ZM162.586 525.135V524.675V525.135ZM186.553 534.726L186.218 535.041L186.332 535.162L186.497 535.182L186.553 534.726ZM201.853 547.132L201.4 547.214L201.486 547.687L201.955 547.58L201.853 547.132ZM225.318 544.606V544.147V544.606ZM259.005 550.193L258.841 550.623L259.241 550.776L259.422 550.388L259.005 550.193ZM282.121 535.867V535.407V535.867ZM304.939 549.581L304.529 549.788L304.695 550.119L305.054 550.026L304.939 549.581ZM311.556 548.746V548.286V548.746ZM331.986 558.654L331.621 558.934L331.8 559.168L332.088 559.103L331.986 558.654ZM388.307 553.12V552.66V553.12ZM476.603 577.201H477.062H476.603ZM388.307 601.281V601.741V601.281ZM324.258 593.775L324.385 593.333L324.201 593.281L324.035 593.373L324.258 593.775ZM311.556 597.038V597.498V597.038ZM288.735 583.322L289.146 583.116L288.98 582.784L288.62 582.877L288.735 583.322ZM282.121 584.159V584.619V584.159ZM270.259 581.343L270.467 580.933L270.212 580.803L269.983 580.975L270.259 581.343ZM225.318 592.897V593.357V592.897ZM175.228 576.219L175.603 575.953L175.406 575.675L175.083 575.782L175.228 576.219ZM115.396 584.159V584.619V584.159ZM64.8457 578.836L64.9533 578.389L64.8588 578.366L64.7633 578.383L64.8457 578.836ZM47.543 580.386V580.846V580.386ZM45.1279 580.355L45.1392 579.896L44.9111 579.89L44.7686 580.068L45.1279 580.355ZM16.5176 593.345V593.805V593.345ZM-1.66602 588.907L-1.45006 588.501L-1.81734 588.306L-2.04843 588.652L-1.66602 588.907ZM-31.7783 603.945V604.405V603.945ZM-43.2832 602.257L-43.1497 601.817L-43.3886 601.744L-43.5795 601.905L-43.2832 602.257ZM-78.3105 613.595V614.055V613.595ZM-123.073 583.557H-123.533H-123.073ZM-96.8818 556.218L-96.7471 556.658L-95.4878 556.272L-96.7136 555.79L-96.8818 556.218ZM-130.43 513.332H-130.89H-130.43ZM-106.923 475.425L-106.683 475.817L-106.161 475.498L-106.612 475.086L-106.923 475.425ZM-115.287 459.189L-115.747 459.189V459.189H-115.287ZM-23.1992 543.279L-22.7935 543.063L-23.0838 542.519L-23.5224 542.952L-23.1992 543.279ZM-24.5088 544.529L-24.8205 544.191L-25.4973 544.815L-24.592 544.982L-24.5088 544.529ZM-22.2285 545.018L-22.3386 545.464L-21.2859 545.724L-21.8309 544.786L-22.2285 545.018ZM941.629 266.16V266.62C1026.28 266.62 1094.81 327.879 1094.81 403.338H1095.27H1095.73C1095.73 327.275 1026.68 265.7 941.629 265.7V266.16ZM1095.27 403.338H1094.81C1094.81 478.797 1026.28 540.056 941.629 540.056V540.516V540.976C1026.68 540.976 1095.73 479.401 1095.73 403.338H1095.27ZM941.629 540.516V540.056C939.598 540.056 937.576 540.019 935.564 539.95L935.548 540.409L935.532 540.869C937.554 540.939 939.587 540.976 941.629 540.976V540.516ZM935.548 540.409L935.09 540.456C935.271 542.232 935.365 544.024 935.365 545.83H935.825H936.285C936.285 543.992 936.189 542.169 936.005 540.363L935.548 540.409ZM935.825 545.83H935.365C935.365 567.169 922.587 586.542 901.817 600.6C881.051 614.656 852.336 623.365 820.596 623.365V623.825V624.285C852.495 624.285 881.395 615.534 902.333 601.362C923.269 587.191 936.285 567.566 936.285 545.83H935.825ZM820.596 623.825V623.365C787.038 623.365 756.865 613.63 735.889 598.135L735.616 598.505L735.343 598.875C756.499 614.504 786.872 624.285 820.596 624.285V623.825ZM735.616 598.505L735.297 598.174C727.052 606.131 713.586 612.92 696.7 617.718C679.823 622.513 659.568 625.31 637.78 625.31V625.77V626.229C659.642 626.229 679.983 623.424 696.951 618.603C713.91 613.784 727.538 606.94 735.936 598.836L735.616 598.505ZM637.78 625.77V625.31C608.28 625.31 581.595 620.184 562.302 611.916C552.654 607.781 544.877 602.87 539.517 597.439C534.16 592.011 531.241 586.089 531.241 579.913H530.781H530.321C530.321 586.4 533.391 592.542 538.862 598.086C544.332 603.628 552.224 608.597 561.94 612.761C581.372 621.09 608.186 626.229 637.78 626.229V625.77ZM530.781 579.913H531.241C531.241 573.737 534.16 567.815 539.517 562.387C544.877 556.956 552.654 552.045 562.302 547.91C581.595 539.642 608.281 534.517 637.78 534.517V534.057V533.597C608.187 533.597 581.372 538.737 561.94 547.065C552.224 551.229 544.332 556.199 538.862 561.741C533.391 567.285 530.321 573.426 530.321 579.913H530.781ZM637.78 534.057V534.517C650.571 534.517 662.835 535.481 674.198 537.247L674.269 536.793L674.339 536.339C662.928 534.565 650.617 533.597 637.78 533.597V534.057ZM674.269 536.793L674.728 536.785C674.727 536.679 674.724 536.595 674.724 536.503H674.264H673.804C673.804 536.605 673.807 536.714 673.809 536.801L674.269 536.793ZM674.264 536.503H674.724C674.724 530.208 678.508 524.456 684.738 520.256C690.965 516.058 699.593 513.447 709.146 513.447V512.987V512.527C699.435 512.527 690.622 515.18 684.224 519.493C677.828 523.805 673.804 529.81 673.804 536.503H674.264ZM709.146 512.987V513.447C711.389 513.447 713.581 513.592 715.704 513.867L715.763 513.411L715.822 512.955C713.66 512.675 711.429 512.527 709.146 512.527V512.987ZM715.763 513.411L716.144 513.669C732.341 489.712 766.103 472.246 806.392 468.884L806.354 468.426L806.315 467.967C765.842 471.344 731.78 488.898 715.382 513.154L715.763 513.411ZM806.354 468.426L806.747 468.188C795.075 448.889 788.45 426.804 788.45 403.338H787.99H787.53C787.53 426.981 794.206 449.229 805.96 468.664L806.354 468.426ZM787.99 403.338H788.45C788.45 327.879 856.98 266.62 941.629 266.62V266.16V265.7C856.573 265.7 787.53 327.275 787.53 403.338H787.99ZM-32.0088 422.065V422.525C-9.1134 422.525 11.5968 426.654 26.587 433.313C34.0827 436.643 40.1282 440.597 44.3041 444.966C48.4778 449.333 50.7656 454.092 50.8067 459.054L51.2666 459.05L51.7265 459.046C51.683 453.788 49.2551 448.815 44.969 444.331C40.685 439.849 34.5264 435.834 26.9605 432.473C11.8276 425.75 -9.01531 421.606 -32.0088 421.606V422.065ZM51.2666 459.05L51.2492 459.509C91.7661 461.04 123.84 487.482 123.84 519.683H124.3H124.76C124.76 486.807 92.0916 460.132 51.284 458.59L51.2666 459.05ZM124.3 519.683H123.84C123.84 521.528 123.734 523.354 123.528 525.157L123.985 525.209L124.442 525.261C124.652 523.424 124.76 521.563 124.76 519.683H124.3ZM123.985 525.209L124.031 525.667C124.508 525.619 124.99 525.595 125.478 525.595V525.135V524.675C124.959 524.675 124.446 524.701 123.94 524.751L123.985 525.209ZM125.478 525.135V525.595C131.224 525.595 136.283 528.956 139.118 534.039L139.52 533.815L139.921 533.591C136.947 528.257 131.602 524.675 125.478 524.675V525.135ZM139.52 533.815L139.839 534.147C145.255 528.932 153.425 525.595 162.586 525.595V525.135V524.675C153.209 524.675 144.804 528.09 139.201 533.484L139.52 533.815ZM162.586 525.135V525.595C172.261 525.595 180.829 529.317 186.218 535.041L186.553 534.726L186.888 534.41C181.308 528.483 172.488 524.675 162.586 524.675V525.135ZM186.553 534.726L186.497 535.182C194.26 536.133 200.287 541.081 201.4 547.214L201.853 547.132L202.305 547.05C201.101 540.413 194.652 535.254 186.609 534.269L186.553 534.726ZM201.853 547.132L201.955 547.58C208.985 545.973 216.919 545.066 225.318 545.066V544.606V544.147C216.855 544.147 208.851 545.06 201.75 546.683L201.853 547.132ZM225.318 544.606V545.066C238.085 545.066 249.771 547.158 258.841 550.623L259.005 550.193L259.169 549.764C249.978 546.253 238.178 544.147 225.318 544.147V544.606ZM259.005 550.193L259.422 550.388C263.287 542.11 271.99 536.327 282.121 536.327V535.867V535.407C271.638 535.407 262.606 541.393 258.588 549.999L259.005 550.193ZM282.121 535.867V536.327C292.005 536.327 300.53 541.832 304.529 549.788L304.939 549.581L305.35 549.375C301.194 541.105 292.349 535.407 282.121 535.407V535.867ZM304.939 549.581L305.054 550.026C307.126 549.492 309.306 549.206 311.556 549.206V548.746V548.286C309.227 548.286 306.971 548.582 304.825 549.136L304.939 549.581ZM311.556 548.746V549.206C319.804 549.206 327.106 553.041 331.621 558.934L331.986 558.654L332.351 558.375C327.663 552.256 320.092 548.286 311.556 548.286V548.746ZM331.986 558.654L332.088 559.103C347.333 555.656 366.926 553.58 388.307 553.58V553.12V552.66C366.873 552.66 347.21 554.74 331.885 558.206L331.986 558.654ZM388.307 553.12V553.58C412.66 553.58 434.691 556.273 450.62 560.617C458.588 562.79 465.003 565.37 469.415 568.214C473.847 571.073 476.143 574.12 476.143 577.201H476.603H477.062C477.062 573.633 474.417 570.345 469.913 567.441C465.389 564.524 458.873 561.914 450.862 559.73C434.834 555.358 412.718 552.66 388.307 552.66V553.12ZM476.603 577.201H476.143C476.143 580.282 473.847 583.33 469.414 586.188C465.002 589.033 458.588 591.612 450.62 593.785C434.691 598.129 412.66 600.821 388.307 600.821V601.281V601.741C412.717 601.741 434.834 599.043 450.862 594.672C458.873 592.487 465.389 589.878 469.913 586.961C474.416 584.057 477.062 580.77 477.062 577.201H476.603ZM388.307 601.281V600.821C363.121 600.821 340.421 597.941 324.385 593.333L324.258 593.775L324.131 594.217C340.272 598.855 363.063 601.741 388.307 601.741V601.281ZM324.258 593.775L324.035 593.373C320.369 595.409 316.107 596.578 311.556 596.578V597.038V597.498C316.265 597.498 320.681 596.288 324.481 594.177L324.258 593.775ZM311.556 597.038V596.578C301.671 596.578 293.145 591.072 289.146 583.116L288.735 583.322L288.324 583.529C292.481 591.799 301.327 597.498 311.556 597.498V597.038ZM288.735 583.322L288.62 582.877C286.549 583.411 284.37 583.699 282.121 583.699V584.159V584.619C284.449 584.619 286.705 584.321 288.85 583.768L288.735 583.322ZM282.121 584.159V583.699C277.908 583.699 273.942 582.697 270.467 580.933L270.259 581.343L270.051 581.753C273.652 583.582 277.761 584.619 282.121 584.619V584.159ZM270.259 581.343L269.983 580.975C260.837 587.822 244.285 592.437 225.318 592.438V592.897V593.357C244.393 593.357 261.169 588.723 270.534 581.711L270.259 581.343ZM225.318 592.897V592.438C213.662 592.438 202.905 590.694 194.219 587.752C185.518 584.806 178.952 580.678 175.603 575.953L175.228 576.219L174.852 576.485C178.364 581.439 185.143 585.65 193.923 588.624C202.717 591.602 213.576 593.357 225.318 593.357V592.897ZM175.228 576.219L175.083 575.782C160.375 580.638 139.091 583.699 115.396 583.699V584.159V584.619C139.156 584.619 160.543 581.551 175.372 576.655L175.228 576.219ZM115.396 584.159V583.699C96.289 583.699 78.7461 581.707 64.9533 578.389L64.8457 578.836L64.7381 579.283C78.614 582.622 96.2308 584.619 115.396 584.619V584.159ZM64.8457 578.836L64.7633 578.383C59.2295 579.392 53.4654 579.926 47.543 579.926V580.386V580.846C53.5207 580.846 59.34 580.307 64.9281 579.288L64.8457 578.836ZM47.543 580.386V579.926C46.7391 579.926 45.9377 579.915 45.1392 579.896L45.1279 580.355L45.1167 580.815C45.9221 580.835 46.731 580.846 47.543 580.846V580.386ZM45.1279 580.355L44.7686 580.068C38.5923 587.798 28.2535 592.885 16.5176 592.885V593.345V593.805C28.5139 593.805 39.1247 588.605 45.4872 580.643L45.1279 580.355ZM16.5176 593.345V592.885C9.92581 592.885 3.77267 591.279 -1.45006 588.501L-1.66602 588.907L-1.88197 589.313C3.47485 592.162 9.77646 593.805 16.5176 593.805V593.345ZM-1.66602 588.907L-2.04843 588.652C-7.96123 597.501 -19.0472 603.485 -31.7783 603.485V603.945V604.405C-18.7673 604.405 -7.38168 598.29 -1.2836 589.163L-1.66602 588.907ZM-31.7783 603.945V603.485C-35.7654 603.485 -39.5918 602.896 -43.1497 601.817L-43.2832 602.257L-43.4167 602.697C-39.7725 603.802 -35.8563 604.405 -31.7783 604.405V603.945ZM-43.2832 602.257L-43.5795 601.905C-51.6832 608.731 -64.2137 613.135 -78.3105 613.135V613.595V614.055C-64.0384 614.055 -51.2857 609.599 -42.9869 602.609L-43.2832 602.257ZM-78.3105 613.595V613.135C-90.5925 613.135 -101.691 609.793 -109.706 604.415C-117.724 599.034 -122.613 591.651 -122.613 583.557H-123.073H-123.533C-123.533 592.052 -118.402 599.687 -110.219 605.179C-102.033 610.672 -90.75 614.055 -78.3105 614.055V613.595ZM-123.073 583.557H-122.613C-122.613 571.71 -112.115 561.366 -96.7471 556.658L-96.8818 556.218L-97.0166 555.778C-112.553 560.538 -123.533 571.116 -123.533 583.557H-123.073ZM-96.8818 556.218L-96.7136 555.79C-116.472 548.022 -129.97 531.894 -129.97 513.332H-130.43H-130.89C-130.89 532.378 -117.05 548.783 -97.0501 556.646L-96.8818 556.218ZM-130.43 513.332H-129.97C-129.97 498.092 -120.876 484.5 -106.683 475.817L-106.923 475.425L-107.163 475.032C-121.561 483.841 -130.89 497.7 -130.89 513.332H-130.43ZM-106.923 475.425L-106.612 475.086C-111.911 470.236 -114.827 464.841 -114.827 459.189H-115.287H-115.747C-115.747 465.182 -112.651 470.805 -107.233 475.764L-106.923 475.425ZM-115.287 459.189L-114.827 459.189C-114.827 454.213 -112.566 449.438 -108.409 445.056C-104.249 440.671 -98.208 436.702 -90.708 433.359C-75.7092 426.673 -54.9564 422.525 -32.0088 422.525V422.065V421.606C-55.0546 421.606 -75.9407 425.769 -91.0826 432.519C-98.653 435.893 -104.808 439.924 -109.076 444.423C-113.347 448.924 -115.747 453.915 -115.747 459.189L-115.287 459.189ZM-23.1992 543.279L-23.5224 542.952C-23.9466 543.371 -24.3792 543.784 -24.8205 544.191L-24.5088 544.529L-24.1971 544.867C-23.7477 544.453 -23.3075 544.033 -22.8761 543.607L-23.1992 543.279ZM-24.5088 544.529L-24.592 544.982C-23.8306 545.122 -23.0789 545.282 -22.3386 545.464L-22.2285 545.018L-22.1184 544.571C-22.878 544.384 -23.6476 544.22 -24.4256 544.077L-24.5088 544.529ZM-22.2285 545.018L-21.8309 544.786C-22.1628 544.216 -22.4844 543.642 -22.7935 543.063L-23.1992 543.279L-23.6049 543.496C-23.29 544.086 -22.9629 544.67 -22.6261 545.249L-22.2285 545.018Z"
            fill="#0A0602" mask="url(#path-3-inside-2_0_1)" />
    </g>
    <defs>
        <radialGradient id="paint0_radial_0_1" cx="0" cy="0" r="1" gradientUnits="userSpaceOnUse"
            gradientTransform="translate(1133.8 314.323) rotate(90) scale(1423.76 1423.77)">
            <stop stop-color="#C80002" />
            <stop offset="1" stop-color="#790001" />
        </radialGradient>
    </defs>
</svg>