<?xml version="1.0" encoding="UTF-8"?>
<svg id="a" data-name="レイヤー 1" xmlns="http://www.w3.org/2000/svg" viewBox="0 0 2237 356.82">
  <defs>
    <style>
      .b {
        fill: #f33900;
      }
    </style>
  </defs>
  <path class="b" d="M0,0v356.82c28.59-3.32,58.62-14.09,62-40.32,0-1.95-.26-3.87-.77-5.76l-.24-.88.85-.32c36.93-13.69,62.15-42.47,62.15-75.55,0-27.61-17.55-52.21-44.84-67.56l-.78-.44.35-.83c7.24-17,11.27-35.84,11.27-55.68,0-9.93-1.01-19.61-2.93-28.94l-.19-.94.93-.24c17.33-4.4,32.4-12.6,43.57-23.29l.56-.53.66.4c12.62,7.75,28.12,12.74,45.04,13.81l.58.04.25.53c14.17,29.42,50.13,50.45,92.41,50.45,35.19,0,66.02-14.57,83.53-36.43l.45-.57.68.26c10.11,3.82,21.24,5.95,32.95,5.95,10.84,0,21.2-1.82,30.69-5.13l.69-.24.44.58c11.25,14.82,31.64,24.8,54.99,24.8,31.23,0,57.05-17.8,63.01-41.15l.13-.51.49-.18c6.63-2.46,12.22-6.38,16.17-11.21l.27-.33.42-.04c2.69-.23,5.4-.51,8.13-.87,36.67-5.48,83.17-21.63,89.21-55.72H0Z"/>
  <path class="b" d="M2237,0h-680.95c6.11,18.14,33.27,23.59,53.95,24,2.08,0,4.14-.06,6.16-.18l1.21-.07-.16,1.2c-.14,1.01-.21,2.02-.21,3.05,4.31,32.96,49.35,42.3,83,43,25.79,0,48.77-6.12,63.99-15.67l.56-.35.54.38c19.09,13.4,44.93,21.64,73.41,21.64,31.07,0,58.99-9.81,78.43-25.41l.98-.78.55,1.12c15.23,31.07,45.79,54.38,82.81,61.67l.75.15.05.77c1.27,18.51,20.06,33.49,43.43,33.49,4.87,0,9.54-.65,13.91-1.86l.65-.18.41.54c26.26,34.57,66.11,60.28,112.73,71l.95.22-.2.96c-1.27,6.03-1.95,12.33-1.95,18.81,0,41.64,27.82,75.47,62.78,78.29.74.04,1.48.06,2.22.08V0Z"/>
</svg>