<?xml version="1.0" encoding="UTF-8"?>
<svg id="a" data-name="レイヤー 1" xmlns="http://www.w3.org/2000/svg" viewBox="0 0 880 310.93">
  <defs>
    <style>
      .b {
        fill: #0a0602;
      }
    </style>
  </defs>
  <path class="b" d="M485.6,0c12.74,5.21,27.33,9.1,43.02,11.13,2.63.34,5.25.62,7.84.84,4.09,4.88,9.72,8.81,16.31,11.34,6.5,24.3,33.26,42.3,65.03,42.3,15.04,0,28.93-4.03,40.09-10.84,7.83,3.42,16.33,5.81,25.28,6.98,5.52,40.58,48.62,71.87,100.61,71.87,8.61,0,16.97-.87,24.96-2.48.51,35.97,30.47,66.08,71.27,76.13V0h-394.4Z"/>
  <path class="b" d="M0,0v310.93c6.59-1.95,12.64-4.36,17.95-7.16,14.74-7.78,24.19-18.71,24.19-31.04,0-1.84-.22-3.64-.63-5.42,37.1-14.04,62.84-43.31,62.84-77.36,0-28.35-17.86-53.4-45.25-69.09,7.15-17.09,11.13-35.97,11.13-55.83,0-9.77-.97-19.31-2.8-28.51,4.38-1.15,8.62-2.54,12.69-4.14,7.88,2.54,16.33,4.19,25.16,4.8,14.79,30.07,51.49,51.23,94.27,51.23,51.99,0,95.09-31.29,100.61-71.87,8.95-1.17,17.45-3.56,25.28-6.98,11.16,6.81,25.05,10.84,40.09,10.84,21.1,0,39.97-7.94,52.18-20.39H0Z"/>
</svg>