<svg width="880" height="383" viewBox="0 0 880 383" fill="none" xmlns="http://www.w3.org/2000/svg">
    <g filter="url(#filter0_n_0_1)">
        <mask id="path-1-inside-1_0_1" fill="white">
            <path
                d="M517.233 -131.046C588.44 -131.046 646.165 -84.5522 646.165 -27.1987C646.165 -8.16493 639.805 9.67096 628.707 25.0103C642.534 30.5862 653.566 39.9805 659.665 51.4722C664.316 49.4602 669.371 48.355 674.655 48.355C683.223 48.3551 691.186 51.2559 697.806 56.2271C705.949 48.2872 715.98 41.6185 727.354 36.6538C741.236 21.4213 762.767 11.6412 786.94 11.6411C807.195 11.6411 825.594 18.5078 839.192 29.6938C852.663 19.0834 870.577 12.6147 890.237 12.6147C897.067 12.6148 903.686 13.3951 909.98 14.8589C921.702 -12.512 959.289 -32.5376 1003.85 -32.5376C1057.78 -32.5375 1101.5 -3.19875 1101.5 32.9927C1101.5 61.0188 1075.28 84.9348 1038.41 94.3003C1079.56 111.928 1107.52 146.468 1107.52 186.195C1107.52 236.686 1062.35 278.801 1002.34 288.46C1024.45 297.262 1039.29 313.547 1039.29 332.183C1039.29 360.167 1005.83 382.853 964.542 382.853C923.259 382.853 889.792 360.167 889.792 332.183C889.792 311.179 908.646 293.159 935.509 285.477C894.188 274.842 861.835 248.4 849.765 215.136C820.461 209.354 796.779 198.93 783.392 185.952C780.795 186.112 778.171 186.195 775.523 186.195C735.354 186.195 700.705 167.411 684.719 140.291C681.496 141.187 678.126 141.666 674.655 141.667C658.113 141.667 643.822 130.858 637.104 115.2C626.435 121.253 613.417 124.81 599.365 124.81C564.7 124.81 536.322 103.17 533.99 75.7778C528.505 76.3512 522.912 76.6489 517.233 76.6489C485.205 76.6488 455.905 67.2409 433.357 51.6704C410.81 67.2405 381.511 76.6489 349.482 76.6489C343.804 76.6489 338.211 76.3511 332.727 75.7778C330.395 103.17 302.018 124.81 267.353 124.81C253.3 124.81 240.28 121.253 229.61 115.199C222.893 130.857 208.604 141.667 192.062 141.667C188.591 141.667 185.22 141.188 181.997 140.292C166.011 167.411 131.363 186.195 91.1943 186.195C62.4574 186.195 36.5462 176.58 18.2715 161.178C20.7555 169.193 22.0742 177.572 22.0742 186.195C22.0742 200.786 18.2996 214.676 11.4873 227.287C60.5461 235.803 95.3192 257.095 95.3193 282.014C95.3193 305.597 64.1754 325.93 19.2529 335.262C12.1399 347.326 -4.1335 355.762 -23.0752 355.762C-25.8611 355.762 -28.5893 355.579 -31.2393 355.229C-43.6158 371.627 -68.7874 382.853 -97.8271 382.853C-139.11 382.853 -172.577 360.167 -172.577 332.183C-172.577 321.31 -167.524 311.236 -158.924 302.983C-164.503 296.471 -167.561 289.402 -167.561 282.014C-167.561 281.279 -167.531 280.547 -167.471 279.819C-210.919 262.791 -240.806 227.265 -240.806 186.195C-240.806 146.469 -212.842 111.928 -171.69 94.3003C-208.565 84.9347 -234.783 61.0187 -234.783 32.9927C-234.783 -3.1988 -191.062 -32.5376 -137.13 -32.5376C-92.5728 -32.5375 -54.987 -12.5117 -43.2656 14.8589C-36.9705 13.395 -30.3515 12.6148 -23.5215 12.6147C-3.86131 12.6147 14.0506 19.0839 27.5215 29.6938C41.1204 18.5073 59.5199 11.6411 79.7744 11.6411C103.946 11.6411 125.476 21.4209 139.357 36.6519C150.734 41.6165 160.765 48.2855 168.91 56.2261C175.53 51.2549 183.493 48.355 192.062 48.355C197.346 48.355 202.399 49.4604 207.051 51.4722C213.149 39.9807 224.182 30.5873 238.009 25.0112C226.911 9.67184 220.551 -8.16478 220.551 -27.1987C220.551 -84.5521 278.276 -131.046 349.482 -131.046C381.511 -131.046 410.81 -121.639 433.357 -106.069C455.904 -121.639 485.205 -131.046 517.233 -131.046Z" />
        </mask>
        <path
            d="M517.233 -131.046C588.44 -131.046 646.165 -84.5522 646.165 -27.1987C646.165 -8.16493 639.805 9.67096 628.707 25.0103C642.534 30.5862 653.566 39.9805 659.665 51.4722C664.316 49.4602 669.371 48.355 674.655 48.355C683.223 48.3551 691.186 51.2559 697.806 56.2271C705.949 48.2872 715.98 41.6185 727.354 36.6538C741.236 21.4213 762.767 11.6412 786.94 11.6411C807.195 11.6411 825.594 18.5078 839.192 29.6938C852.663 19.0834 870.577 12.6147 890.237 12.6147C897.067 12.6148 903.686 13.3951 909.98 14.8589C921.702 -12.512 959.289 -32.5376 1003.85 -32.5376C1057.78 -32.5375 1101.5 -3.19875 1101.5 32.9927C1101.5 61.0188 1075.28 84.9348 1038.41 94.3003C1079.56 111.928 1107.52 146.468 1107.52 186.195C1107.52 236.686 1062.35 278.801 1002.34 288.46C1024.45 297.262 1039.29 313.547 1039.29 332.183C1039.29 360.167 1005.83 382.853 964.542 382.853C923.259 382.853 889.792 360.167 889.792 332.183C889.792 311.179 908.646 293.159 935.509 285.477C894.188 274.842 861.835 248.4 849.765 215.136C820.461 209.354 796.779 198.93 783.392 185.952C780.795 186.112 778.171 186.195 775.523 186.195C735.354 186.195 700.705 167.411 684.719 140.291C681.496 141.187 678.126 141.666 674.655 141.667C658.113 141.667 643.822 130.858 637.104 115.2C626.435 121.253 613.417 124.81 599.365 124.81C564.7 124.81 536.322 103.17 533.99 75.7778C528.505 76.3512 522.912 76.6489 517.233 76.6489C485.205 76.6488 455.905 67.2409 433.357 51.6704C410.81 67.2405 381.511 76.6489 349.482 76.6489C343.804 76.6489 338.211 76.3511 332.727 75.7778C330.395 103.17 302.018 124.81 267.353 124.81C253.3 124.81 240.28 121.253 229.61 115.199C222.893 130.857 208.604 141.667 192.062 141.667C188.591 141.667 185.22 141.188 181.997 140.292C166.011 167.411 131.363 186.195 91.1943 186.195C62.4574 186.195 36.5462 176.58 18.2715 161.178C20.7555 169.193 22.0742 177.572 22.0742 186.195C22.0742 200.786 18.2996 214.676 11.4873 227.287C60.5461 235.803 95.3192 257.095 95.3193 282.014C95.3193 305.597 64.1754 325.93 19.2529 335.262C12.1399 347.326 -4.1335 355.762 -23.0752 355.762C-25.8611 355.762 -28.5893 355.579 -31.2393 355.229C-43.6158 371.627 -68.7874 382.853 -97.8271 382.853C-139.11 382.853 -172.577 360.167 -172.577 332.183C-172.577 321.31 -167.524 311.236 -158.924 302.983C-164.503 296.471 -167.561 289.402 -167.561 282.014C-167.561 281.279 -167.531 280.547 -167.471 279.819C-210.919 262.791 -240.806 227.265 -240.806 186.195C-240.806 146.469 -212.842 111.928 -171.69 94.3003C-208.565 84.9347 -234.783 61.0187 -234.783 32.9927C-234.783 -3.1988 -191.062 -32.5376 -137.13 -32.5376C-92.5728 -32.5375 -54.987 -12.5117 -43.2656 14.8589C-36.9705 13.395 -30.3515 12.6148 -23.5215 12.6147C-3.86131 12.6147 14.0506 19.0839 27.5215 29.6938C41.1204 18.5073 59.5199 11.6411 79.7744 11.6411C103.946 11.6411 125.476 21.4209 139.357 36.6519C150.734 41.6165 160.765 48.2855 168.91 56.2261C175.53 51.2549 183.493 48.355 192.062 48.355C197.346 48.355 202.399 49.4604 207.051 51.4722C213.149 39.9807 224.182 30.5873 238.009 25.0112C226.911 9.67184 220.551 -8.16478 220.551 -27.1987C220.551 -84.5521 278.276 -131.046 349.482 -131.046C381.511 -131.046 410.81 -121.639 433.357 -106.069C455.904 -121.639 485.205 -131.046 517.233 -131.046Z"
            fill="url(#paint0_radial_0_1)" />
        <path
            d="M517.233 -131.046V-132.05V-131.046ZM646.165 -27.1987H647.168H646.165ZM628.707 25.0103L627.894 24.4221L627.142 25.4612L628.332 25.9408L628.707 25.0103ZM659.665 51.4722L658.779 51.9425L659.213 52.7609L660.063 52.3931L659.665 51.4722ZM674.655 48.355V47.3516V48.355ZM697.806 56.2271L697.203 57.0294L697.891 57.5456L698.506 56.9455L697.806 56.2271ZM727.354 36.6538L727.756 37.5734L727.952 37.4878L728.096 37.3296L727.354 36.6538ZM786.94 11.6411V10.6378V11.6411ZM839.192 29.6938L838.555 30.4687L839.179 30.9818L839.813 30.4821L839.192 29.6938ZM890.237 12.6147V11.6114V12.6147ZM909.98 14.8589L909.753 15.8362L910.572 16.0266L910.903 15.2539L909.98 14.8589ZM1003.85 -32.5376V-33.541V-32.5376ZM1101.5 32.9927H1102.5H1101.5ZM1038.41 94.3003L1038.16 93.3278L1035.29 94.0567L1038.01 95.2226L1038.41 94.3003ZM1107.52 186.195H1108.53H1107.52ZM1002.34 288.46L1002.18 287.47L998.591 288.048L1001.97 289.393L1002.34 288.46ZM1039.29 332.183H1040.3H1039.29ZM964.542 382.853V383.856V382.853ZM889.792 332.183H888.789H889.792ZM935.509 285.477L935.785 286.442L939.336 285.426L935.759 284.505L935.509 285.477ZM849.765 215.136L850.708 214.794L850.515 214.262L849.959 214.152L849.765 215.136ZM783.392 185.952L784.09 185.231L783.772 184.923L783.33 184.95L783.392 185.952ZM775.523 186.195V187.198V186.195ZM684.719 140.291L685.583 139.781L685.192 139.117L684.45 139.324L684.719 140.291ZM674.655 141.667V142.67V141.667ZM637.104 115.2L638.027 114.804L637.585 113.774L636.609 114.327L637.104 115.2ZM599.365 124.81V125.813V124.81ZM533.99 75.7778L534.99 75.6927L534.903 74.6736L533.886 74.7799L533.99 75.7778ZM517.233 76.6489V77.6523V76.6489ZM433.357 51.6704L433.928 50.8448L433.357 50.4511L432.787 50.8448L433.357 51.6704ZM349.482 76.6489V77.6523V76.6489ZM332.727 75.7778L332.831 74.7799L331.814 74.6736L331.727 75.6927L332.727 75.7778ZM267.353 124.81V125.813V124.81ZM229.61 115.199L230.105 114.326L229.13 113.773L228.688 114.803L229.61 115.199ZM192.062 141.667V142.67V141.667ZM181.997 140.292L182.266 139.325L181.524 139.118L181.133 139.782L181.997 140.292ZM91.1943 186.195V187.198V186.195ZM18.2715 161.178L18.9181 160.411L16.2992 158.204L17.3131 161.475L18.2715 161.178ZM22.0742 186.195H23.0776H22.0742ZM11.4873 227.287L10.6045 226.81L9.94174 228.037L11.3157 228.275L11.4873 227.287ZM95.3193 282.014H96.3227H95.3193ZM19.2529 335.262L19.0489 334.28L18.6141 334.37L18.3886 334.753L19.2529 335.262ZM-23.0752 355.762V356.766V355.762ZM-31.2393 355.229L-31.108 354.234L-31.6878 354.158L-32.0401 354.625L-31.2393 355.229ZM-97.8271 382.853V383.856V382.853ZM-172.577 332.183H-173.581H-172.577ZM-158.924 302.983L-158.229 303.707L-157.545 303.05L-158.162 302.33L-158.924 302.983ZM-167.561 282.014H-168.564H-167.561ZM-167.471 279.819L-166.471 279.901L-166.409 279.157L-167.105 278.885L-167.471 279.819ZM-240.806 186.195H-241.809H-240.806ZM-171.69 94.3003L-171.295 95.2226L-168.574 94.0567L-171.443 93.3278L-171.69 94.3003ZM-234.783 32.9927H-235.787H-234.783ZM-137.13 -32.5376V-33.541V-32.5376ZM-43.2656 14.8589L-44.188 15.2539L-43.8571 16.0266L-43.0384 15.8362L-43.2656 14.8589ZM-23.5215 12.6147V11.6114V12.6147ZM27.5215 29.6938L26.9007 30.4821L27.5352 30.9818L28.1589 30.4687L27.5215 29.6938ZM79.7744 11.6411V10.6378V11.6411ZM139.357 36.6519L138.616 37.3277L138.76 37.4859L138.956 37.5715L139.357 36.6519ZM168.91 56.2261L168.21 56.9445L168.825 57.5446L169.513 57.0284L168.91 56.2261ZM192.062 48.355V47.3516V48.355ZM207.051 51.4722L206.652 52.3931L207.503 52.7608L207.937 51.9425L207.051 51.4722ZM238.009 25.0112L238.384 25.9418L239.573 25.4621L238.822 24.4231L238.009 25.0112ZM220.551 -27.1987H219.547H220.551ZM349.482 -131.046V-132.05V-131.046ZM433.357 -106.069L432.787 -105.243L433.357 -104.849L433.928 -105.243L433.357 -106.069ZM517.233 -131.046V-130.043C588.1 -130.043 645.162 -83.8062 645.162 -27.1987H646.165H647.168C647.168 -85.2981 588.781 -132.05 517.233 -132.05V-131.046ZM646.165 -27.1987H645.162C645.162 -8.39622 638.881 9.23691 627.894 24.4221L628.707 25.0103L629.52 25.5984C640.73 10.105 647.168 -7.93365 647.168 -27.1987H646.165ZM628.707 25.0103L628.332 25.9408C641.976 31.4428 652.808 40.6916 658.779 51.9425L659.665 51.4722L660.551 51.0018C654.325 39.2694 643.093 29.7295 629.082 24.0797L628.707 25.0103ZM659.665 51.4722L660.063 52.3931C664.593 50.4336 669.512 49.3583 674.655 49.3583V48.355V47.3516C669.229 47.3516 664.039 48.4868 659.267 50.5513L659.665 51.4722ZM674.655 48.355V49.3583C682.99 49.3584 690.744 52.179 697.203 57.0294L697.806 56.2271L698.408 55.4247C691.627 50.3328 683.456 47.3517 674.655 47.3516V48.355ZM697.806 56.2271L698.506 56.9455C706.557 49.0964 716.484 42.4933 727.756 37.5734L727.354 36.6538L726.953 35.7342C715.476 40.7436 705.342 47.478 697.105 55.5086L697.806 56.2271ZM727.354 36.6538L728.096 37.3296C741.777 22.3172 763.034 12.6446 786.94 12.6445V11.6411V10.6378C762.501 10.6379 740.695 20.5255 726.613 35.978L727.354 36.6538ZM786.94 11.6411V12.6445C806.969 12.6445 825.141 19.4349 838.555 30.4687L839.192 29.6938L839.83 28.919C826.046 17.5806 807.42 10.6378 786.94 10.6378V11.6411ZM839.192 29.6938L839.813 30.4821C853.102 20.0149 870.795 13.6181 890.237 13.6181V12.6147V11.6114C870.358 11.6114 852.224 18.1519 838.572 28.9056L839.192 29.6938ZM890.237 12.6147V13.6181C896.99 13.6181 903.533 14.3897 909.753 15.8362L909.98 14.8589L910.208 13.8816C903.838 12.4005 897.143 11.6114 890.237 11.6114V12.6147ZM909.98 14.8589L910.903 15.2539C922.403 -11.6007 959.502 -31.5342 1003.85 -31.5342V-32.5376V-33.541C959.077 -33.541 921 -13.4233 909.058 14.4639L909.98 14.8589ZM1003.85 -32.5376V-31.5342C1030.64 -31.5342 1054.85 -24.2444 1072.34 -12.5111C1089.83 -0.773392 1100.5 15.3337 1100.5 32.9927H1101.5H1102.5C1102.5 14.4602 1091.31 -2.19778 1073.46 -14.1774C1055.6 -26.1613 1030.98 -33.5409 1003.85 -33.541V-32.5376ZM1101.5 32.9927H1100.5C1100.5 60.334 1074.85 84.008 1038.16 93.3278L1038.41 94.3003L1038.65 95.2728C1075.71 85.8616 1102.5 61.7036 1102.5 32.9927H1101.5ZM1038.41 94.3003L1038.01 95.2226C1078.91 112.74 1106.52 146.979 1106.52 186.195H1107.52H1108.53C1108.53 145.958 1080.21 111.116 1038.8 93.378L1038.41 94.3003ZM1107.52 186.195H1106.52C1106.52 236.028 1061.89 277.859 1002.18 287.47L1002.34 288.46L1002.5 289.451C1062.81 279.743 1108.53 237.344 1108.53 186.195H1107.52ZM1002.34 288.46L1001.97 289.393C1023.89 298.117 1038.29 314.129 1038.29 332.183H1039.29H1040.3C1040.3 312.965 1025.01 296.406 1002.71 287.528L1002.34 288.46ZM1039.29 332.183H1038.29C1038.29 345.743 1030.18 358.135 1016.84 367.182C1003.5 376.224 985.01 381.85 964.542 381.85V382.853V383.856C985.358 383.856 1004.25 378.139 1017.96 368.843C1031.67 359.55 1040.3 346.607 1040.3 332.183H1039.29ZM964.542 382.853V381.85C944.074 381.85 925.589 376.224 912.249 367.181C898.903 358.135 890.795 345.743 890.795 332.183H889.792H888.789C888.789 346.607 897.414 359.55 911.123 368.843C924.837 378.139 943.726 383.856 964.542 383.856V382.853ZM889.792 332.183H890.795C890.795 311.836 909.111 294.07 935.785 286.442L935.509 285.477L935.233 284.512C908.182 292.248 888.789 310.521 888.789 332.183H889.792ZM935.509 285.477L935.759 284.505C894.681 273.933 862.641 247.678 850.708 214.794L849.765 215.136L848.821 215.478C861.03 249.123 893.695 275.751 935.259 286.449L935.509 285.477ZM849.765 215.136L849.959 214.152C820.741 208.387 797.278 198.017 784.09 185.231L783.392 185.952L782.693 186.672C796.28 199.844 820.18 210.321 849.57 216.121L849.765 215.136ZM783.392 185.952L783.33 184.95C780.754 185.109 778.151 185.191 775.523 185.191V186.195V187.198C778.192 187.198 780.837 187.115 783.453 186.953L783.392 185.952ZM775.523 186.195V185.191C735.641 185.191 701.357 166.54 685.583 139.781L684.719 140.291L683.854 140.8C700.053 168.281 735.068 187.198 775.523 187.198V186.195ZM684.719 140.291L684.45 139.324C681.312 140.197 678.033 140.663 674.655 140.663V141.667V142.67C678.219 142.67 681.679 142.177 684.988 141.257L684.719 140.291ZM674.655 141.667V140.663C658.577 140.663 644.613 130.156 638.027 114.804L637.104 115.2L636.182 115.595C643.032 131.561 657.648 142.67 674.655 142.67V141.667ZM637.104 115.2L636.609 114.327C626.096 120.292 613.249 123.807 599.365 123.807V124.81V125.813C613.585 125.813 626.774 122.214 637.6 116.072L637.104 115.2ZM599.365 124.81V123.807C565.036 123.807 537.263 102.4 534.99 75.6927L533.99 75.7778L532.99 75.8629C535.38 103.941 564.364 125.813 599.365 125.813V124.81ZM533.99 75.7778L533.886 74.7799C528.435 75.3497 522.877 75.6456 517.233 75.6456V76.6489V77.6523C522.947 77.6523 528.575 77.3527 534.095 76.7758L533.99 75.7778ZM517.233 76.6489V75.6456C485.398 75.6455 456.299 66.2938 433.928 50.8448L433.357 51.6704L432.787 52.496C455.51 68.1879 485.011 77.6522 517.233 77.6523V76.6489ZM433.357 51.6704L432.787 50.8448C410.416 66.2935 381.317 75.6456 349.482 75.6456V76.6489V77.6523C381.704 77.6523 411.205 68.1875 433.928 52.496L433.357 51.6704ZM349.482 76.6489V75.6456C343.839 75.6456 338.281 75.3496 332.831 74.7799L332.727 75.7778L332.622 76.7758C338.141 77.3527 343.769 77.6523 349.482 77.6523V76.6489ZM332.727 75.7778L331.727 75.6927C329.453 102.4 301.682 123.807 267.353 123.807V124.81V125.813C302.354 125.813 331.336 103.941 333.726 75.8629L332.727 75.7778ZM267.353 124.81V123.807C253.468 123.807 240.62 120.291 230.105 114.326L229.61 115.199L229.115 116.071C239.941 122.214 253.132 125.813 267.353 125.813V124.81ZM229.61 115.199L228.688 114.803C222.102 130.155 208.14 140.663 192.062 140.663V141.667V142.67C209.069 142.67 223.683 131.56 230.532 115.594L229.61 115.199ZM192.062 141.667V140.663C188.684 140.663 185.403 140.198 182.266 139.325L181.997 140.292L181.728 141.258C185.037 142.178 188.498 142.67 192.062 142.67V141.667ZM181.997 140.292L181.133 139.782C165.359 166.541 131.076 185.191 91.1943 185.191V186.195V187.198C131.649 187.198 166.662 168.281 182.861 140.801L181.997 140.292ZM91.1943 186.195V185.191C62.675 185.191 36.9979 175.649 18.9181 160.411L18.2715 161.178L17.6249 161.945C36.0946 177.512 62.2397 187.198 91.1943 187.198V186.195ZM18.2715 161.178L17.3131 161.475C19.7681 169.396 21.0709 177.675 21.0709 186.195H22.0742H23.0776C23.0776 177.468 21.743 168.99 19.2299 160.881L18.2715 161.178ZM22.0742 186.195H21.0709C21.0709 200.609 17.3429 214.336 10.6045 226.81L11.4873 227.287L12.3701 227.763C19.2563 215.016 23.0776 200.963 23.0776 186.195H22.0742ZM11.4873 227.287L11.3157 228.275C35.7597 232.519 56.5794 239.936 71.2589 249.344C85.9675 258.772 94.3159 270.059 94.316 282.014H95.3193H96.3227C96.3226 269.05 87.2844 257.232 72.3417 247.655C57.37 238.059 36.2738 230.571 11.6589 226.298L11.4873 227.287ZM95.3193 282.014H94.316C94.316 293.328 86.8423 304.042 73.5643 313.155C60.3066 322.254 41.4271 329.631 19.0489 334.28L19.2529 335.262L19.457 336.245C42.0013 331.561 61.155 324.106 74.6998 314.81C88.2244 305.527 96.3227 294.283 96.3227 282.014H95.3193ZM19.2529 335.262L18.3886 334.753C11.5007 346.435 -4.39081 354.759 -23.0752 354.759V355.762V356.766C-3.87617 356.766 12.7791 348.218 20.1172 335.772L19.2529 335.262ZM-23.0752 355.762V354.759C-25.8171 354.759 -28.5014 354.578 -31.108 354.234L-31.2393 355.229L-31.3705 356.224C-28.6772 356.579 -25.9052 356.766 -23.0752 356.766V355.762ZM-31.2393 355.229L-32.0401 354.625C-44.1751 370.703 -69.0044 381.85 -97.8271 381.85V382.853V383.856C-68.5704 383.856 -43.0566 372.552 -30.4384 355.833L-31.2393 355.229ZM-97.8271 382.853V381.85C-118.295 381.85 -136.78 376.224 -150.12 367.181C-163.466 358.135 -171.574 345.743 -171.574 332.183H-172.577H-173.581C-173.581 346.607 -164.955 359.55 -151.246 368.843C-137.532 378.139 -118.643 383.856 -97.8271 383.856V382.853ZM-172.577 332.183H-171.574C-171.574 321.641 -166.678 311.815 -158.229 303.707L-158.924 302.983L-159.619 302.259C-168.371 310.658 -173.58 320.979 -173.581 332.183H-172.577ZM-158.924 302.983L-158.162 302.33C-163.626 295.953 -166.557 289.108 -166.557 282.014H-167.561H-168.564C-168.564 289.697 -165.381 296.989 -159.686 303.636L-158.924 302.983ZM-167.561 282.014H-166.557C-166.557 281.306 -166.528 280.602 -166.471 279.901L-167.471 279.819L-168.471 279.737C-168.533 280.493 -168.564 281.252 -168.564 282.014H-167.561ZM-167.471 279.819L-167.105 278.885C-210.289 261.961 -239.802 226.736 -239.802 186.195H-240.806H-241.809C-241.809 227.793 -211.549 263.622 -167.837 280.753L-167.471 279.819ZM-240.806 186.195H-239.802C-239.802 146.979 -212.19 112.74 -171.295 95.2226L-171.69 94.3003L-172.086 93.378C-213.495 111.116 -241.809 145.958 -241.809 186.195H-240.806ZM-171.69 94.3003L-171.443 93.3278C-208.138 84.0079 -233.78 60.3339 -233.78 32.9927H-234.783H-235.787C-235.787 61.7035 -208.992 85.8615 -171.937 95.2728L-171.69 94.3003ZM-234.783 32.9927H-233.78C-233.78 15.3337 -223.114 -0.773438 -205.622 -12.5111C-188.137 -24.2445 -163.924 -31.5342 -137.13 -31.5342V-32.5376V-33.541C-164.268 -33.541 -188.882 -26.1613 -206.74 -14.1774C-224.592 -2.19783 -235.787 14.4602 -235.787 32.9927H-234.783ZM-137.13 -32.5376V-31.5342C-92.7852 -31.5342 -55.6883 -11.6004 -44.188 15.2539L-43.2656 14.8589L-42.3433 14.4639C-54.2858 -13.4229 -92.3604 -33.5409 -137.13 -33.541V-32.5376ZM-43.2656 14.8589L-43.0384 15.8362C-36.8178 14.3896 -30.275 13.6181 -23.5215 13.6181V12.6147V11.6114C-30.4279 11.6114 -37.1232 12.4004 -43.4929 13.8816L-43.2656 14.8589ZM-23.5215 12.6147V13.6181C-4.08014 13.6181 13.6117 20.0154 26.9007 30.4821L27.5215 29.6938L28.1423 28.9056C14.4895 18.1524 -3.6425 11.6114 -23.5215 11.6114V12.6147ZM27.5215 29.6938L28.1589 30.4687C41.5727 19.4345 59.7451 12.6445 79.7744 12.6445V11.6411V10.6378C59.2947 10.6378 40.6682 17.5802 26.8841 28.919L27.5215 29.6938ZM79.7744 11.6411V12.6445C103.68 12.6445 124.935 22.3168 138.616 37.3277L139.357 36.6519L140.099 35.976C126.017 20.525 104.213 10.6378 79.7744 10.6378V11.6411ZM139.357 36.6519L138.956 37.5715C150.23 42.4913 160.158 49.0947 168.21 56.9445L168.91 56.2261L169.611 55.5076C161.373 47.4763 151.238 40.7416 139.759 35.7323L139.357 36.6519ZM168.91 56.2261L169.513 57.0284C175.972 52.178 183.726 49.3583 192.062 49.3583V48.355V47.3516C183.261 47.3516 175.089 50.3317 168.308 55.4237L168.91 56.2261ZM192.062 48.355V49.3583C197.204 49.3583 202.122 50.4337 206.652 52.3931L207.051 51.4722L207.449 50.5513C202.677 48.487 197.488 47.3516 192.062 47.3516V48.355ZM207.051 51.4722L207.937 51.9425C213.908 40.6918 224.74 31.444 238.384 25.9418L238.009 25.0112L237.634 24.0807C223.624 29.7306 212.391 39.2695 206.164 51.0018L207.051 51.4722ZM238.009 25.0112L238.822 24.4231C227.835 9.23781 221.554 -8.39605 221.554 -27.1987H220.551H219.547C219.547 -7.93351 225.986 10.1059 237.196 25.5994L238.009 25.0112ZM220.551 -27.1987H221.554C221.554 -83.8062 278.616 -130.043 349.482 -130.043V-131.046V-132.05C277.935 -132.05 219.547 -85.2981 219.547 -27.1987H220.551ZM349.482 -131.046V-130.043C381.317 -130.043 410.416 -120.692 432.787 -105.243L433.357 -106.069L433.928 -106.894C411.205 -122.586 381.704 -132.05 349.482 -132.05V-131.046ZM433.357 -106.069L433.928 -105.243C456.299 -120.692 485.398 -130.043 517.233 -130.043V-131.046V-132.05C485.011 -132.05 455.51 -122.586 432.787 -106.894L433.357 -106.069Z"
            fill="#0A0602" mask="url(#path-1-inside-1_0_1)" />
    </g>
    <g filter="url(#filter1_n_0_1)">
        <mask id="path-3-inside-2_0_1" fill="white">
            <path
                d="M441.104 -139.575C495.11 -146.546 541.91 -128.806 545.634 -99.9534C549.357 -71.1005 508.595 -42.0604 454.59 -35.0901C451.834 -34.7344 449.097 -34.4439 446.384 -34.2151C442.302 -29.2117 436.535 -25.1839 429.731 -22.6565C423.611 1.33955 397.197 19.3883 365.538 19.3884C350.472 19.3884 336.594 15.2999 325.525 8.42944C317.436 12.0184 308.606 14.4991 299.291 15.6453C294.296 55.9299 251.552 87.4011 199.558 87.4011C156.829 87.4011 120.347 66.1467 105.929 36.2136C96.8441 35.6384 88.1592 33.9461 80.0938 31.3103C75.6788 33.0726 71.0618 34.5748 66.2764 35.7908C68.214 45.2151 69.2363 54.9973 69.2363 65.03C69.2363 85.067 65.1636 104.105 57.8447 121.286C85.4472 136.817 103.351 161.788 103.352 189.948C103.352 223.694 77.6408 252.861 40.3389 266.689C40.8681 268.661 41.1425 270.676 41.1426 272.725C41.1426 296.276 4.98032 315.368 -39.6279 315.368C-84.236 315.368 -120.397 296.276 -120.397 272.725C-120.397 260.92 -111.311 250.235 -96.6279 242.513C-111.519 228.028 -120.397 209.779 -120.397 189.948C-120.397 189.555 -120.395 189.163 -120.388 188.771C-163.793 166.243 -193.644 119.296 -193.644 65.03C-193.644 49.5935 -191.228 34.749 -186.772 20.8904C-211.584 9.0076 -227.761 -10.4705 -227.761 -32.4846C-227.761 -68.6762 -184.039 -98.0149 -130.106 -98.0149C-98.6863 -98.0148 -70.7327 -88.0565 -52.8701 -72.5872C-50.0653 -72.3806 -47.2848 -72.082 -44.5312 -71.6936C-27.9157 -92.8839 2.21463 -107.045 36.627 -107.045C55.1259 -107.045 72.3876 -102.953 86.9775 -95.8762C95.1508 -97.9175 103.853 -99.0188 112.882 -99.0188C141.591 -99.0188 167.005 -87.8845 182.577 -70.7883C188.097 -71.537 193.77 -71.928 199.558 -71.928C201.065 -71.928 202.564 -71.9002 204.055 -71.8479C211.247 -106.704 245.855 -133.133 287.466 -133.133C316.778 -133.133 342.615 -120.017 357.842 -100.08C371.933 -118.976 403.268 -134.692 441.104 -139.575Z" />
        </mask>
        <path
            d="M441.104 -139.575C495.11 -146.546 541.91 -128.806 545.634 -99.9534C549.357 -71.1005 508.595 -42.0604 454.59 -35.0901C451.834 -34.7344 449.097 -34.4439 446.384 -34.2151C442.302 -29.2117 436.535 -25.1839 429.731 -22.6565C423.611 1.33955 397.197 19.3883 365.538 19.3884C350.472 19.3884 336.594 15.2999 325.525 8.42944C317.436 12.0184 308.606 14.4991 299.291 15.6453C294.296 55.9299 251.552 87.4011 199.558 87.4011C156.829 87.4011 120.347 66.1467 105.929 36.2136C96.8441 35.6384 88.1592 33.9461 80.0938 31.3103C75.6788 33.0726 71.0618 34.5748 66.2764 35.7908C68.214 45.2151 69.2363 54.9973 69.2363 65.03C69.2363 85.067 65.1636 104.105 57.8447 121.286C85.4472 136.817 103.351 161.788 103.352 189.948C103.352 223.694 77.6408 252.861 40.3389 266.689C40.8681 268.661 41.1425 270.676 41.1426 272.725C41.1426 296.276 4.98032 315.368 -39.6279 315.368C-84.236 315.368 -120.397 296.276 -120.397 272.725C-120.397 260.92 -111.311 250.235 -96.6279 242.513C-111.519 228.028 -120.397 209.779 -120.397 189.948C-120.397 189.555 -120.395 189.163 -120.388 188.771C-163.793 166.243 -193.644 119.296 -193.644 65.03C-193.644 49.5935 -191.228 34.749 -186.772 20.8904C-211.584 9.0076 -227.761 -10.4705 -227.761 -32.4846C-227.761 -68.6762 -184.039 -98.0149 -130.106 -98.0149C-98.6863 -98.0148 -70.7327 -88.0565 -52.8701 -72.5872C-50.0653 -72.3806 -47.2848 -72.082 -44.5312 -71.6936C-27.9157 -92.8839 2.21463 -107.045 36.627 -107.045C55.1259 -107.045 72.3876 -102.953 86.9775 -95.8762C95.1508 -97.9175 103.853 -99.0188 112.882 -99.0188C141.591 -99.0188 167.005 -87.8845 182.577 -70.7883C188.097 -71.537 193.77 -71.928 199.558 -71.928C201.065 -71.928 202.564 -71.9002 204.055 -71.8479C211.247 -106.704 245.855 -133.133 287.466 -133.133C316.778 -133.133 342.615 -120.017 357.842 -100.08C371.933 -118.976 403.268 -134.692 441.104 -139.575Z"
            fill="#F33900" />
        <path
            d="M441.104 -139.575L440.976 -140.571V-140.571L441.104 -139.575ZM545.634 -99.9534L546.629 -100.082V-100.082L545.634 -99.9534ZM454.59 -35.0901L454.718 -34.095L454.59 -35.0901ZM446.384 -34.2151L446.299 -35.2149L445.875 -35.1791L445.606 -34.8493L446.384 -34.2151ZM429.731 -22.6565L429.382 -23.597L428.889 -23.4139L428.759 -22.9045L429.731 -22.6565ZM365.538 19.3884V20.3918V19.3884ZM325.525 8.42944L326.055 7.57695L325.604 7.29706L325.118 7.5123L325.525 8.42944ZM299.291 15.6453L299.168 14.6494L298.392 14.745L298.295 15.5218L299.291 15.6453ZM199.558 87.4011V88.4045V87.4011ZM105.929 36.2136L106.833 35.7782L106.578 35.2494L105.992 35.2123L105.929 36.2136ZM80.0938 31.3103L80.4054 30.3566L80.0596 30.2436L79.7218 30.3784L80.0938 31.3103ZM66.2764 35.7908L66.0293 34.8183L65.1006 35.0543L65.2936 35.9928L66.2764 35.7908ZM69.2363 65.03H70.2397H69.2363ZM57.8447 121.286L56.9216 120.893L56.5694 121.72L57.3527 122.16L57.8447 121.286ZM103.352 189.948H104.355H103.352ZM40.3389 266.689L39.9901 265.748L39.1328 266.066L39.3698 266.949L40.3389 266.689ZM41.1426 272.725H42.1459H41.1426ZM-39.6279 315.368V316.371V315.368ZM-120.397 272.725H-121.401H-120.397ZM-96.6279 242.513L-96.1609 243.401L-94.9374 242.758L-95.9283 241.794L-96.6279 242.513ZM-120.397 189.948H-121.401H-120.397ZM-120.388 188.771L-119.384 188.789L-119.373 188.167L-119.925 187.881L-120.388 188.771ZM-193.644 65.03H-194.647H-193.644ZM-186.772 20.8904L-185.817 21.1975L-185.549 20.3637L-186.339 19.9855L-186.772 20.8904ZM-227.761 -32.4846H-228.764H-227.761ZM-130.106 -98.0149V-99.0182V-98.0149ZM-52.8701 -72.5872L-53.527 -71.8287L-53.2755 -71.6109L-52.9438 -71.5865L-52.8701 -72.5872ZM-44.5312 -71.6936L-44.6714 -70.7001L-44.0986 -70.6193L-43.7417 -71.0745L-44.5312 -71.6936ZM36.627 -107.045V-108.049V-107.045ZM86.9775 -95.8762L86.5397 -94.9735L86.8673 -94.8145L87.2207 -94.9028L86.9775 -95.8762ZM112.882 -99.0188V-100.022V-99.0188ZM182.577 -70.7883L181.835 -70.1127L182.19 -69.7233L182.712 -69.7941L182.577 -70.7883ZM199.558 -71.928V-72.9313V-71.928ZM204.055 -71.8479L204.02 -70.8452L204.866 -70.8154L205.037 -71.6451L204.055 -71.8479ZM287.466 -133.133V-134.136V-133.133ZM357.842 -100.08L357.044 -99.4713L357.851 -98.4148L358.646 -99.4805L357.842 -100.08ZM441.104 -139.575L441.233 -138.58C468.105 -142.049 493.136 -139.361 511.869 -132.26C530.648 -125.142 542.847 -113.706 544.639 -99.8249L545.634 -99.9534L546.629 -100.082C544.697 -115.054 531.634 -126.914 512.58 -134.136C493.482 -141.376 468.109 -144.073 440.976 -140.571L441.104 -139.575ZM545.634 -99.9534L544.639 -99.8249C546.43 -85.944 537.534 -71.7856 521.178 -60.1329C504.861 -48.5083 481.334 -39.5535 454.461 -36.0852L454.59 -35.0901L454.718 -34.095C481.852 -37.597 505.708 -46.6473 522.342 -58.4986C538.938 -70.3217 548.561 -85.1098 546.629 -100.082L545.634 -99.9534ZM454.59 -35.0901L454.461 -36.0852C451.721 -35.7315 448.998 -35.4425 446.299 -35.2149L446.384 -34.2151L446.468 -33.2153C449.196 -33.4453 451.948 -33.7374 454.718 -34.095L454.59 -35.0901ZM446.384 -34.2151L445.606 -34.8493C441.649 -29.9986 436.036 -26.069 429.382 -23.597L429.731 -22.6565L430.081 -21.7159C437.033 -24.2988 442.955 -28.4249 447.161 -33.5808L446.384 -34.2151ZM429.731 -22.6565L428.759 -22.9045C422.782 0.530228 396.871 18.385 365.538 18.3851V19.3884V20.3918C397.523 20.3917 424.44 2.14886 430.704 -22.4085L429.731 -22.6565ZM365.538 19.3884V18.3851C350.652 18.3851 336.958 14.3448 326.055 7.57695L325.525 8.42944L324.996 9.28194C336.23 16.255 350.293 20.3918 365.538 20.3918V19.3884ZM325.525 8.42944L325.118 7.5123C317.12 11.061 308.386 13.5153 299.168 14.6494L299.291 15.6453L299.414 16.6411C308.827 15.4829 317.753 12.9757 325.932 9.34659L325.525 8.42944ZM299.291 15.6453L298.295 15.5218C293.383 55.1421 251.227 86.3978 199.558 86.3978V87.4011V88.4045C251.876 88.4045 295.209 56.7176 300.287 15.7687L299.291 15.6453ZM199.558 87.4011V86.3978C157.127 86.3977 121.049 65.2919 106.833 35.7782L105.929 36.2136L105.025 36.649C119.645 67.0014 156.531 88.4044 199.558 88.4045V87.4011ZM105.929 36.2136L105.992 35.2123C96.9909 34.6423 88.3895 32.9657 80.4054 30.3566L80.0938 31.3103L79.7821 32.264C87.9289 34.9264 96.6973 36.6344 105.865 37.215L105.929 36.2136ZM80.0938 31.3103L79.7218 30.3784C75.3481 32.1243 70.7729 33.613 66.0293 34.8183L66.2764 35.7908L66.5235 36.7632C71.3507 35.5367 76.0094 34.021 80.4657 32.2422L80.0938 31.3103ZM66.2764 35.7908L65.2936 35.9928C67.2176 45.3512 68.2329 55.0656 68.233 65.03H69.2363H70.2397C70.2397 54.929 69.2104 45.0792 67.2592 35.5887L66.2764 35.7908ZM69.2363 65.03H68.233C68.233 84.9302 64.1882 103.835 56.9216 120.893L57.8447 121.286L58.7678 121.679C66.139 104.376 70.2397 85.2038 70.2397 65.03H69.2363ZM57.8447 121.286L57.3527 122.16C84.7336 137.567 102.348 162.247 102.348 189.948H103.352H104.355C104.355 161.329 86.1608 136.067 58.3367 120.411L57.8447 121.286ZM103.352 189.948H102.348C102.348 223.138 77.0439 252.012 39.9901 265.748L40.3389 266.689L40.6876 267.63C78.2378 253.71 104.355 224.25 104.355 189.948H103.352ZM40.3389 266.689L39.3698 266.949C39.877 268.839 40.1392 270.767 40.1392 272.725H41.1426H42.1459C42.1459 270.586 41.8593 268.483 41.3079 266.429L40.3389 266.689ZM41.1426 272.725H40.1392C40.1392 283.945 31.5078 294.341 17.017 301.991C2.57169 309.617 -17.4536 314.365 -39.6279 314.365V315.368V316.371C-17.194 316.371 3.16595 311.573 17.9539 303.766C32.6962 295.982 42.1459 285.057 42.1459 272.725H41.1426ZM-39.6279 315.368V314.365C-61.8021 314.365 -81.8272 309.617 -96.2723 301.991C-110.763 294.34 -119.394 283.945 -119.394 272.725H-120.397H-121.401C-121.401 285.057 -111.951 295.982 -97.2092 303.765C-82.4215 311.573 -62.0618 316.371 -39.6279 316.371V315.368ZM-120.397 272.725H-119.394C-119.394 261.477 -110.718 251.057 -96.1609 243.401L-96.6279 242.513L-97.0949 241.625C-111.903 249.413 -121.401 260.362 -121.401 272.725H-120.397ZM-96.6279 242.513L-95.9283 241.794C-110.661 227.464 -119.394 209.462 -119.394 189.948H-120.397H-121.401C-121.401 210.095 -112.378 228.593 -97.3275 243.233L-96.6279 242.513ZM-120.397 189.948H-119.394C-119.394 189.56 -119.391 189.174 -119.384 188.789L-120.388 188.771L-121.391 188.753C-121.398 189.152 -121.401 189.55 -121.401 189.948H-120.397ZM-120.388 188.771L-119.925 187.881C-162.995 165.527 -192.64 118.925 -192.64 65.03H-193.644H-194.647C-194.647 119.666 -164.592 166.959 -120.85 189.662L-120.388 188.771ZM-193.644 65.03H-192.64C-192.64 49.6985 -190.241 34.9577 -185.817 21.1975L-186.772 20.8904L-187.728 20.5833C-192.215 34.5403 -194.647 49.4884 -194.647 65.03H-193.644ZM-186.772 20.8904L-186.339 19.9855C-210.961 8.19333 -226.757 -11.0062 -226.757 -32.4846H-227.761H-228.764C-228.764 -9.93468 -212.206 9.82187 -187.206 21.7953L-186.772 20.8904ZM-227.761 -32.4846H-226.757C-226.757 -50.1436 -216.091 -66.2507 -198.599 -77.9884C-181.114 -89.7218 -156.901 -97.0115 -130.106 -97.0115V-98.0149V-99.0182C-157.244 -99.0182 -181.859 -91.6386 -199.717 -79.6547C-217.57 -67.6752 -228.764 -51.0172 -228.764 -32.4846H-227.761ZM-130.106 -98.0149V-97.0115C-98.8794 -97.0114 -71.1738 -87.1111 -53.527 -71.8287L-52.8701 -72.5872L-52.2133 -73.3456C-70.2916 -89.0018 -98.4932 -99.0182 -130.106 -99.0182V-98.0149ZM-52.8701 -72.5872L-52.9438 -71.5865C-50.1612 -71.3816 -47.4029 -71.0854 -44.6714 -70.7001L-44.5312 -71.6936L-44.3911 -72.6871C-47.1667 -73.0786 -49.9694 -73.3796 -52.7964 -73.5878L-52.8701 -72.5872ZM-44.5312 -71.6936L-43.7417 -71.0745C-27.3467 -91.9835 2.47005 -106.042 36.627 -106.042V-107.045V-108.049C1.95921 -108.049 -28.4847 -93.7843 -45.3208 -72.3127L-44.5312 -71.6936ZM36.627 -107.045V-106.042C54.9796 -106.042 72.0908 -101.982 86.5397 -94.9735L86.9775 -95.8762L87.4154 -96.779C72.6843 -103.924 55.2724 -108.049 36.627 -108.049V-107.045ZM86.9775 -95.8762L87.2207 -94.9028C95.3139 -96.9241 103.935 -98.0154 112.882 -98.0154V-99.0188V-100.022C103.772 -100.022 94.9876 -98.911 86.7344 -96.8497L86.9775 -95.8762ZM112.882 -99.0188V-98.0154C141.344 -98.0154 166.476 -86.9753 181.835 -70.1127L182.577 -70.7883L183.319 -71.464C167.534 -88.7937 141.838 -100.022 112.882 -100.022V-99.0188ZM182.577 -70.7883L182.712 -69.7941C188.187 -70.5367 193.815 -70.9246 199.558 -70.9246V-71.928V-72.9313C193.725 -72.9313 188.006 -72.5374 182.442 -71.7826L182.577 -70.7883ZM199.558 -71.928V-70.9246C201.052 -70.9246 202.54 -70.8971 204.02 -70.8452L204.055 -71.8479L204.09 -72.8506C202.588 -72.9034 201.077 -72.9313 199.558 -72.9313V-71.928ZM204.055 -71.8479L205.037 -71.6451C212.118 -105.962 246.252 -132.13 287.466 -132.13V-133.133V-134.136C245.458 -134.136 210.375 -107.446 203.072 -72.0507L204.055 -71.8479ZM287.466 -133.133V-132.13C316.483 -132.13 342.018 -119.146 357.044 -99.4713L357.842 -100.08L358.639 -100.689C343.212 -120.889 317.073 -134.136 287.466 -134.136V-133.133ZM357.842 -100.08L358.646 -99.4805C372.512 -118.073 403.54 -133.715 441.233 -138.58L441.104 -139.575L440.976 -140.571C402.997 -135.669 371.354 -119.878 357.037 -100.68L357.842 -100.08Z"
            fill="#0A0602" mask="url(#path-3-inside-2_0_1)" />
    </g>
    <g filter="url(#filter2_n_0_1)">
        <mask id="path-5-inside-3_0_1" fill="white">
            <path
                d="M542.233 -94.356C488.228 -101.326 441.429 -83.5859 437.705 -54.7329C433.982 -25.88 474.743 3.16011 528.748 10.1304C531.502 10.4859 534.238 10.7756 536.95 11.0044C541.032 16.0079 546.799 20.0364 553.602 22.564C559.722 46.5597 586.136 64.6079 617.795 64.6079C632.861 64.6079 646.738 60.5193 657.807 53.6489C665.896 57.238 674.726 59.7194 684.041 60.8657C689.036 101.15 731.78 132.621 783.774 132.622C792.745 132.622 801.441 131.684 809.715 129.926C809.714 130.023 809.712 130.119 809.712 130.215C809.712 167.647 842.19 199.047 885.968 207.586C882.091 216.238 879.986 225.516 879.986 235.168C879.986 268.914 905.696 298.081 942.998 311.91C942.469 313.882 942.194 315.898 942.194 317.947C942.195 341.498 978.357 360.589 1022.96 360.589C1067.57 360.589 1103.73 341.498 1103.74 317.947C1103.74 306.141 1094.65 295.455 1079.96 287.734C1094.86 273.249 1103.74 254.999 1103.74 235.168C1103.74 234.776 1103.73 234.383 1103.72 233.992C1147.13 211.463 1176.98 164.516 1176.98 110.25C1176.98 94.8132 1174.57 79.9681 1170.11 66.1089C1194.92 54.2259 1211.09 34.7489 1211.09 12.7358C1211.09 -23.4555 1167.37 -52.7944 1113.44 -52.7944C1082.02 -52.7944 1054.07 -42.8351 1036.2 -27.3657C1033.4 -27.1591 1030.62 -26.8606 1027.87 -26.4722C1011.25 -47.6635 981.119 -61.8257 946.706 -61.8257C928.206 -61.8256 910.945 -57.732 896.354 -50.6548C888.181 -52.6961 879.479 -53.7983 870.45 -53.7983C841.742 -53.7982 816.328 -42.6637 800.756 -25.5679C795.236 -26.3166 789.563 -26.7075 783.774 -26.7075C782.268 -26.7075 780.769 -26.6797 779.279 -26.6274C772.087 -61.4839 737.479 -87.9124 695.868 -87.9126C666.557 -87.9126 640.721 -74.7983 625.494 -54.8628C611.402 -73.7568 580.068 -89.4728 542.233 -94.356Z" />
        </mask>
        <path
            d="M542.233 -94.356C488.228 -101.326 441.429 -83.5859 437.705 -54.7329C433.982 -25.88 474.743 3.16011 528.748 10.1304C531.502 10.4859 534.238 10.7756 536.95 11.0044C541.032 16.0079 546.799 20.0364 553.602 22.564C559.722 46.5597 586.136 64.6079 617.795 64.6079C632.861 64.6079 646.738 60.5193 657.807 53.6489C665.896 57.238 674.726 59.7194 684.041 60.8657C689.036 101.15 731.78 132.621 783.774 132.622C792.745 132.622 801.441 131.684 809.715 129.926C809.714 130.023 809.712 130.119 809.712 130.215C809.712 167.647 842.19 199.047 885.968 207.586C882.091 216.238 879.986 225.516 879.986 235.168C879.986 268.914 905.696 298.081 942.998 311.91C942.469 313.882 942.194 315.898 942.194 317.947C942.195 341.498 978.357 360.589 1022.96 360.589C1067.57 360.589 1103.73 341.498 1103.74 317.947C1103.74 306.141 1094.65 295.455 1079.96 287.734C1094.86 273.249 1103.74 254.999 1103.74 235.168C1103.74 234.776 1103.73 234.383 1103.72 233.992C1147.13 211.463 1176.98 164.516 1176.98 110.25C1176.98 94.8132 1174.57 79.9681 1170.11 66.1089C1194.92 54.2259 1211.09 34.7489 1211.09 12.7358C1211.09 -23.4555 1167.37 -52.7944 1113.44 -52.7944C1082.02 -52.7944 1054.07 -42.8351 1036.2 -27.3657C1033.4 -27.1591 1030.62 -26.8606 1027.87 -26.4722C1011.25 -47.6635 981.119 -61.8257 946.706 -61.8257C928.206 -61.8256 910.945 -57.732 896.354 -50.6548C888.181 -52.6961 879.479 -53.7983 870.45 -53.7983C841.742 -53.7982 816.328 -42.6637 800.756 -25.5679C795.236 -26.3166 789.563 -26.7075 783.774 -26.7075C782.268 -26.7075 780.769 -26.6797 779.279 -26.6274C772.087 -61.4839 737.479 -87.9124 695.868 -87.9126C666.557 -87.9126 640.721 -74.7983 625.494 -54.8628C611.402 -73.7568 580.068 -89.4728 542.233 -94.356Z"
            fill="#F33900" />
        <path
            d="M542.233 -94.356L542.362 -95.3511V-95.3511L542.233 -94.356ZM437.705 -54.7329L436.71 -54.8613V-54.8613L437.705 -54.7329ZM528.748 10.1304L528.62 11.1255L528.748 10.1304ZM536.95 11.0044L537.035 10.0046L537.459 10.0404L537.728 10.3702L536.95 11.0044ZM553.602 22.564L553.951 21.6234L554.444 21.8065L554.574 22.316L553.602 22.564ZM617.795 64.6079V65.6113V64.6079ZM657.807 53.6489L657.278 52.7964L657.728 52.5165L658.214 52.7318L657.807 53.6489ZM684.041 60.8657L684.164 59.8699L684.94 59.9655L685.037 60.7423L684.041 60.8657ZM783.774 132.622V133.625V132.622ZM809.715 129.926L809.506 128.945L810.724 128.686L810.718 129.931L809.715 129.926ZM809.712 130.215H808.709H809.712ZM885.968 207.586L886.16 206.602L887.4 206.844L886.883 207.997L885.968 207.586ZM879.986 235.168H878.983H879.986ZM942.998 311.91L943.347 310.969L944.204 311.287L943.967 312.17L942.998 311.91ZM942.194 317.947L941.191 317.947V317.947H942.194ZM1022.96 360.589V361.593V360.589ZM1103.74 317.947H1104.74V317.947L1103.74 317.947ZM1079.96 287.734L1079.5 288.622L1078.27 287.979L1079.27 287.015L1079.96 287.734ZM1103.74 235.168H1104.74H1103.74ZM1103.72 233.992L1102.72 234.009L1102.71 233.388L1103.26 233.101L1103.72 233.992ZM1176.98 110.25H1177.98H1176.98ZM1170.11 66.1089L1169.15 66.416L1168.89 65.5823L1169.68 65.204L1170.11 66.1089ZM1211.09 12.7358L1212.1 12.7358V12.7358H1211.09ZM1113.44 -52.7944V-53.7978V-52.7944ZM1036.2 -27.3657L1036.86 -26.6073L1036.61 -26.3895L1036.28 -26.3651L1036.2 -27.3657ZM1027.87 -26.4722L1028.01 -25.4786L1027.43 -25.3978L1027.08 -25.8531L1027.87 -26.4722ZM946.706 -61.8257V-62.829V-61.8257ZM896.354 -50.6548L896.792 -49.752L896.465 -49.5931L896.111 -49.6813L896.354 -50.6548ZM870.45 -53.7983V-54.8017V-53.7983ZM800.756 -25.5679L801.498 -24.8922L801.143 -24.5028L800.621 -24.5736L800.756 -25.5679ZM783.774 -26.7075V-27.7109V-26.7075ZM779.279 -26.6274L779.314 -25.6247L778.468 -25.595L778.297 -26.4247L779.279 -26.6274ZM695.868 -87.9126V-88.916V-87.9126ZM625.494 -54.8628L626.292 -54.2537L625.485 -53.1974L624.69 -54.2629L625.494 -54.8628ZM542.233 -94.356L542.105 -93.3609C515.233 -96.8291 490.203 -94.1411 471.469 -87.0399C452.691 -79.9216 440.492 -68.4855 438.7 -54.6045L437.705 -54.7329L436.71 -54.8613C438.642 -69.8333 451.705 -81.6939 470.758 -88.9163C489.857 -96.156 515.228 -98.853 542.362 -95.3511L542.233 -94.356ZM437.705 -54.7329L438.7 -54.6045C436.909 -40.7236 445.805 -26.5651 462.16 -14.9125C478.477 -3.28786 502.004 5.66698 528.876 9.13527L528.748 10.1304L528.62 11.1255C501.486 7.6235 477.631 -1.42685 460.996 -13.2781C444.401 -25.1013 434.778 -39.8894 436.71 -54.8613L437.705 -54.7329ZM528.748 10.1304L528.876 9.13527C531.616 9.48882 534.337 9.77705 537.035 10.0046L536.95 11.0044L536.866 12.0042C534.139 11.7742 531.389 11.4829 528.62 11.1255L528.748 10.1304ZM536.95 11.0044L537.728 10.3702C541.685 15.2211 547.297 19.1513 553.951 21.6234L553.602 22.564L553.252 23.5045C546.3 20.9214 540.379 16.7947 536.173 11.6386L536.95 11.0044ZM553.602 22.564L554.574 22.316C560.551 45.7504 586.462 63.6046 617.795 63.6046V64.6079V65.6113C585.811 65.6113 558.893 47.369 552.629 22.8119L553.602 22.564ZM617.795 64.6079V63.6046C632.681 63.6045 646.374 59.5642 657.278 52.7964L657.807 53.6489L658.336 54.5014C647.102 61.4743 633.04 65.6112 617.795 65.6113V64.6079ZM657.807 53.6489L658.214 52.7318C666.212 56.2807 674.946 58.7356 684.164 59.8699L684.041 60.8657L683.918 61.8616C674.505 60.7032 665.58 58.1954 657.4 54.5661L657.807 53.6489ZM684.041 60.8657L685.037 60.7423C689.949 100.363 732.105 131.618 783.774 131.618V132.622V133.625C731.456 133.625 688.122 101.938 683.045 60.9892L684.041 60.8657ZM783.774 132.622V131.618C792.675 131.618 801.301 130.688 809.506 128.945L809.715 129.926L809.923 130.908C801.581 132.68 792.815 133.625 783.774 133.625V132.622ZM809.715 129.926L810.718 129.931C810.717 130.083 810.715 130.094 810.715 130.215H809.712H808.709C808.709 130.144 808.711 129.962 808.711 129.922L809.715 129.926ZM809.712 130.215H810.715C810.715 167.01 842.68 198.121 886.16 206.602L885.968 207.586L885.776 208.571C841.7 199.974 808.709 168.283 808.709 130.215H809.712ZM885.968 207.586L886.883 207.997C883.061 216.526 880.99 225.664 880.99 235.168H879.986H878.983C878.983 225.367 881.121 215.95 885.052 207.176L885.968 207.586ZM879.986 235.168H880.99C880.99 268.358 906.293 297.233 943.347 310.969L942.998 311.91L942.649 312.85C905.099 298.93 878.983 269.47 878.983 235.168H879.986ZM942.998 311.91L943.967 312.17C943.46 314.06 943.198 315.988 943.198 317.947H942.194H941.191C941.191 315.807 941.478 313.704 942.029 311.65L942.998 311.91ZM942.194 317.947L943.198 317.947C943.198 329.166 951.829 339.562 966.32 347.212C980.765 354.839 1000.79 359.586 1022.96 359.586V360.589V361.593C1000.53 361.593 980.171 356.794 965.383 348.987C950.641 341.204 941.191 330.278 941.191 317.947L942.194 317.947ZM1022.96 360.589V359.586C1045.14 359.586 1065.16 354.839 1079.61 347.212C1094.1 339.562 1102.73 329.166 1102.73 317.947L1103.74 317.947L1104.74 317.947C1104.74 330.278 1095.29 341.204 1080.55 348.987C1065.76 356.794 1045.4 361.593 1022.96 361.593V360.589ZM1103.74 317.947H1102.73C1102.73 306.699 1094.06 296.277 1079.5 288.622L1079.96 287.734L1080.43 286.846C1095.24 294.633 1104.74 305.583 1104.74 317.947H1103.74ZM1079.96 287.734L1079.27 287.015C1094 272.684 1102.73 254.683 1102.73 235.168H1103.74H1104.74C1104.74 255.315 1095.72 273.813 1080.66 288.453L1079.96 287.734ZM1103.74 235.168H1102.73C1102.73 234.782 1102.73 234.396 1102.72 234.009L1103.72 233.992L1104.73 233.974C1104.73 234.371 1104.74 234.769 1104.74 235.168H1103.74ZM1103.72 233.992L1103.26 233.101C1146.33 210.747 1175.98 164.146 1175.98 110.25H1176.98H1177.98C1177.98 164.887 1147.93 212.18 1104.19 234.882L1103.72 233.992ZM1176.98 110.25H1175.98C1175.98 94.9183 1173.58 80.1767 1169.15 66.416L1170.11 66.1089L1171.06 65.8018C1175.55 79.7594 1177.98 94.7081 1177.98 110.25H1176.98ZM1170.11 66.1089L1169.68 65.204C1194.3 53.4117 1210.09 34.2131 1210.09 12.7358H1211.09H1212.1C1212.1 35.2846 1195.54 55.0402 1170.54 67.0138L1170.11 66.1089ZM1211.09 12.7358L1210.09 12.7358C1210.09 -4.92307 1199.42 -21.0302 1181.93 -32.7679C1164.45 -44.5013 1140.23 -51.7911 1113.44 -51.7911V-52.7944V-53.7978C1140.58 -53.7978 1165.19 -46.4181 1183.05 -34.4342C1200.9 -22.4546 1212.1 -5.79663 1212.1 12.7358L1211.09 12.7358ZM1113.44 -52.7944V-51.7911C1082.21 -51.7911 1054.51 -41.8898 1036.86 -26.6073L1036.2 -27.3657L1035.55 -28.1242C1053.63 -43.7804 1081.83 -53.7978 1113.44 -53.7978V-52.7944ZM1036.2 -27.3657L1036.28 -26.3651C1033.5 -26.1601 1030.74 -25.8639 1028.01 -25.4786L1027.87 -26.4722L1027.73 -27.4657C1030.5 -27.8572 1033.3 -28.1581 1036.13 -28.3664L1036.2 -27.3657ZM1027.87 -26.4722L1027.08 -25.8531C1010.68 -46.763 980.864 -60.8223 946.706 -60.8223V-61.8257V-62.829C981.375 -62.829 1011.82 -48.5639 1028.66 -27.0913L1027.87 -26.4722ZM946.706 -61.8257V-60.8223C928.353 -60.8223 911.242 -56.7608 896.792 -49.752L896.354 -50.6548L895.917 -51.5575C910.648 -58.7032 928.06 -62.829 946.706 -62.829V-61.8257ZM896.354 -50.6548L896.111 -49.6813C888.018 -51.7027 879.397 -52.795 870.45 -52.795V-53.7983V-54.8017C879.56 -54.8017 888.345 -53.6895 896.598 -51.6282L896.354 -50.6548ZM870.45 -53.7983V-52.795C841.989 -52.7949 816.857 -41.7545 801.498 -24.8922L800.756 -25.5679L800.014 -26.2435C815.799 -43.5729 841.495 -54.8016 870.45 -54.8017V-53.7983ZM800.756 -25.5679L800.621 -24.5736C795.146 -25.3163 789.517 -25.7042 783.774 -25.7042V-26.7075V-27.7109C789.608 -27.7109 795.326 -27.3169 800.891 -26.5621L800.756 -25.5679ZM783.774 -26.7075V-25.7042C782.28 -25.7042 780.794 -25.6766 779.314 -25.6247L779.279 -26.6274L779.244 -27.6302C780.745 -27.6829 782.256 -27.7109 783.774 -27.7109V-26.7075ZM779.279 -26.6274L778.297 -26.4247C771.216 -60.7418 737.081 -86.9091 695.868 -86.9092V-87.9126V-88.916C737.876 -88.9158 772.959 -62.226 780.262 -26.8302L779.279 -26.6274ZM695.868 -87.9126V-86.9092C666.852 -86.9092 641.318 -73.9268 626.292 -54.2537L625.494 -54.8628L624.697 -55.4718C640.124 -75.6697 666.263 -88.916 695.868 -88.916V-87.9126ZM625.494 -54.8628L624.69 -54.2629C610.823 -72.8546 579.796 -88.4962 542.105 -93.3609L542.233 -94.356L542.362 -95.3511C580.34 -90.4494 611.98 -74.659 626.298 -55.4627L625.494 -54.8628Z"
            fill="#0A0602" mask="url(#path-5-inside-3_0_1)" />
    </g>
    <defs>
        <radialGradient id="paint0_radial_0_1" cx="0" cy="0" r="1" gradientUnits="userSpaceOnUse"
            gradientTransform="translate(118.948 553.341) rotate(-90) scale(1192.67 466.731)">
            <stop stop-color="#C80002" />
            <stop offset="1" stop-color="#790001" />
        </radialGradient>
    </defs>
</svg>