<svg width="2237" height="539" viewBox="0 0 2237 539" fill="none" xmlns="http://www.w3.org/2000/svg">
    <g filter="url(#filter0_n_0_1)">
        <mask id="path-1-inside-1_0_1" fill="white">
            <path
                d="M-19.5 457C6.62787 457 29.6143 463.319 42.9131 472.881C49.4688 471.044 56.9956 470 65 470C86.6318 470 104.773 477.629 109.686 487.907C148.648 490.527 177 498.531 177 508C176.999 519.598 134.467 529 82 529C71.619 529 61.6271 528.63 52.2764 527.949C35.1434 534.622 6.47536 539 -26 539C-78.4668 539 -121 527.583 -121 513.5C-121 506.519 -110.547 500.194 -93.6133 495.589C-93.8691 494.409 -94 493.212 -94 492C-94 472.67 -60.6452 457 -19.5 457ZM654.057 -32.5359C750.185 -44.9427 831.121 -31.6886 834.833 -2.93237C838.544 25.824 763.626 59.1939 667.497 71.6008C653.921 73.353 640.648 74.5927 627.853 75.3499C625.403 82.6243 619.094 89.5557 609.55 95.9622C611.069 99.3559 611.898 103.015 611.898 106.831C611.898 124.513 594.124 138.847 572.199 138.847C569.97 138.847 567.784 138.696 565.655 138.411C555.416 156.646 532.601 169.337 506.099 169.337C492.094 169.337 479.118 165.792 468.484 159.759C461.789 175.365 447.549 186.138 431.062 186.138C420.756 186.138 411.329 181.926 404.072 174.957C385.936 194.97 356.368 208 322.97 208C275.88 208 236.401 182.098 225.851 147.241C217.371 150.089 208.149 151.653 198.505 151.653C178.911 151.652 161.059 145.205 147.633 134.63C141.416 139.744 134.193 143.951 126.246 147.008C135.671 161.367 141 177.689 141 195C141 209.543 137.237 223.387 130.447 235.956C179.343 244.444 214 265.664 214 290.5C214 314.004 182.959 334.27 138.186 343.571C131.096 355.593 114.877 364 96 364C93.2237 364 90.505 363.817 87.8643 363.469C75.529 379.812 50.4423 391 21.5 391C-19.6451 391 -52.9998 368.39 -53 340.5C-53 329.663 -47.9643 319.624 -39.3926 311.398C-44.9528 304.908 -47.9999 297.863 -48 290.5C-48 289.767 -47.9701 289.037 -47.9102 288.31C-91.2131 271.339 -121 235.932 -121 195C-121 155.408 -93.1315 120.982 -52.1182 103.413C-88.8697 94.0791 -115 70.2429 -115 42.3108C-115 6.24062 -71.4255 -22.9996 -17.6738 -22.9998C26.7341 -22.9998 64.1947 -3.04134 75.877 24.2375C82.1512 22.7784 88.7483 22.0003 95.5557 22.0002C115.15 22.0002 133.002 28.4475 146.428 39.0217C159.981 27.873 178.319 21.0306 198.505 21.0305C208.926 21.0305 218.856 22.854 227.888 26.1526C269.224 10.8126 332.534 1.00024 403.5 1.00024C442.913 1.00024 479.965 4.02763 512.202 9.34692C541.608 -8.66075 593.644 -24.7387 654.057 -32.5359ZM1424.5 -30.9998C1461.45 -30.9998 1492.28 -19.5291 1499.43 -4.27612C1513.68 -8.54947 1530.28 -10.9998 1548 -10.9998C1587.52 -10.9998 1621.47 1.1919 1636.19 18.6086C1656.94 13.1485 1681.36 10.0002 1707.5 10.0002C1761.39 10.0002 1807.98 23.3831 1830.17 42.8157C1856.46 15.8173 1901.66 -1.99976 1953 -1.99976C1990.02 -1.99976 2023.84 7.26395 2049.69 22.552C2084.77 -6.93157 2132.02 -24.9998 2184 -24.9998C2292.25 -24.9998 2380 53.3504 2380 150C2380 204.841 2351.75 253.787 2307.53 285.873C2317.89 294.912 2324 306.007 2324 318C2324 348.376 2284.82 373 2236.5 373C2190.46 373 2152.72 350.644 2149.26 322.259C2073.42 310.146 2012.7 259.084 1993.98 193.078C1980.97 195.629 1967.22 197 1953 197C1898.98 197 1851.77 177.278 1826.22 147.894C1825 147.962 1823.75 148 1822.5 148C1798.22 148 1778.48 134.891 1778.01 118.599C1757.43 123.93 1733.3 127 1707.5 127C1645.33 127 1592.87 109.187 1576.39 84.8215C1567.41 86.2368 1557.88 87.0002 1548 87.0002C1494.98 87.0002 1452 65.062 1452 38.0002C1452 36.5535 1452.12 35.1211 1452.36 33.7063C1443.73 35.1857 1434.33 36.0002 1424.5 36.0002C1382.25 36.0002 1348 21.0016 1348 2.50024C1348 -16.0013 1382.25 -30.9998 1424.5 -30.9998Z" />
        </mask>
        <path
            d="M-19.5 457C6.62787 457 29.6143 463.319 42.9131 472.881C49.4688 471.044 56.9956 470 65 470C86.6318 470 104.773 477.629 109.686 487.907C148.648 490.527 177 498.531 177 508C176.999 519.598 134.467 529 82 529C71.619 529 61.6271 528.63 52.2764 527.949C35.1434 534.622 6.47536 539 -26 539C-78.4668 539 -121 527.583 -121 513.5C-121 506.519 -110.547 500.194 -93.6133 495.589C-93.8691 494.409 -94 493.212 -94 492C-94 472.67 -60.6452 457 -19.5 457ZM654.057 -32.5359C750.185 -44.9427 831.121 -31.6886 834.833 -2.93237C838.544 25.824 763.626 59.1939 667.497 71.6008C653.921 73.353 640.648 74.5927 627.853 75.3499C625.403 82.6243 619.094 89.5557 609.55 95.9622C611.069 99.3559 611.898 103.015 611.898 106.831C611.898 124.513 594.124 138.847 572.199 138.847C569.97 138.847 567.784 138.696 565.655 138.411C555.416 156.646 532.601 169.337 506.099 169.337C492.094 169.337 479.118 165.792 468.484 159.759C461.789 175.365 447.549 186.138 431.062 186.138C420.756 186.138 411.329 181.926 404.072 174.957C385.936 194.97 356.368 208 322.97 208C275.88 208 236.401 182.098 225.851 147.241C217.371 150.089 208.149 151.653 198.505 151.653C178.911 151.652 161.059 145.205 147.633 134.63C141.416 139.744 134.193 143.951 126.246 147.008C135.671 161.367 141 177.689 141 195C141 209.543 137.237 223.387 130.447 235.956C179.343 244.444 214 265.664 214 290.5C214 314.004 182.959 334.27 138.186 343.571C131.096 355.593 114.877 364 96 364C93.2237 364 90.505 363.817 87.8643 363.469C75.529 379.812 50.4423 391 21.5 391C-19.6451 391 -52.9998 368.39 -53 340.5C-53 329.663 -47.9643 319.624 -39.3926 311.398C-44.9528 304.908 -47.9999 297.863 -48 290.5C-48 289.767 -47.9701 289.037 -47.9102 288.31C-91.2131 271.339 -121 235.932 -121 195C-121 155.408 -93.1315 120.982 -52.1182 103.413C-88.8697 94.0791 -115 70.2429 -115 42.3108C-115 6.24062 -71.4255 -22.9996 -17.6738 -22.9998C26.7341 -22.9998 64.1947 -3.04134 75.877 24.2375C82.1512 22.7784 88.7483 22.0003 95.5557 22.0002C115.15 22.0002 133.002 28.4475 146.428 39.0217C159.981 27.873 178.319 21.0306 198.505 21.0305C208.926 21.0305 218.856 22.854 227.888 26.1526C269.224 10.8126 332.534 1.00024 403.5 1.00024C442.913 1.00024 479.965 4.02763 512.202 9.34692C541.608 -8.66075 593.644 -24.7387 654.057 -32.5359ZM1424.5 -30.9998C1461.45 -30.9998 1492.28 -19.5291 1499.43 -4.27612C1513.68 -8.54947 1530.28 -10.9998 1548 -10.9998C1587.52 -10.9998 1621.47 1.1919 1636.19 18.6086C1656.94 13.1485 1681.36 10.0002 1707.5 10.0002C1761.39 10.0002 1807.98 23.3831 1830.17 42.8157C1856.46 15.8173 1901.66 -1.99976 1953 -1.99976C1990.02 -1.99976 2023.84 7.26395 2049.69 22.552C2084.77 -6.93157 2132.02 -24.9998 2184 -24.9998C2292.25 -24.9998 2380 53.3504 2380 150C2380 204.841 2351.75 253.787 2307.53 285.873C2317.89 294.912 2324 306.007 2324 318C2324 348.376 2284.82 373 2236.5 373C2190.46 373 2152.72 350.644 2149.26 322.259C2073.42 310.146 2012.7 259.084 1993.98 193.078C1980.97 195.629 1967.22 197 1953 197C1898.98 197 1851.77 177.278 1826.22 147.894C1825 147.962 1823.75 148 1822.5 148C1798.22 148 1778.48 134.891 1778.01 118.599C1757.43 123.93 1733.3 127 1707.5 127C1645.33 127 1592.87 109.187 1576.39 84.8215C1567.41 86.2368 1557.88 87.0002 1548 87.0002C1494.98 87.0002 1452 65.062 1452 38.0002C1452 36.5535 1452.12 35.1211 1452.36 33.7063C1443.73 35.1857 1434.33 36.0002 1424.5 36.0002C1382.25 36.0002 1348 21.0016 1348 2.50024C1348 -16.0013 1382.25 -30.9998 1424.5 -30.9998Z"
            fill="url(#paint0_radial_0_1)" />
        <path
            d="M42.9131 472.881L42.3293 473.693L42.7198 473.974L43.1829 473.844L42.9131 472.881ZM109.686 487.907L108.783 488.339L109.035 488.866L109.618 488.905L109.686 487.907ZM177 508L178 508V508H177ZM52.2764 527.949L52.3489 526.952L52.1238 526.936L51.9134 527.018L52.2764 527.949ZM-121 513.5H-122V513.5L-121 513.5ZM-93.6133 495.589L-93.3509 496.554L-92.4348 496.305L-92.636 495.377L-93.6133 495.589ZM-94 492H-95H-94ZM654.057 -32.5359L653.929 -33.5277V-33.5277L654.057 -32.5359ZM834.833 -2.93237L835.825 -3.06038V-3.06039L834.833 -2.93237ZM667.497 71.6008L667.625 72.5926L667.497 71.6008ZM627.853 75.3499L627.793 74.3516L627.12 74.3914L626.905 75.0308L627.853 75.3499ZM609.55 95.9622L608.992 95.1319L608.293 95.6015L608.637 96.3707L609.55 95.9622ZM611.898 106.831H612.898V106.831L611.898 106.831ZM572.199 138.847V139.847V138.847ZM565.655 138.411L565.788 137.42L565.115 137.33L564.783 137.922L565.655 138.411ZM506.099 169.337V170.337V169.337ZM468.484 159.759L468.978 158.889L468.006 158.338L467.565 159.365L468.484 159.759ZM404.072 174.957L404.765 174.236L404.022 173.523L403.331 174.286L404.072 174.957ZM322.97 208V209V208ZM225.851 147.241L226.808 146.952L226.509 145.965L225.532 146.293L225.851 147.241ZM198.505 151.653V152.653V151.653ZM147.633 134.63L148.252 133.845L147.619 133.346L146.998 133.858L147.633 134.63ZM126.246 147.008L125.887 146.075L124.73 146.52L125.41 147.557L126.246 147.008ZM141 195H142H141ZM130.447 235.956L129.567 235.481L128.907 236.704L130.276 236.942L130.447 235.956ZM214 290.5H215H214ZM138.186 343.571L137.982 342.591L137.549 342.681L137.324 343.063L138.186 343.571ZM87.8643 363.469L87.995 362.478L87.4172 362.401L87.0661 362.867L87.8643 363.469ZM-53 340.5H-54H-53ZM-39.3926 311.398L-38.7002 312.119L-38.0183 311.465L-38.6332 310.747L-39.3926 311.398ZM-48 290.5H-49H-48ZM-47.9102 288.31L-46.9135 288.392L-46.8524 287.65L-47.5453 287.379L-47.9102 288.31ZM-121 195H-122H-121ZM-52.1182 103.413L-51.7244 104.333L-49.0118 103.171L-51.872 102.444L-52.1182 103.413ZM-115 42.3108L-116 42.3108V42.3108H-115ZM-17.6738 -22.9998V-23.9998V-22.9998ZM75.877 24.2375L74.9577 24.6312L75.2875 25.4013L76.1035 25.2116L75.877 24.2375ZM95.5557 22.0002V21.0002V22.0002ZM146.428 39.0217L145.809 39.8073L146.441 40.3054L147.063 39.794L146.428 39.0217ZM198.505 21.0305V20.0305V21.0305ZM227.888 26.1526L227.545 27.0919L227.89 27.2182L228.236 27.0901L227.888 26.1526ZM512.202 9.34692L512.039 10.3336L512.407 10.3942L512.724 10.1997L512.202 9.34692ZM1499.43 -4.27612L1498.53 -3.85143L1498.89 -3.07045L1499.72 -3.31828L1499.43 -4.27612ZM1636.19 18.6086L1635.42 19.2542L1635.83 19.7364L1636.44 19.5757L1636.19 18.6086ZM1830.17 42.8157L1829.51 43.568L1830.23 44.1928L1830.89 43.5133L1830.17 42.8157ZM2049.69 22.552L2049.18 23.4127L2049.79 23.7735L2050.33 23.3175L2049.69 22.552ZM2380 150H2381H2380ZM2307.53 285.873L2306.94 285.064L2305.92 285.802L2306.87 286.627L2307.53 285.873ZM2324 318H2325H2324ZM2149.26 322.259L2150.25 322.138L2150.16 321.39L2149.42 321.272L2149.26 322.259ZM1993.98 193.078L1994.95 192.806L1994.69 191.92L1993.79 192.097L1993.98 193.078ZM1826.22 147.894L1826.98 147.238L1826.66 146.868L1826.17 146.895L1826.22 147.894ZM1778.01 118.599L1779.01 118.57L1778.97 117.316L1777.76 117.631L1778.01 118.599ZM1576.39 84.8215L1577.21 84.2611L1576.86 83.7347L1576.23 83.8337L1576.39 84.8215ZM1452 38.0002H1451V38.0003L1452 38.0002ZM1452.36 33.7063L1453.35 33.874L1453.59 32.4823L1452.19 32.7207L1452.36 33.7063ZM1348 2.50024H1347V2.50026L1348 2.50024ZM-19.5 457V458C6.50586 458 29.26 464.296 42.3293 473.693L42.9131 472.881L43.4969 472.069C29.9686 462.342 6.74988 456 -19.5 456V457ZM42.9131 472.881L43.1829 473.844C49.6446 472.034 57.0802 471 65 471V470V469C56.911 469 49.2929 470.055 42.6433 471.918L42.9131 472.881ZM65 470V471C75.7054 471 85.5183 472.889 93.2359 476.026C100.985 479.176 106.481 483.523 108.783 488.339L109.686 487.907L110.588 487.476C107.977 482.014 101.947 477.408 93.989 474.173C85.9999 470.926 75.9263 469 65 469V470ZM109.686 487.907L109.618 488.905C129.059 490.212 145.809 492.861 157.672 496.345C163.611 498.089 168.267 500.026 171.416 502.073C174.613 504.15 176 506.165 176 508H177H178C178 505.101 175.843 502.564 172.506 500.396C169.122 498.197 164.255 496.194 158.235 494.426C146.182 490.886 129.274 488.222 109.753 486.91L109.686 487.907ZM177 508L176 508C176 509.122 175.49 510.306 174.336 511.553C173.177 512.805 171.419 514.061 169.071 515.288C164.376 517.742 157.518 519.981 148.959 521.873C131.857 525.653 108.183 528 82 528V529V530C108.284 530 132.109 527.646 149.391 523.826C158.023 521.918 165.077 519.632 169.997 517.061C172.456 515.776 174.431 514.394 175.804 512.912C177.18 511.424 178 509.778 178 508L177 508ZM82 529V528C71.6425 528 61.6748 527.631 52.3489 526.952L52.2764 527.949L52.2038 528.947C61.5794 529.629 71.5955 530 82 530V529ZM52.2764 527.949L51.9134 527.018C34.9437 533.627 6.41523 538 -26 538V539V540C6.53548 540 35.343 535.618 52.6393 528.881L52.2764 527.949ZM-26 539V538C-52.1718 538 -75.8304 535.152 -92.9156 530.566C-101.465 528.271 -108.312 525.555 -112.998 522.582C-117.733 519.577 -120 516.484 -120 513.5L-121 513.5L-122 513.5C-122 517.558 -118.95 521.173 -114.07 524.27C-109.141 527.398 -102.076 530.178 -93.4341 532.497C-76.1361 537.14 -52.2949 540 -26 540V539ZM-121 513.5H-120C-120 510.543 -117.772 507.477 -113.117 504.496C-108.509 501.544 -101.772 498.844 -93.3509 496.554L-93.6133 495.589L-93.8757 494.624C-102.389 496.939 -109.345 499.704 -114.196 502.811C-119.001 505.889 -122 509.476 -122 513.5H-121ZM-93.6133 495.589L-92.636 495.377C-92.877 494.266 -93 493.139 -93 492H-94H-95C-95 493.284 -94.8612 494.553 -94.5906 495.801L-93.6133 495.589ZM-94 492H-93C-93 482.951 -85.1546 474.452 -71.7542 468.157C-58.4329 461.898 -39.9593 458 -19.5 458V457V456C-40.1859 456 -58.9623 459.937 -72.6047 466.346C-86.168 472.718 -95 481.719 -95 492H-94ZM654.057 -32.5359L654.185 -31.5441C702.18 -37.7387 746.345 -37.521 778.939 -32.1834C795.243 -29.5135 808.593 -25.5719 818.071 -20.5505C827.577 -15.514 832.975 -9.51129 833.841 -2.80435L834.833 -2.93237L835.825 -3.06039C834.835 -10.7316 828.724 -17.1692 819.007 -22.3178C809.261 -27.4816 795.673 -31.4698 779.263 -34.1571C746.428 -39.534 702.061 -39.7399 653.929 -33.5277L654.057 -32.5359ZM834.833 -2.93237L833.841 -2.80437C834.707 3.9026 831.009 11.0794 823.093 18.3645C815.202 25.6276 803.29 32.8299 788.198 39.5518C758.027 52.9902 715.365 64.4144 667.369 70.6091L667.497 71.6008L667.625 72.5926C715.758 66.3803 758.619 54.9161 789.012 41.3788C804.202 34.6128 816.332 27.3053 824.448 19.8361C832.54 12.3889 836.815 4.61085 835.825 -3.06038L834.833 -2.93237ZM667.497 71.6008L667.369 70.6091C653.816 72.3583 640.565 73.5958 627.793 74.3516L627.853 75.3499L627.912 76.3481C640.73 75.5895 654.027 74.3477 667.625 72.5926L667.497 71.6008ZM627.853 75.3499L626.905 75.0308C624.556 82.0054 618.454 88.7809 608.992 95.1319L609.55 95.9622L610.107 96.7925C619.734 90.3305 626.25 83.2432 628.8 75.669L627.853 75.3499ZM609.55 95.9622L608.637 96.3707C610.101 99.6421 610.898 103.163 610.898 106.831L611.898 106.831L612.898 106.831C612.898 102.868 612.036 99.0696 610.463 95.5537L609.55 95.9622ZM611.898 106.831H610.898C610.898 123.77 593.784 137.847 572.199 137.847V138.847V139.847C594.465 139.847 612.898 125.255 612.898 106.831H611.898ZM572.199 138.847V137.847C570.015 137.847 567.874 137.699 565.788 137.42L565.655 138.411L565.523 139.403C567.695 139.693 569.925 139.847 572.199 139.847V138.847ZM565.655 138.411L564.783 137.922C554.752 155.786 532.308 168.337 506.099 168.337V169.337V170.337C532.894 170.337 556.08 157.506 566.527 138.901L565.655 138.411ZM506.099 169.337V168.337C492.261 168.337 479.456 164.834 468.978 158.889L468.484 159.759L467.991 160.629C478.78 166.75 491.927 170.337 506.099 170.337V169.337ZM468.484 159.759L467.565 159.365C461.001 174.664 447.086 185.138 431.062 185.138V186.138V187.138C448.012 187.138 462.577 176.065 469.403 160.153L468.484 159.759ZM431.062 186.138V185.138C421.039 185.138 411.854 181.043 404.765 174.236L404.072 174.957L403.38 175.679C410.804 182.808 420.473 187.138 431.062 187.138V186.138ZM404.072 174.957L403.331 174.286C385.407 194.065 356.12 207 322.97 207V208V209C356.616 209 386.466 195.874 404.813 175.629L404.072 174.957ZM322.97 208V207C276.193 207 237.197 181.277 226.808 146.952L225.851 147.241L224.893 147.531C235.605 182.92 275.566 209 322.97 209V208ZM225.851 147.241L225.532 146.293C217.155 149.106 208.041 150.653 198.505 150.653V151.653V152.653C208.257 152.653 217.586 151.071 226.169 148.189L225.851 147.241ZM198.505 151.653V150.653C179.129 150.652 161.496 144.276 148.252 133.845L147.633 134.63L147.014 135.416C160.621 146.133 178.692 152.652 198.505 152.653V151.653ZM147.633 134.63L146.998 133.858C140.866 138.901 133.737 143.055 125.887 146.075L126.246 147.008L126.605 147.941C134.649 144.847 141.966 140.586 148.268 135.402L147.633 134.63ZM126.246 147.008L125.41 147.557C134.737 161.767 140 177.901 140 195H141H142C142 177.477 136.604 160.966 127.082 146.459L126.246 147.008ZM141 195H140C140 209.366 136.284 223.048 129.567 235.481L130.447 235.956L131.327 236.432C138.191 223.726 142 209.72 142 195H141ZM130.447 235.956L130.276 236.942C154.639 241.171 175.389 248.563 190.02 257.94C204.679 267.336 213 278.585 213 290.5H214H215C215 277.579 205.992 265.801 191.099 256.256C176.177 246.692 155.151 239.23 130.618 234.971L130.447 235.956ZM214 290.5H213C213 301.776 205.551 312.455 192.317 321.537C179.103 330.606 160.286 337.959 137.982 342.591L138.186 343.571L138.389 344.55C160.858 339.882 179.949 332.452 193.449 323.186C206.928 313.935 215 302.729 215 290.5H214ZM138.186 343.571L137.324 343.063C130.459 354.705 114.621 363 96 363V364V365C115.134 365 131.733 356.482 139.047 344.079L138.186 343.571ZM96 364V363C93.2676 363 90.5926 362.82 87.995 362.478L87.8643 363.469L87.7335 364.46C90.4174 364.814 93.1798 365 96 365V364ZM87.8643 363.469L87.0661 362.867C74.9716 378.891 50.226 390 21.5 390V391V392C50.6586 392 76.0863 380.734 88.6624 364.071L87.8643 363.469ZM21.5 391V390C1.10074 390 -17.3228 384.394 -30.6182 375.381C-43.9191 366.365 -51.9999 354.015 -52 340.5H-53H-54C-53.9999 354.876 -45.4031 367.775 -31.7404 377.037C-18.0721 386.302 0.754196 392 21.5 392V391ZM-53 340.5H-52C-52 329.993 -47.1209 320.2 -38.7002 312.119L-39.3926 311.398L-40.085 310.676C-48.8077 319.047 -54 329.334 -54 340.5H-53ZM-39.3926 311.398L-38.6332 310.747C-44.0781 304.392 -46.9999 297.57 -47 290.5H-48H-49C-48.9999 298.157 -45.8275 305.424 -40.152 312.048L-39.3926 311.398ZM-48 290.5H-47C-47 289.794 -46.9712 289.091 -46.9135 288.392L-47.9102 288.31L-48.9068 288.228C-48.9689 288.982 -49 289.74 -49 290.5H-48ZM-47.9102 288.31L-47.5453 287.379C-90.585 270.512 -120 235.406 -120 195H-121H-122C-122 236.459 -91.8412 272.167 -48.275 289.241L-47.9102 288.31ZM-121 195H-120C-120 155.916 -92.4809 121.792 -51.7244 104.333L-52.1182 103.413L-52.5119 102.494C-93.782 120.173 -122 154.899 -122 195H-121ZM-52.1182 103.413L-51.872 102.444C-88.4442 93.1554 -114 69.5604 -114 42.3108H-115H-116C-116 70.9254 -89.2953 95.0027 -52.3643 104.383L-52.1182 103.413ZM-115 42.3108L-114 42.3108C-114 24.711 -103.369 8.65792 -85.9365 -3.04038C-68.51 -14.7344 -44.3784 -21.9997 -17.6738 -21.9998V-22.9998V-23.9998C-44.7209 -23.9997 -69.2523 -16.6448 -87.0509 -4.70111C-104.843 7.23829 -116 23.8404 -116 42.3108L-115 42.3108ZM-17.6738 -22.9998V-21.9998C26.5224 -21.9998 63.4958 -2.13312 74.9577 24.6312L75.877 24.2375L76.7962 23.8439C64.8936 -3.94955 26.9458 -23.9998 -17.6738 -23.9998V-22.9998ZM75.877 24.2375L76.1035 25.2116C82.3035 23.7697 88.8246 23.0003 95.5557 23.0002V22.0002V21.0002C88.672 21.0003 81.999 21.7872 75.6504 23.2635L75.877 24.2375ZM95.5557 22.0002V23.0002C114.932 23.0002 132.565 29.3759 145.809 39.8073L146.428 39.0217L147.046 38.2361C133.439 27.5191 115.368 21.0002 95.5557 21.0002V22.0002ZM146.428 39.0217L147.063 39.794C160.432 28.7971 178.543 22.0306 198.505 22.0305V21.0305V20.0305C178.094 20.0306 159.53 26.9489 145.792 38.2494L146.428 39.0217ZM198.505 21.0305V22.0305C208.81 22.0305 218.623 23.8336 227.545 27.0919L227.888 26.1526L228.231 25.2133C219.089 21.8744 209.043 20.0305 198.505 20.0305V21.0305ZM227.888 26.1526L228.236 27.0901C269.423 11.8053 332.605 2.00024 403.5 2.00024V1.00024V0.000244141C332.463 0.000244141 269.025 9.8199 227.54 25.2151L227.888 26.1526ZM403.5 1.00024V2.00024C442.864 2.00024 479.861 5.024 512.039 10.3336L512.202 9.34692L512.365 8.36026C480.069 3.03127 442.963 0.000244141 403.5 0.000244141V1.00024ZM512.202 9.34692L512.724 10.1997C541.961 -7.7038 593.839 -23.7555 654.185 -31.5441L654.057 -32.5359L653.929 -33.5277C593.449 -25.7218 541.256 -9.61769 511.68 8.49412L512.202 9.34692ZM1424.5 -30.9998V-29.9998C1442.88 -29.9998 1459.71 -27.1459 1472.8 -22.4173C1485.95 -17.6687 1495.12 -11.1082 1498.53 -3.85143L1499.43 -4.27612L1500.34 -4.70082C1496.59 -12.697 1486.77 -19.4983 1473.48 -24.2984C1460.13 -29.1183 1443.07 -31.9998 1424.5 -31.9998V-30.9998ZM1499.43 -4.27612L1499.72 -3.31828C1513.87 -7.56146 1530.37 -9.99976 1548 -9.99976V-10.9998V-11.9998C1530.19 -11.9998 1513.49 -9.53749 1499.15 -5.23397L1499.43 -4.27612ZM1548 -10.9998V-9.99976C1567.66 -9.99976 1585.92 -6.96646 1601.07 -1.78071C1616.24 3.41027 1628.22 10.7322 1635.42 19.2542L1636.19 18.6086L1636.95 17.9631C1629.43 9.06837 1617.08 1.58608 1601.72 -3.67295C1586.34 -8.93723 1567.86 -11.9998 1548 -11.9998V-10.9998ZM1636.19 18.6086L1636.44 19.5757C1657.1 14.1395 1681.44 11.0002 1707.5 11.0002V10.0002V9.00024C1681.29 9.00024 1656.78 12.1574 1635.93 17.6416L1636.19 18.6086ZM1707.5 10.0002V11.0002C1734.36 11.0002 1759.39 14.3365 1780.46 20.0855C1801.54 25.8387 1818.57 33.9892 1829.51 43.568L1830.17 42.8157L1830.83 42.0633C1819.58 32.2096 1802.22 23.9523 1780.98 18.156C1759.73 12.3554 1734.52 9.00024 1707.5 9.00024V10.0002ZM1830.17 42.8157L1830.89 43.5133C1856.95 16.7502 1901.86 -0.999756 1953 -0.999756V-1.99976V-2.99976C1901.45 -2.99976 1855.97 14.8845 1829.46 42.118L1830.17 42.8157ZM1953 -1.99976V-0.999756C1989.86 -0.999756 2023.5 8.22514 2049.18 23.4127L2049.69 22.552L2050.2 21.6913C2024.18 6.30276 1990.18 -2.99976 1953 -2.99976V-1.99976ZM2049.69 22.552L2050.33 23.3175C2085.23 -6.01218 2132.25 -23.9998 2184 -23.9998V-24.9998V-25.9998C2131.79 -25.9998 2084.31 -7.85096 2049.04 21.7865L2049.69 22.552ZM2184 -24.9998V-23.9998C2291.81 -23.9998 2379 54.0062 2379 150H2380H2381C2381 52.6946 2292.69 -25.9998 2184 -25.9998V-24.9998ZM2380 150H2379C2379 204.48 2350.93 253.141 2306.94 285.064L2307.53 285.873L2308.11 286.683C2352.56 254.433 2381 205.201 2381 150H2380ZM2307.53 285.873L2306.87 286.627C2317.08 295.531 2323 306.371 2323 318H2324H2325C2325 305.643 2318.7 294.292 2308.18 285.12L2307.53 285.873ZM2324 318H2323C2323 332.722 2313.5 346.198 2297.84 356.044C2282.19 365.883 2260.5 372 2236.5 372V373V374C2260.82 374 2282.89 367.806 2298.9 357.738C2314.91 347.678 2325 333.654 2325 318H2324ZM2236.5 373V372C2213.63 372 2192.86 366.447 2177.41 357.411C2161.95 348.366 2151.93 335.912 2150.25 322.138L2149.26 322.259L2148.27 322.38C2150.05 336.992 2160.62 349.908 2176.4 359.137C2192.2 368.376 2213.33 374 2236.5 374V373ZM2149.26 322.259L2149.42 321.272C2073.91 309.212 2013.54 258.391 1994.95 192.806L1993.98 193.078L1993.02 193.351C2011.85 259.777 2072.92 311.08 2149.1 323.247L2149.26 322.259ZM1993.98 193.078L1993.79 192.097C1980.85 194.636 1967.16 196 1953 196V197V198C1967.29 198 1981.1 196.623 1994.18 194.06L1993.98 193.078ZM1953 197V196C1899.19 196 1852.29 176.351 1826.98 147.238L1826.22 147.894L1825.47 148.55C1851.25 178.206 1898.77 198 1953 198V197ZM1826.22 147.894L1826.17 146.895C1824.96 146.963 1823.73 147 1822.5 147V148V149C1823.77 149 1825.03 148.962 1826.28 148.892L1826.22 147.894ZM1822.5 148V147C1810.53 147 1799.72 143.767 1791.88 138.575C1784.03 133.379 1779.23 126.292 1779.01 118.57L1778.01 118.599L1777.01 118.628C1777.26 127.198 1782.57 134.812 1790.78 140.243C1798.99 145.679 1810.19 149 1822.5 149V148ZM1778.01 118.599L1777.76 117.631C1757.27 122.939 1733.23 126 1707.5 126V127V128C1733.38 128 1757.59 124.921 1778.26 119.567L1778.01 118.599ZM1707.5 127V126C1676.51 126 1647.95 121.559 1625.12 114.097C1602.25 106.623 1585.27 96.1687 1577.21 84.2611L1576.39 84.8215L1575.56 85.3819C1583.99 97.8399 1601.48 108.475 1624.5 115.998C1647.56 123.535 1676.33 128 1707.5 128V127ZM1576.39 84.8215L1576.23 83.8337C1567.31 85.2407 1557.83 86.0002 1548 86.0002V87.0002V88.0002C1557.93 88.0002 1567.52 87.2329 1576.54 85.8093L1576.39 84.8215ZM1548 87.0002V86.0002C1521.61 86.0002 1497.78 80.5393 1480.57 71.7577C1463.31 62.9485 1453 50.9591 1453 38.0002L1452 38.0002L1451 38.0003C1451 52.1032 1462.18 64.6137 1479.66 73.5391C1497.2 82.4921 1521.37 88.0002 1548 88.0002V87.0002ZM1452 38.0002H1453C1453 36.6103 1453.12 35.234 1453.35 33.874L1452.36 33.7063L1451.38 33.5386C1451.13 35.0083 1451 36.4968 1451 38.0002H1452ZM1452.36 33.7063L1452.19 32.7207C1443.62 34.1901 1434.28 35.0002 1424.5 35.0002V36.0002V37.0002C1434.39 37.0002 1443.84 36.1813 1452.53 34.6919L1452.36 33.7063ZM1424.5 36.0002V35.0002C1403.48 35.0002 1384.5 31.2672 1370.81 25.2722C1363.96 22.2741 1358.48 18.73 1354.73 14.8452C1350.98 10.9652 1349 6.79504 1349 2.50023L1348 2.50024L1347 2.50026C1347 7.45615 1349.3 12.0988 1353.29 16.2346C1357.28 20.3656 1363.01 24.0401 1370.01 27.1043C1384 33.234 1403.27 37.0002 1424.5 37.0002V36.0002ZM1348 2.50024H1349C1349 -1.7946 1350.98 -5.96477 1354.73 -9.84474C1358.48 -13.7295 1363.96 -17.2737 1370.81 -20.2718C1384.5 -26.2667 1403.48 -29.9998 1424.5 -29.9998V-30.9998V-31.9998C1403.27 -31.9998 1384 -28.2335 1370.01 -22.1039C1363.01 -19.0397 1357.28 -15.3652 1353.29 -11.2342C1349.3 -7.0984 1347 -2.45568 1347 2.50024H1348Z"
            fill="#0A0602" mask="url(#path-1-inside-1_0_1)" />
    </g>
    <g filter="url(#filter1_n_0_1)">
        <mask id="path-3-inside-2_0_1" fill="white">
            <path
                d="M184.5 -64C213.113 -64 238.442 -52.9031 253.962 -35.8643C259.464 -36.6106 265.118 -37 270.888 -37C288.647 -37 305.324 -33.3147 319.775 -26.8555C335.107 -45.7132 360.176 -58 388.5 -58C425.166 -58 456.376 -37.4102 468.07 -8.62988C482.316 -27.2068 513.295 -42.6032 550.623 -47.4209C604.448 -54.3678 651.09 -36.688 654.802 -7.93164C658.513 20.8247 617.888 49.7678 564.063 56.7148C561.317 57.0693 558.59 57.3579 555.886 57.5859C551.818 62.5724 546.07 66.5865 539.29 69.1055C533.191 93.0216 506.865 111.01 475.312 111.01C451.686 111.01 430.991 100.925 419.522 85.8184C409.918 89.1622 399.453 91 388.5 91C376.675 91 365.418 88.8573 355.199 84.9902C337.47 107.117 306.336 121.796 270.888 121.796C228.302 121.796 191.942 100.612 177.572 70.7793C160.497 69.6984 144.838 64.6579 132.068 56.8203C120.76 67.6416 105.532 75.9156 88.0508 80.3574C89.982 89.7506 91 99.5005 91 109.5C91 129.47 86.9411 148.445 79.6465 165.568C107.156 181.047 125 205.934 125 234C125 267.633 99.3755 296.701 62.1982 310.483C62.7259 312.449 63 314.457 63 316.5C63 339.972 26.9589 359 -17.5 359C-61.9589 359 -98 339.972 -98 316.5C-98 304.734 -88.9433 294.084 -74.3096 286.389C-89.1512 271.952 -98 253.764 -98 234C-98 233.608 -97.9972 233.217 -97.9902 232.826C-141.25 210.373 -171 163.584 -171 109.5C-171 85.0421 -164.915 62.0764 -154.249 42.1777C-161.12 33.2269 -165 23.0735 -165 12.3115C-165 -23.7588 -121.426 -52.9999 -67.6738 -53C-45.7384 -53 -25.4977 -48.1302 -9.22168 -39.9141C7.94569 -53.538 31.9436 -62 58.5 -62C83.1036 -62 105.511 -54.7363 122.325 -42.834C137.913 -55.8665 160.003 -64 184.5 -64ZM2222 -126C2330.25 -126 2418 -47.6498 2418 49C2418 119.778 2370.94 180.739 2303.23 208.306C2306.31 217.344 2308 227.193 2308 237.5C2308 281.407 2277.33 317 2239.5 317C2201.67 317 2171 281.407 2171 237.5C2171 230.944 2171.68 224.574 2172.97 218.479C2126.14 207.711 2086.09 181.876 2059.68 147.107C2055.22 148.334 2050.46 149 2045.5 149C2021.77 149 2002.39 133.771 2001.07 114.581C1963.77 107.232 1932.94 83.7269 1917.56 52.3662C1897.92 68.1259 1869.77 78 1838.5 78C1809.83 78 1783.79 69.7016 1764.52 56.1768C1749.11 65.8463 1725.93 72 1700 72C1653.61 72 1616 52.3005 1616 28C1616 26.9297 1616.07 25.8685 1616.22 24.8174C1614.18 24.9362 1612.1 25 1610 25C1579.07 25 1554 11.7924 1554 -4.5C1554 -20.7924 1579.07 -34 1610 -34C1636.13 -34 1658.07 -24.5749 1664.26 -11.8271C1675.1 -14.5021 1687.22 -16 1700 -16C1711.35 -16 1722.18 -14.8175 1732.05 -12.6797C1739.4 -51.2929 1784.26 -81 1838.5 -81C1873.37 -81 1904.36 -68.7215 1924 -49.6924C1944.83 -81.6355 1982.71 -103 2026 -103C2051.21 -103 2074.58 -95.7554 2093.82 -83.3965C2128.19 -109.942 2172.99 -126 2222 -126Z" />
        </mask>
        <path
            d="M184.5 -64C213.113 -64 238.442 -52.9031 253.962 -35.8643C259.464 -36.6106 265.118 -37 270.888 -37C288.647 -37 305.324 -33.3147 319.775 -26.8555C335.107 -45.7132 360.176 -58 388.5 -58C425.166 -58 456.376 -37.4102 468.07 -8.62988C482.316 -27.2068 513.295 -42.6032 550.623 -47.4209C604.448 -54.3678 651.09 -36.688 654.802 -7.93164C658.513 20.8247 617.888 49.7678 564.063 56.7148C561.317 57.0693 558.59 57.3579 555.886 57.5859C551.818 62.5724 546.07 66.5865 539.29 69.1055C533.191 93.0216 506.865 111.01 475.312 111.01C451.686 111.01 430.991 100.925 419.522 85.8184C409.918 89.1622 399.453 91 388.5 91C376.675 91 365.418 88.8573 355.199 84.9902C337.47 107.117 306.336 121.796 270.888 121.796C228.302 121.796 191.942 100.612 177.572 70.7793C160.497 69.6984 144.838 64.6579 132.068 56.8203C120.76 67.6416 105.532 75.9156 88.0508 80.3574C89.982 89.7506 91 99.5005 91 109.5C91 129.47 86.9411 148.445 79.6465 165.568C107.156 181.047 125 205.934 125 234C125 267.633 99.3755 296.701 62.1982 310.483C62.7259 312.449 63 314.457 63 316.5C63 339.972 26.9589 359 -17.5 359C-61.9589 359 -98 339.972 -98 316.5C-98 304.734 -88.9433 294.084 -74.3096 286.389C-89.1512 271.952 -98 253.764 -98 234C-98 233.608 -97.9972 233.217 -97.9902 232.826C-141.25 210.373 -171 163.584 -171 109.5C-171 85.0421 -164.915 62.0764 -154.249 42.1777C-161.12 33.2269 -165 23.0735 -165 12.3115C-165 -23.7588 -121.426 -52.9999 -67.6738 -53C-45.7384 -53 -25.4977 -48.1302 -9.22168 -39.9141C7.94569 -53.538 31.9436 -62 58.5 -62C83.1036 -62 105.511 -54.7363 122.325 -42.834C137.913 -55.8665 160.003 -64 184.5 -64ZM2222 -126C2330.25 -126 2418 -47.6498 2418 49C2418 119.778 2370.94 180.739 2303.23 208.306C2306.31 217.344 2308 227.193 2308 237.5C2308 281.407 2277.33 317 2239.5 317C2201.67 317 2171 281.407 2171 237.5C2171 230.944 2171.68 224.574 2172.97 218.479C2126.14 207.711 2086.09 181.876 2059.68 147.107C2055.22 148.334 2050.46 149 2045.5 149C2021.77 149 2002.39 133.771 2001.07 114.581C1963.77 107.232 1932.94 83.7269 1917.56 52.3662C1897.92 68.1259 1869.77 78 1838.5 78C1809.83 78 1783.79 69.7016 1764.52 56.1768C1749.11 65.8463 1725.93 72 1700 72C1653.61 72 1616 52.3005 1616 28C1616 26.9297 1616.07 25.8685 1616.22 24.8174C1614.18 24.9362 1612.1 25 1610 25C1579.07 25 1554 11.7924 1554 -4.5C1554 -20.7924 1579.07 -34 1610 -34C1636.13 -34 1658.07 -24.5749 1664.26 -11.8271C1675.1 -14.5021 1687.22 -16 1700 -16C1711.35 -16 1722.18 -14.8175 1732.05 -12.6797C1739.4 -51.2929 1784.26 -81 1838.5 -81C1873.37 -81 1904.36 -68.7215 1924 -49.6924C1944.83 -81.6355 1982.71 -103 2026 -103C2051.21 -103 2074.58 -95.7554 2093.82 -83.3965C2128.19 -109.942 2172.99 -126 2222 -126Z"
            fill="#F33900" />
        <path
            d="M253.962 -35.8643L253.223 -35.1909L253.576 -34.8028L254.096 -34.8733L253.962 -35.8643ZM270.888 -37V-38V-37ZM319.775 -26.8555L319.367 -25.9425L320.068 -25.6296L320.551 -26.2246L319.775 -26.8555ZM468.07 -8.62988L467.144 -8.25343L467.801 -6.63568L468.864 -8.02136L468.07 -8.62988ZM550.623 -47.4209L550.495 -48.4127L550.623 -47.4209ZM654.802 -7.93164L655.794 -8.05964V-8.05965L654.802 -7.93164ZM564.063 56.7148L564.191 57.7066L564.063 56.7148ZM555.886 57.5859L555.802 56.5895L555.379 56.6251L555.111 56.9538L555.886 57.5859ZM539.29 69.1055L538.942 68.1681L538.451 68.3506L538.321 68.8584L539.29 69.1055ZM475.312 111.01V112.01V111.01ZM419.522 85.8184L420.319 85.2137L419.88 84.6351L419.194 84.874L419.522 85.8184ZM355.199 84.9902L355.553 84.055L354.873 83.7977L354.419 84.3649L355.199 84.9902ZM270.888 121.796V122.796V121.796ZM177.572 70.7793L178.473 70.3453L178.219 69.8183L177.635 69.7813L177.572 70.7793ZM132.068 56.8203L132.591 55.968L131.934 55.5646L131.377 56.0978L132.068 56.8203ZM88.0508 80.3574L87.8045 79.3882L86.8789 79.6234L87.0713 80.5588L88.0508 80.3574ZM79.6465 165.568L78.7265 165.176L78.3754 166.001L79.1561 166.44L79.6465 165.568ZM62.1982 310.483L61.8506 309.546L60.9962 309.863L61.2324 310.743L62.1982 310.483ZM-74.3096 286.389L-73.8441 287.274L-72.6247 286.632L-73.6123 285.672L-74.3096 286.389ZM-97.9902 232.826L-96.9904 232.844L-96.9794 232.224L-97.5296 231.939L-97.9902 232.826ZM-154.249 42.1777L-153.368 42.6502L-153.063 42.081L-153.456 41.5688L-154.249 42.1777ZM-165 12.3115H-166H-165ZM-67.6738 -53V-54V-53ZM-9.22168 -39.9141L-9.67232 -39.0214L-9.1012 -38.733L-8.60005 -39.1308L-9.22168 -39.9141ZM122.325 -42.834L121.747 -42.0178L122.376 -41.5729L122.967 -42.0668L122.325 -42.834ZM2303.23 208.306L2302.86 207.379L2301.98 207.735L2302.29 208.628L2303.23 208.306ZM2172.97 218.479L2173.95 218.686L2174.15 217.725L2173.2 217.505L2172.97 218.479ZM2059.68 147.107L2060.47 146.503L2060.06 145.964L2059.41 146.143L2059.68 147.107ZM2001.07 114.581L2002.07 114.513L2002.02 113.748L2001.27 113.6L2001.07 114.581ZM1917.56 52.3662L1918.46 51.9259L1917.91 50.8049L1916.93 51.5862L1917.56 52.3662ZM1764.52 56.1768L1765.09 55.3582L1764.55 54.9768L1763.99 55.3297L1764.52 56.1768ZM1616.22 24.8174L1617.21 24.9526L1617.37 23.7485L1616.16 23.8191L1616.22 24.8174ZM1664.26 -11.8271L1663.36 -11.3906L1663.71 -10.6624L1664.5 -10.8562L1664.26 -11.8271ZM1732.05 -12.6797L1731.84 -11.7023L1732.85 -11.4854L1733.04 -12.4927L1732.05 -12.6797ZM1924 -49.6924L1923.31 -48.9742L1924.18 -48.1302L1924.84 -49.1463L1924 -49.6924ZM2093.82 -83.3965L2093.28 -82.5551L2093.88 -82.1739L2094.43 -82.6051L2093.82 -83.3965ZM184.5 -64V-63C212.867 -63 237.915 -51.997 253.223 -35.1909L253.962 -35.8643L254.701 -36.5376C238.969 -53.8093 213.359 -65 184.5 -65V-64ZM253.962 -35.8643L254.096 -34.8733C259.553 -35.6137 265.163 -36 270.888 -36V-37V-38C265.073 -38 259.374 -37.6076 253.827 -36.8552L253.962 -35.8643ZM270.888 -37V-36C288.51 -36 305.047 -32.3431 319.367 -25.9425L319.775 -26.8555L320.183 -27.7684C305.601 -34.2863 288.785 -38 270.888 -38V-37ZM319.775 -26.8555L320.551 -26.2246C335.684 -44.837 360.461 -57 388.5 -57V-58V-59C359.891 -59 334.531 -46.5894 318.999 -27.4863L319.775 -26.8555ZM388.5 -58V-57C424.807 -57 455.62 -36.6143 467.144 -8.25343L468.07 -8.62988L468.997 -9.00633C457.132 -38.206 425.525 -59 388.5 -59V-58ZM468.07 -8.62988L468.864 -8.02136C482.886 -26.3069 513.567 -41.6299 550.751 -46.4291L550.623 -47.4209L550.495 -48.4127C513.024 -43.5764 481.746 -28.1067 467.277 -9.2384L468.07 -8.62988ZM550.623 -47.4209L550.751 -46.4291C577.533 -49.8858 602.48 -47.207 621.15 -40.1299C639.866 -33.0357 652.024 -21.6381 653.81 -7.80363L654.802 -7.93164L655.794 -8.05965C653.868 -22.9815 640.849 -34.802 621.859 -42.0001C602.825 -49.2152 577.538 -51.9029 550.495 -48.4127L550.623 -47.4209ZM654.802 -7.93164L653.81 -7.80364C655.595 6.03081 646.729 20.1419 630.428 31.7556C614.166 43.3414 590.718 52.2664 563.935 55.7231L564.063 56.7148L564.191 57.7066C591.234 54.2163 615.01 45.1962 631.589 33.3845C648.128 21.6009 657.719 6.86221 655.794 -8.05964L654.802 -7.93164ZM564.063 56.7148L563.935 55.7231C561.204 56.0755 558.491 56.3627 555.802 56.5895L555.886 57.5859L555.97 58.5824C558.688 58.3532 561.43 58.063 564.191 57.7066L564.063 56.7148ZM555.886 57.5859L555.111 56.9538C551.167 61.7882 545.573 65.7044 538.942 68.1681L539.29 69.1055L539.638 70.0429C546.567 67.4686 552.469 63.3567 556.661 58.218L555.886 57.5859ZM539.29 69.1055L538.321 68.8584C532.365 92.215 506.54 110.01 475.312 110.01V111.01V112.01C507.189 112.01 534.017 93.8283 540.259 69.3526L539.29 69.1055ZM475.312 111.01V110.01C451.955 110.01 431.573 100.038 420.319 85.2137L419.522 85.8184L418.726 86.423C430.408 101.812 451.417 112.01 475.312 112.01V111.01ZM419.522 85.8184L419.194 84.874C409.695 88.181 399.34 90 388.5 90V91V92C399.565 92 410.141 90.1434 419.851 86.7628L419.522 85.8184ZM388.5 91V90C376.796 90 365.659 87.8793 355.553 84.055L355.199 84.9902L354.845 85.9255C365.177 89.8354 376.554 92 388.5 92V91ZM355.199 84.9902L354.419 84.3649C336.905 106.223 306.076 120.796 270.888 120.796V121.796V122.796C306.597 122.796 338.036 108.011 355.98 85.6155L355.199 84.9902ZM270.888 121.796V120.796C228.599 120.796 192.642 99.7604 178.473 70.3453L177.572 70.7793L176.671 71.2133C191.242 101.464 228.005 122.796 270.888 122.796V121.796ZM177.572 70.7793L177.635 69.7813C160.715 68.7102 145.216 63.7162 132.591 55.968L132.068 56.8203L131.545 57.6726C144.461 65.5996 160.279 70.6866 177.509 71.7773L177.572 70.7793ZM132.068 56.8203L131.377 56.0978C120.206 66.7875 105.136 74.9842 87.8045 79.3882L88.0508 80.3574L88.2971 81.3266C105.927 76.847 121.313 68.4958 132.76 57.5428L132.068 56.8203ZM88.0508 80.3574L87.0713 80.5588C88.989 89.886 90 99.5685 90 109.5H91H92C92 99.4325 90.9751 89.6151 89.0303 80.156L88.0508 80.3574ZM91 109.5H90C90 129.334 85.969 148.175 78.7265 165.176L79.6465 165.568L80.5665 165.96C87.9133 148.714 92 129.607 92 109.5H91ZM79.6465 165.568L79.1561 166.44C106.445 181.795 124 206.392 124 234H125H126C126 205.477 107.867 180.3 80.1369 164.697L79.6465 165.568ZM125 234H124C124 267.079 98.7805 295.855 61.8506 309.546L62.1982 310.483L62.5458 311.421C99.9704 297.547 126 268.187 126 234H125ZM62.1982 310.483L61.2324 310.743C61.7381 312.626 62 314.548 62 316.5H63H64C64 314.367 63.7136 312.271 63.164 310.224L62.1982 310.483ZM63 316.5H62C62 327.682 53.3975 338.043 38.9552 345.668C24.5583 353.269 4.60007 358 -17.5 358V359V360C4.85886 360 25.1506 355.217 39.889 347.436C54.5819 339.679 64 328.79 64 316.5H63ZM-17.5 359V358C-39.6001 358 -59.5583 353.269 -73.9552 345.668C-88.3975 338.043 -97 327.682 -97 316.5H-98H-99C-99 328.79 -89.5819 339.679 -74.889 347.436C-60.1506 355.217 -39.8589 360 -17.5 360V359ZM-98 316.5H-97C-97 305.29 -88.3529 294.904 -73.8441 287.274L-74.3096 286.389L-74.775 285.504C-89.5337 293.265 -99 304.178 -99 316.5H-98ZM-74.3096 286.389L-73.6123 285.672C-88.2952 271.39 -97 253.449 -97 234H-98H-99C-99 254.079 -90.0071 272.515 -75.0068 287.105L-74.3096 286.389ZM-98 234H-97C-97 233.613 -96.9972 233.228 -96.9904 232.844L-97.9902 232.826L-98.9901 232.808C-98.9971 233.206 -99 233.603 -99 234H-98ZM-97.9902 232.826L-97.5296 231.939C-140.454 209.659 -170 163.215 -170 109.5H-171H-172C-172 163.953 -142.046 211.087 -98.4509 233.714L-97.9902 232.826ZM-171 109.5H-170C-170 85.2093 -163.957 62.4056 -153.368 42.6502L-154.249 42.1777L-155.13 41.7053C-165.873 61.7472 -172 84.8749 -172 109.5H-171ZM-154.249 42.1777L-153.456 41.5688C-160.213 32.7659 -164 22.8218 -164 12.3115H-165H-166C-166 23.3252 -162.027 33.6879 -155.042 42.7867L-154.249 42.1777ZM-165 12.3115H-164C-164 -5.28832 -153.37 -21.3417 -135.937 -33.0402C-118.51 -44.7344 -94.3785 -51.9999 -67.6738 -52V-53V-54C-94.7209 -53.9999 -119.252 -46.6448 -137.051 -34.7009C-154.843 -22.7613 -166 -6.15895 -166 12.3115H-165ZM-67.6738 -53V-52C-45.8818 -52 -25.7973 -47.1612 -9.67232 -39.0214L-9.22168 -39.9141L-8.77104 -40.8068C-25.198 -49.0991 -45.595 -54 -67.6738 -54V-53ZM-9.22168 -39.9141L-8.60005 -39.1308C8.37544 -52.6024 32.1493 -61 58.5 -61V-62V-63C31.7379 -63 7.51596 -54.4736 -9.84331 -40.6974L-9.22168 -39.9141ZM58.5 -62V-61C82.9117 -61 105.114 -53.7921 121.747 -42.0178L122.325 -42.834L122.903 -43.6502C105.908 -55.6805 83.2955 -63 58.5 -63V-62ZM122.325 -42.834L122.967 -42.0668C138.36 -54.9368 160.218 -63 184.5 -63V-64V-65C159.789 -65 137.466 -56.7962 121.684 -43.6012L122.325 -42.834ZM2222 -126V-125C2329.81 -125 2417 -46.994 2417 49H2418H2419C2419 -48.3057 2330.69 -127 2222 -127V-126ZM2418 49H2417C2417 119.306 2370.25 179.94 2302.86 207.379L2303.23 208.306L2303.61 209.232C2371.63 181.537 2419 120.249 2419 49H2418ZM2303.23 208.306L2302.29 208.628C2305.33 217.562 2307 227.302 2307 237.5H2308H2309C2309 227.083 2307.29 217.125 2304.18 207.983L2303.23 208.306ZM2308 237.5H2307C2307 280.999 2276.64 316 2239.5 316V317V318C2278.02 318 2309 281.814 2309 237.5H2308ZM2239.5 317V316C2202.36 316 2172 280.999 2172 237.5H2171H2170C2170 281.814 2200.98 318 2239.5 318V317ZM2171 237.5H2172C2172 231.014 2172.68 224.713 2173.95 218.686L2172.97 218.479L2171.99 218.273C2170.69 224.435 2170 230.875 2170 237.5H2171ZM2172.97 218.479L2173.2 217.505C2126.58 206.786 2086.73 181.075 2060.47 146.503L2059.68 147.107L2058.88 147.712C2085.44 182.677 2125.7 208.636 2172.75 219.454L2172.97 218.479ZM2059.68 147.107L2059.41 146.143C2055.04 147.346 2050.37 148 2045.5 148V149V150C2050.55 150 2055.4 149.322 2059.94 148.072L2059.68 147.107ZM2045.5 149V148C2022.13 148 2003.34 133.023 2002.07 114.513L2001.07 114.581L2000.08 114.649C2001.44 134.52 2021.42 150 2045.5 150V149ZM2001.07 114.581L2001.27 113.6C1964.25 106.308 1933.69 82.9911 1918.46 51.9259L1917.56 52.3662L1916.66 52.8065C1932.19 84.4626 1963.29 108.156 2000.88 115.562L2001.07 114.581ZM1917.56 52.3662L1916.93 51.5862C1897.49 67.1878 1869.57 77 1838.5 77V78V79C1869.97 79 1898.34 69.064 1918.19 53.1462L1917.56 52.3662ZM1838.5 78V77C1810.02 77 1784.18 68.7543 1765.09 55.3582L1764.52 56.1768L1763.94 56.9953C1783.4 70.6488 1809.65 79 1838.5 79V78ZM1764.52 56.1768L1763.99 55.3297C1748.77 64.8753 1725.79 71 1700 71V72V73C1726.06 73 1749.44 66.8173 1765.05 57.0238L1764.52 56.1768ZM1700 72V71C1676.93 71 1656.1 66.1002 1641.07 58.2269C1625.99 50.3287 1617 39.5918 1617 28H1616H1615C1615 40.7087 1624.82 51.9718 1640.14 59.9985C1655.51 68.05 1676.68 73 1700 73V72ZM1616 28H1617C1617 26.9761 1617.07 25.9601 1617.21 24.9526L1616.22 24.8174L1615.23 24.6822C1615.08 25.7769 1615 26.8833 1615 28H1616ZM1616.22 24.8174L1616.16 23.8191C1614.14 23.9368 1612.08 24 1610 24V25V26C1612.12 26 1614.22 25.9356 1616.28 25.8157L1616.22 24.8174ZM1610 25V24C1594.67 24 1580.83 20.7235 1570.87 15.4749C1560.86 10.2021 1555 3.09068 1555 -4.5H1554H1553C1553 4.20172 1559.68 11.8403 1569.94 17.2444C1580.24 22.6727 1594.41 26 1610 26V25ZM1554 -4.5H1555C1555 -12.0907 1560.86 -19.2021 1570.87 -24.4749C1580.83 -29.7235 1594.67 -33 1610 -33V-34V-35C1594.41 -35 1580.24 -31.6727 1569.94 -26.2444C1559.68 -20.8403 1553 -13.2017 1553 -4.5H1554ZM1610 -34V-33C1622.95 -33 1634.84 -30.6632 1644.22 -26.7702C1653.64 -22.866 1660.42 -17.4527 1663.36 -11.3906L1664.26 -11.8271L1665.16 -12.2637C1661.91 -18.9493 1654.63 -24.6225 1644.99 -28.6177C1635.33 -32.6243 1623.18 -35 1610 -35V-34ZM1664.26 -11.8271L1664.5 -10.8562C1675.26 -13.5109 1687.3 -15 1700 -15V-16V-17C1687.14 -17 1674.95 -15.4933 1664.02 -12.798L1664.26 -11.8271ZM1700 -16V-15C1711.28 -15 1722.04 -13.8245 1731.84 -11.7023L1732.05 -12.6797L1732.27 -13.6571C1722.32 -15.8105 1711.42 -17 1700 -17V-16ZM1732.05 -12.6797L1733.04 -12.4927C1740.26 -50.4506 1784.53 -80 1838.5 -80V-81V-82C1784 -82 1738.55 -52.1353 1731.07 -12.8666L1732.05 -12.6797ZM1838.5 -81V-80C1873.15 -80 1903.88 -67.7967 1923.31 -48.9742L1924 -49.6924L1924.7 -50.4106C1904.84 -69.6464 1873.59 -82 1838.5 -82V-81ZM1924 -49.6924L1924.84 -49.1463C1945.47 -80.7984 1983.04 -102 2026 -102V-103V-104C1982.39 -104 1944.18 -82.4726 1923.17 -50.2385L1924 -49.6924ZM2026 -103V-102C2051.01 -102 2074.2 -94.811 2093.28 -82.5551L2093.82 -83.3965L2094.36 -84.2379C2074.96 -96.6997 2051.4 -104 2026 -104V-103ZM2093.82 -83.3965L2094.43 -82.6051C2128.62 -109.013 2173.21 -125 2222 -125V-126V-127C2172.77 -127 2127.75 -110.87 2093.21 -84.1879L2093.82 -83.3965Z"
            fill="#0A0602" mask="url(#path-3-inside-2_0_1)" />
    </g>
    <defs>
        <radialGradient id="paint0_radial_0_1" cx="0" cy="0" r="1" gradientUnits="userSpaceOnUse"
            gradientTransform="translate(1130 770.999) rotate(-90) scale(1623 1623)">
            <stop stop-color="#C80002" />
            <stop offset="1" stop-color="#790001" />
        </radialGradient>
    </defs>
</svg>