<?xml version="1.0" encoding="UTF-8"?>
<svg id="a" data-name="レイヤー 1" xmlns="http://www.w3.org/2000/svg" xmlns:xlink="http://www.w3.org/1999/xlink" viewBox="0 0 2237 538.03">
  <defs>
    <style>
      .e {
        fill: url(#c);
      }

      .f {
        fill: url(#d);
      }

      .g {
        fill: url(#b);
      }
    </style>
    <radialGradient id="b" data-name="名称未設定グラデーション" cx="990.05" cy="187.36" fx="990.05" fy="187.36" r="1373.82" gradientUnits="userSpaceOnUse">
      <stop offset="0" stop-color="#c80002"/>
      <stop offset="1" stop-color="#790001"/>
    </radialGradient>
    <radialGradient id="c" data-name="名称未設定グラデーション" cx="-336.18" cy="195.5" fx="-336.18" fy="195.5" r="1293.87" xlink:href="#b"/>
    <radialGradient id="d" data-name="名称未設定グラデーション" cx="-71.27" cy="498.12" fx="-71.27" fy="498.12" r="274.02" xlink:href="#b"/>
  </defs>
  <path class="g" d="M2079.9,1.71c-10.82,6.07-20.94,13.05-30.21,20.84-16.19-9.57-35.51-16.78-56.78-20.84h-79.77c-34.43,6.55-63.75,21.37-82.97,41.1-22.19-19.43-68.78-32.82-122.67-32.82-26.14,0-50.56,3.15-71.31,8.61-5.47-6.47-13.6-12.22-23.68-16.89h-264.46c-.01.26-.05.52-.05.79,0,18.5,34.25,33.5,76.5,33.5,9.83,0,19.23-.81,27.86-2.29-.24,1.41-.36,2.85-.36,4.29,0,27.06,42.98,49,96,49,9.88,0,19.41-.76,28.39-2.18,16.48,24.37,68.94,42.18,131.11,42.18,25.8,0,49.93-3.07,70.51-8.4.47,16.29,20.21,29.4,44.49,29.4,1.25,0,2.5-.04,3.72-.11,25.55,29.38,72.76,49.11,126.78,49.11,14.22,0,27.97-1.37,40.98-3.92,18.72,66.01,79.44,117.07,155.28,129.18,3.46,28.39,41.2,50.74,87.24,50.74.17,0,.33,0,.5,0V1.71h-157.1Z"/>
  <path class="e" d="M529.89,0c-6.55,3.03-12.48,6.16-17.68,9.35-32.24-5.32-69.29-8.35-108.7-8.35-70.97,0-134.28,9.81-175.61,25.15-9.03-3.3-18.96-5.12-29.38-5.12-20.19,0-38.52,6.84-52.08,17.99-13.43-10.57-31.28-17.02-50.87-17.02-6.81,0-13.4.78-19.68,2.24-3.87-9.04-10.59-17.27-19.43-24.24H0v388.86c6.81,1.39,14.02,2.14,21.5,2.14,28.94,0,54.03-11.19,66.36-27.53,2.64.35,5.36.53,8.14.53,18.88,0,35.1-8.41,42.19-20.43,44.77-9.3,75.81-29.57,75.81-53.07,0-24.84-34.66-46.06-83.55-54.54,6.79-12.57,10.55-26.41,10.55-40.96,0-17.31-5.33-33.63-14.75-47.99,7.95-3.06,15.17-7.26,21.39-12.38,13.43,10.58,31.28,17.02,50.87,17.02,9.64,0,18.87-1.56,27.35-4.41,10.55,34.86,50.03,60.76,97.12,60.76,33.4,0,62.97-13.03,81.1-33.04,7.26,6.97,16.68,11.18,26.99,11.18,16.49,0,30.73-10.77,37.42-26.38,10.63,6.03,23.61,9.58,37.61,9.58,26.5,0,49.32-12.69,59.56-30.93,2.13.28,4.31.44,6.54.44,21.93,0,39.7-14.33,39.7-32.02,0-3.82-.83-7.48-2.35-10.87,9.54-6.41,15.85-13.34,18.3-20.61,12.79-.76,26.07-2,39.64-3.75,92.88-11.99,165.95-43.54,167.44-71.6h-305.05Z"/>
  <path class="f" d="M109.69,487.91c-4.91-10.28-23.05-17.91-44.69-17.91-8,0-15.53,1.04-22.09,2.88-9.86-7.09-25.06-12.4-42.91-14.67v79.82c21.5-1.64,39.9-5.26,52.28-10.08,9.35.68,19.34,1.05,29.72,1.05,52.47,0,95-9.4,95-21,0-9.47-28.35-17.47-67.31-20.09Z"/>
</svg>