<?xml version="1.0" encoding="UTF-8"?>
<svg id="a" data-name="レイヤー 1" xmlns="http://www.w3.org/2000/svg" xmlns:xlink="http://www.w3.org/1999/xlink" viewBox="0 0 2237 620">
  <defs>
    <style>
      .e {
        fill: url(#c);
      }

      .f {
        fill: url(#d);
      }

      .g {
        fill: url(#b);
      }
    </style>
    <radialGradient id="b" data-name="名称未設定グラデーション" cx="449.21" cy="435.62" fx="449.21" fy="435.62" r="595.72" gradientUnits="userSpaceOnUse">
      <stop offset="0" stop-color="#c80002"/>
      <stop offset="1" stop-color="#790001"/>
    </radialGradient>
    <radialGradient id="c" data-name="名称未設定グラデーション" cx="1846.47" cy="416.33" fx="1846.47" fy="416.33" r="480.68" xlink:href="#b"/>
    <radialGradient id="d" data-name="名称未設定グラデーション" cx="2112.69" cy="58.07" fx="2112.69" fy="58.07" r="150.61" xlink:href="#b"/>
  </defs>
  <path class="g" d="M134.19,606.4c2.83,4.86,5.98,9.41,9.41,13.6h117.8c2.95-3.6,5.7-7.47,8.21-11.58,12.76,5.82,27.1,9.83,42.42,11.58h34.97c26.89-3.08,50.77-13.13,68.34-27.67,10.54,11.36,28.55,20.99,51.28,27.67h149.75c22.83-6.71,40.9-16.38,51.41-27.81,11.97,6.15,26.95,9.81,43.21,9.81.82,0,1.63-.01,2.44-.03-.94,3.57-1.44,7.26-1.44,11.03,0,2.37.22,4.7.6,7h249.96c.28-2.3.44-4.63.44-7,0-32.03-26.41-58-59-58-19.74,0-37.21,9.53-47.92,24.16-14.43-14.63-37.98-24.16-64.58-24.16-3.22,0-6.39.14-9.51.41,0-.3.01-.61.01-.91,0-26.23-31.79-47.5-71-47.5-26.67,0-49.9,9.84-62.04,24.38-24.99-14.24-63.83-23.38-107.46-23.38-37.35,0-71.2,6.71-95.85,17.57-4.65-45.64-54.88-81.57-116.15-81.57-27.34,0-52.49,7.16-72.36,19.14-14.73-15.68-33.81-25.14-54.64-25.14-6.88,0-13.57,1.03-19.97,2.98,10.51-12.21,16.47-26.16,16.47-40.98,0-37.02-37.21-68.64-89.66-81.21.44-2.23.66-4.49.66-6.79,0-30.38-39.17-55-87.5-55-7.78,0-15.32.64-22.5,1.84v353.07c17.93,5.19,37.92,8.09,59,8.09,27.67,0,53.47-4.99,75.19-13.6Z"/>
  <path class="e" d="M2237,219.01c-28.73.13-53.6,11.28-65.86,27.52-2.65-.35-5.36-.53-8.14-.53-18.88,0-35.1,8.41-42.19,20.43-44.77,9.3-75.81,29.57-75.81,53.07,0,26.93,40.73,49.6,96.19,56.41-14.62,16.78-23.19,37.14-23.19,59.09,0,26.81,12.78,51.25,33.76,69.69-8.46,2.42-16.26,6.1-23.09,10.77-11.97-21.57-37.22-36.58-66.6-37.1-13.34-34.33-57.95-59.57-110.93-59.57-40.13,0-75.45,14.48-96.03,36.42-7.28-7.07-16.78-11.36-27.17-11.36-16.49,0-30.73,10.77-37.43,26.38-10.63-6.03-23.6-9.58-37.61-9.58-26.5,0-49.32,12.69-59.56,30.93-2.12-.29-4.31-.44-6.54-.44-21.25,0-38.6,13.47-39.65,30.4-4.98.42-10.03.96-15.13,1.62-73.75,9.52-130.53,40.55-126.82,69.3,1.49,11.56,12.54,21,30.02,27.53h148.99c8.57-2.16,16.74-4.61,24.37-7.29,10.64,2.74,22.15,5.18,34.38,7.29h225.08c24.22-4.18,45.62-9.67,63.08-16.15,9.03,3.3,18.96,5.12,29.39,5.12,17.69,0,33.96-5.26,46.84-14.06,5.58,10.06,14.06,18.69,24.49,25.09h105.17V219.01Z"/>
  <path class="f" d="M2237,6.48c-10.79-4.12-23.23-6.48-36.5-6.48-26.24,0-49.32,9.2-62.59,23.1-6.51-2.61-13.98-4.1-21.91-4.1-21.32,0-39.26,10.73-44.47,25.28-39.07,3.72-67.53,15.17-67.53,28.72,0,16.57,42.53,30,95,30,10.12,0,19.88-.5,29.03-1.43,17.04,9.91,46.05,16.43,78.97,16.43,10.48,0,20.57-.66,30-1.88V6.48Z"/>
</svg>