<?xml version="1.0" encoding="UTF-8"?>
<svg id="a" data-name="レイヤー 1" xmlns="http://www.w3.org/2000/svg" xmlns:xlink="http://www.w3.org/1999/xlink" viewBox="0 0 834.18 306.87">
  <defs>
    <style>
      .c {
        fill: url(#b);
      }
    </style>
    <radialGradient id="b" data-name="名称未設定グラデーション" cx="389.12" cy="151" fx="389.12" fy="151" r="514.63" gradientUnits="userSpaceOnUse">
      <stop offset="0" stop-color="#c80002"/>
      <stop offset="1" stop-color="#790001"/>
    </radialGradient>
  </defs>
  <path class="c" d="M834.18,306.87c-11.77-4.99-25.43-7.86-40.02-7.86-3.23,0-6.41.14-9.54.41,0-.3.01-.61.01-.91,0-26.32-31.9-47.66-71.24-47.66-26.76,0-50.07,9.87-62.25,24.47-25.07-14.28-64.05-23.46-107.82-23.46-37.48,0-71.45,6.73-96.18,17.63-4.67-45.79-55.06-81.85-116.54-81.85-27.43,0-52.66,7.18-72.6,19.2-14.78-15.73-33.92-25.22-54.82-25.22-6.9,0-13.61,1.04-20.04,2.99,10.55-12.25,16.53-26.25,16.53-41.12,0-37.15-37.34-68.87-89.97-81.48.44-2.23.66-4.51.66-6.82C110.37,24.71,71.07,0,22.58,0,14.77,0,7.21.64,0,1.85v305.02h834.18Z"/>
</svg>