<?xml version="1.0" encoding="UTF-8"?>
<svg id="a" data-name="レイヤー 1" xmlns="http://www.w3.org/2000/svg" xmlns:xlink="http://www.w3.org/1999/xlink" viewBox="0 0 880 351.99">
  <defs>
    <style>
      .c {
        fill: url(#b);
      }
    </style>
    <radialGradient id="b" data-name="名称未設定グラデーション" cx="-291.94" cy="258.07" fx="-291.94" fy="258.07" r="1223.49" gradientUnits="userSpaceOnUse">
      <stop offset="0" stop-color="#c80002"/>
      <stop offset="1" stop-color="#790001"/>
    </radialGradient>
  </defs>
  <path class="c" d="M839.19,30.49c-13.6-11.19-32-18.05-52.25-18.05-24.17,0-45.7,9.78-59.59,25.01-11.37,4.96-21.41,11.63-29.55,19.57-6.62-4.97-14.58-7.87-23.15-7.87-5.28,0-10.34,1.11-14.99,3.12-6.1-11.49-17.13-20.89-30.96-26.46,5.78-7.99,10.26-16.65,13.24-25.81H224.77c2.98,9.16,7.46,17.82,13.24,25.81-13.83,5.58-24.86,14.97-30.96,26.46-4.65-2.01-9.71-3.12-14.99-3.12-8.57,0-16.53,2.9-23.15,7.87-8.15-7.94-18.18-14.61-29.55-19.57-13.88-15.23-35.41-25.01-59.58-25.01-20.25,0-38.65,6.87-52.25,18.05-7.84-6.18-17.2-10.94-27.52-13.85v335.34c8.5-3.64,15.3-9.22,19.25-15.93,44.92-9.33,76.07-29.66,76.07-53.25,0-24.92-34.77-46.21-83.83-54.73,6.81-12.61,10.59-26.5,10.59-41.09,0-8.62-1.32-17-3.8-25.02,18.27,15.4,44.19,25.02,72.92,25.02,40.17,0,74.82-18.78,90.8-45.9,3.22.9,6.59,1.38,10.07,1.38,16.54,0,30.83-10.81,37.55-26.47,10.67,6.05,23.69,9.61,37.74,9.61,34.66,0,63.04-21.64,65.37-49.03,5.48.57,11.08.87,16.76.87,32.03,0,61.33-9.41,83.88-24.98,22.55,15.57,51.85,24.98,83.88,24.98,5.68,0,11.27-.3,16.76-.87,2.33,27.39,30.71,49.03,65.38,49.03,14.05,0,27.07-3.56,37.74-9.61,6.72,15.66,21.01,26.47,37.55,26.47,3.47,0,6.84-.48,10.06-1.38,15.99,27.12,50.64,45.9,90.8,45.9,2.65,0,5.27-.08,7.87-.24,13.39,12.98,37.07,23.4,66.37,29.18,5.8,16,16.31,30.41,30.23,42.25V14.02c-15.61,1.82-29.72,7.74-40.81,16.48Z"/>
</svg>